G04*
G04 #@! TF.GenerationSoftware,Altium Limited,Altium Designer,22.6.1 (34)*
G04*
G04 Layer_Physical_Order=2*
G04 Layer_Color=32768*
%FSAX43Y43*%
%MOMM*%
G71*
G04*
G04 #@! TF.SameCoordinates,DFD1A6D8-6486-425C-A6BB-C63D1257436E*
G04*
G04*
G04 #@! TF.FilePolarity,Negative*
G04*
G01*
G75*
%ADD56C,1.016*%
%ADD57C,1.300*%
%ADD58C,1.600*%
G04:AMPARAMS|DCode=59|XSize=2mm|YSize=2mm|CornerRadius=0mm|HoleSize=0mm|Usage=FLASHONLY|Rotation=0.000|XOffset=0mm|YOffset=0mm|HoleType=Round|Shape=Relief|Width=0.5mm|Gap=0.3mm|Entries=4|*
%AMTHD59*
7,0,0,2.000,1.400,0.500,45*
%
%ADD59THD59*%
%ADD60C,3.600*%
%ADD61C,0.900*%
D56*
X0000000Y0050000D02*
X0044000Y0050000D01*
Y0000000D02*
Y0050000D01*
X0000000Y0000000D02*
X0044000D01*
X0000000D02*
Y0050000D01*
D57*
X0019420Y0016795D02*
D03*
X0023400Y0033400D02*
D03*
X0019410Y0033390D02*
D03*
X0029600Y0046900D02*
D03*
X0022000Y0046575D02*
D03*
D58*
X0035780Y0027950D02*
D03*
X0002400Y0041870D02*
D03*
X0007910Y0012750D02*
D03*
X0007900Y0029350D02*
D03*
X0036100Y0011570D02*
D03*
D59*
X0035780Y0025410D02*
D03*
X0002400Y0039330D02*
D03*
X0007910Y0010210D02*
D03*
X0007900Y0026810D02*
D03*
X0036100Y0009030D02*
D03*
D60*
X0041150Y0047150D02*
D03*
Y0002850D02*
D03*
X0002850D02*
D03*
Y0047150D02*
D03*
D61*
X0028490Y0030900D02*
D03*
X0028742Y0012217D02*
D03*
X0028616Y0014830D02*
D03*
X0028700Y0028000D02*
D03*
X0035020Y0016645D02*
D03*
X0035010Y0033060D02*
D03*
X0026507Y0018480D02*
D03*
X0012807Y0015480D02*
D03*
X0012800Y0032100D02*
D03*
X0026500Y0035100D02*
D03*
X0010610Y0008715D02*
D03*
X0012810D02*
D03*
X0017220Y0008725D02*
D03*
X0017210Y0025240D02*
D03*
X0012801Y0025353D02*
D03*
X0010601D02*
D03*
M02*
