G04*
G04 #@! TF.GenerationSoftware,Altium Limited,Altium Designer,22.6.1 (34)*
G04*
G04 Layer_Color=65535*
%FSAX43Y43*%
%MOMM*%
G71*
G04*
G04 #@! TF.SameCoordinates,DFD1A6D8-6486-425C-A6BB-C63D1257436E*
G04*
G04*
G04 #@! TF.FilePolarity,Positive*
G04*
G01*
G75*
%ADD10C,0.250*%
%ADD11C,0.150*%
%ADD12C,0.200*%
%ADD13C,0.100*%
%ADD14C,0.300*%
D10*
X0024345Y0014125D02*
G03*
X0024345Y0014125I-0000125J0000000D01*
G01*
X0024335Y0029690D02*
G03*
X0024335Y0029690I-0000125J0000000D01*
G01*
X0004650Y0042950D02*
Y0043850D01*
X0005100D01*
X0005250Y0043700D01*
Y0043400D01*
X0005100Y0043250D01*
X0004650D01*
X0005550Y0043850D02*
Y0042950D01*
X0005850Y0043250D01*
X0006150Y0042950D01*
Y0043850D01*
X0006449Y0042950D02*
Y0043850D01*
X0006899D01*
X0007049Y0043700D01*
Y0043400D01*
X0006899Y0043250D01*
X0006449D01*
X0006749D02*
X0007049Y0042950D01*
X0007349Y0043850D02*
X0007649D01*
X0007499D01*
Y0042950D01*
X0007349D01*
X0007649D01*
X0008099D02*
Y0043550D01*
X0008549D01*
X0008699Y0043400D01*
Y0042950D01*
D11*
X0033415Y0039465D02*
G03*
X0033665Y0039715I0000000J0000250D01*
G01*
X0030715D02*
G03*
X0030965Y0039465I0000250J0000000D01*
G01*
X0030965Y0041015D02*
G03*
X0030715Y0040765I0000000J-0000250D01*
G01*
X0033665Y0040765D02*
G03*
X0033415Y0041015I-0000250J0000000D01*
G01*
X0036575Y0038575D02*
G03*
X0036325Y0038325I0000000J-0000250D01*
G01*
X0039275D02*
G03*
X0039025Y0038575I-0000250J0000000D01*
G01*
X0039025Y0037025D02*
G03*
X0039275Y0037275I0000000J0000250D01*
G01*
X0036325Y0037275D02*
G03*
X0036575Y0037025I0000250J0000000D01*
G01*
X0020550Y0016795D02*
G03*
X0020550Y0016795I-0001130J0000000D01*
G01*
X0013335Y0008390D02*
G03*
X0013585Y0008640I0000000J0000250D01*
G01*
Y0011090D02*
G03*
X0013335Y0011340I-0000250J0000000D01*
G01*
X0012285Y0011340D02*
G03*
X0012035Y0011090I0000000J-0000250D01*
G01*
Y0008640D02*
G03*
X0012285Y0008390I0000250J0000000D01*
G01*
X0022145Y0012000D02*
G03*
X0022395Y0012250I0000000J0000250D01*
G01*
Y0014700D02*
G03*
X0022145Y0014950I-0000250J0000000D01*
G01*
X0021095Y0014950D02*
G03*
X0020845Y0014700I0000000J-0000250D01*
G01*
Y0012250D02*
G03*
X0021095Y0012000I0000250J0000000D01*
G01*
X0016695Y0014950D02*
G03*
X0016445Y0014700I0000000J-0000250D01*
G01*
Y0012250D02*
G03*
X0016695Y0012000I0000250J0000000D01*
G01*
X0017745Y0012000D02*
G03*
X0017995Y0012250I0000000J0000250D01*
G01*
Y0014700D02*
G03*
X0017745Y0014950I-0000250J0000000D01*
G01*
X0013335Y0012000D02*
G03*
X0013585Y0012250I0000000J0000250D01*
G01*
Y0014700D02*
G03*
X0013335Y0014950I-0000250J0000000D01*
G01*
X0012285Y0014950D02*
G03*
X0012035Y0014700I0000000J-0000250D01*
G01*
Y0012250D02*
G03*
X0012285Y0012000I0000250J0000000D01*
G01*
X0024530Y0033400D02*
G03*
X0024530Y0033400I-0001130J0000000D01*
G01*
X0020540Y0033390D02*
G03*
X0020540Y0033390I-0001130J0000000D01*
G01*
X0019935Y0028615D02*
G03*
X0020185Y0028865I0000000J0000250D01*
G01*
Y0031315D02*
G03*
X0019935Y0031565I-0000250J0000000D01*
G01*
X0018885Y0031565D02*
G03*
X0018635Y0031315I0000000J-0000250D01*
G01*
Y0028865D02*
G03*
X0018885Y0028615I0000250J0000000D01*
G01*
X0013326Y0025028D02*
G03*
X0013576Y0025278I0000000J0000250D01*
G01*
Y0027728D02*
G03*
X0013326Y0027978I-0000250J0000000D01*
G01*
X0012276Y0027978D02*
G03*
X0012026Y0027728I0000000J-0000250D01*
G01*
Y0025278D02*
G03*
X0012276Y0025028I0000250J0000000D01*
G01*
X0014485Y0031570D02*
G03*
X0014235Y0031320I0000000J-0000250D01*
G01*
Y0028870D02*
G03*
X0014485Y0028620I0000250J0000000D01*
G01*
X0015535Y0028620D02*
G03*
X0015785Y0028870I0000000J0000250D01*
G01*
Y0031320D02*
G03*
X0015535Y0031570I-0000250J0000000D01*
G01*
X0013328Y0028620D02*
G03*
X0013578Y0028870I0000000J0000250D01*
G01*
Y0031320D02*
G03*
X0013328Y0031570I-0000250J0000000D01*
G01*
X0012278Y0031570D02*
G03*
X0012028Y0031320I0000000J-0000250D01*
G01*
Y0028870D02*
G03*
X0012278Y0028620I0000250J0000000D01*
G01*
X0030730Y0046900D02*
G03*
X0030730Y0046900I-0001130J0000000D01*
G01*
X0023130Y0046575D02*
G03*
X0023130Y0046575I-0001130J0000000D01*
G01*
X0031185Y0026315D02*
G03*
X0031435Y0026565I0000000J0000250D01*
G01*
Y0029015D02*
G03*
X0031185Y0029265I-0000250J0000000D01*
G01*
X0030135Y0029265D02*
G03*
X0029885Y0029015I0000000J-0000250D01*
G01*
Y0026565D02*
G03*
X0030135Y0026315I0000250J0000000D01*
G01*
X0031145Y0009900D02*
G03*
X0031395Y0010150I0000000J0000250D01*
G01*
Y0012600D02*
G03*
X0031145Y0012850I-0000250J0000000D01*
G01*
X0030095Y0012850D02*
G03*
X0029845Y0012600I0000000J-0000250D01*
G01*
Y0010150D02*
G03*
X0030095Y0009900I0000250J0000000D01*
G01*
X0041475Y0041424D02*
Y0043424D01*
X0040275Y0041424D02*
X0041475Y0041424D01*
X0040275Y0043424D02*
X0041475D01*
X0039149Y0042320D02*
Y0042520D01*
X0039249Y0042320D02*
Y0042520D01*
Y0042320D02*
X0039349Y0042420D01*
Y0042720D01*
X0039049Y0042420D02*
X0039349Y0042720D01*
X0039049Y0042420D02*
X0039349Y0042120D01*
Y0042720D01*
X0035705Y0048215D02*
X0037255D01*
X0035705Y0045265D02*
Y0048215D01*
X0037255Y0045265D02*
Y0048215D01*
X0035705Y0045265D02*
X0037255D01*
X0033495D02*
X0035045D01*
X0035045D02*
Y0048215D01*
X0033495Y0045265D02*
Y0048215D01*
X0033495D02*
X0035045D01*
X0039805Y0038990D02*
X0041355D01*
X0034235D02*
X0035785D01*
X0033665Y0039715D02*
Y0040765D01*
X0030965Y0041015D02*
X0033390D01*
X0030965Y0039465D02*
X0033415D01*
X0030715Y0039715D02*
Y0040765D01*
X0036325Y0037275D02*
Y0038325D01*
X0036600Y0037025D02*
X0039025D01*
X0036575Y0038575D02*
X0039025D01*
X0039275Y0037275D02*
Y0038325D01*
X0034245Y0013500D02*
X0035795D01*
X0035795D02*
Y0016450D01*
X0034245Y0013500D02*
Y0016450D01*
X0034245D02*
X0035795D01*
X0033595Y0013500D02*
Y0016450D01*
X0032045Y0013500D02*
Y0016450D01*
X0029845Y0016475D02*
X0031395D01*
X0029845Y0013525D02*
Y0016475D01*
X0031395Y0013525D02*
Y0016475D01*
X0029845Y0013525D02*
X0031395D01*
X0012285Y0011340D02*
X0013335D01*
X0012035Y0008640D02*
Y0011090D01*
X0013585Y0008665D02*
Y0011090D01*
X0012285Y0008390D02*
X0013335D01*
X0009835D02*
X0011385D01*
X0011385D02*
Y0011340D01*
X0009835Y0008390D02*
Y0011340D01*
X0009835D02*
X0011385D01*
X0021095Y0014950D02*
X0022145D01*
X0020845Y0012250D02*
Y0014700D01*
X0022395Y0012275D02*
Y0014700D01*
X0021095Y0012000D02*
X0022145D01*
X0018645Y0012000D02*
X0020195D01*
X0020195D02*
Y0014950D01*
X0018645Y0012000D02*
Y0014950D01*
X0018645D02*
X0020195D01*
X0016695Y0012000D02*
X0017745D01*
X0017995Y0012250D02*
Y0014700D01*
X0016445Y0012250D02*
Y0014675D01*
X0016695Y0014950D02*
X0017745D01*
X0014245D02*
X0015795D01*
X0014245Y0012000D02*
Y0014950D01*
X0015795Y0012000D02*
Y0014950D01*
X0014245Y0012000D02*
X0015795D01*
X0012285Y0014950D02*
X0013335D01*
X0012035Y0012250D02*
Y0014700D01*
X0013585Y0012275D02*
Y0014700D01*
X0012285Y0012000D02*
X0013335D01*
X0009835D02*
X0011385D01*
X0011385D02*
Y0014950D01*
X0009835Y0012000D02*
Y0014950D01*
X0009835D02*
X0011385D01*
X0034505Y0024130D02*
X0037055D01*
X0034505Y0029230D02*
X0037055D01*
Y0024130D02*
Y0029230D01*
X0034505Y0024130D02*
Y0029230D01*
X0035480Y0029985D02*
X0036080D01*
X0035480D02*
X0035780Y0029685D01*
X0036080Y0029985D01*
X0035780D02*
X0036080D01*
X0035680Y0029885D02*
X0035780Y0029985D01*
X0035680Y0029885D02*
X0035855D01*
X0035680Y0029810D02*
X0035855D01*
X0034235Y0029915D02*
X0035785D01*
X0035785D02*
Y0032865D01*
X0034235Y0029915D02*
Y0032865D01*
X0034235D02*
X0035785D01*
X0033585Y0029915D02*
Y0032865D01*
X0032035Y0029915D02*
Y0032865D01*
X0029835Y0032840D02*
X0031385D01*
X0029835Y0029890D02*
Y0032840D01*
X0031385Y0029890D02*
Y0032840D01*
X0029835Y0029890D02*
X0031385D01*
X0018885Y0031565D02*
X0019935D01*
X0018635Y0028865D02*
Y0031315D01*
X0020185Y0028890D02*
Y0031315D01*
X0018885Y0028615D02*
X0019935D01*
X0012276Y0027978D02*
X0013326D01*
X0012026Y0025278D02*
Y0027728D01*
X0013576Y0025303D02*
Y0027728D01*
X0012276Y0025028D02*
X0013326D01*
X0009826D02*
X0011376D01*
X0011376D02*
Y0027978D01*
X0009826Y0025028D02*
Y0027978D01*
X0009826D02*
X0011376D01*
X0020835Y0028615D02*
X0022385D01*
X0022385D02*
Y0031565D01*
X0020835Y0028615D02*
Y0031565D01*
X0020835D02*
X0022385D01*
X0016435Y0031570D02*
X0017985D01*
X0016435Y0028620D02*
Y0031570D01*
X0017985Y0028620D02*
Y0031570D01*
X0016435Y0028620D02*
X0017985D01*
X0014485D02*
X0015535D01*
X0015785Y0028870D02*
Y0031320D01*
X0014235Y0028870D02*
Y0031295D01*
X0014485Y0031570D02*
X0015535D01*
X0012278D02*
X0013328D01*
X0012028Y0028870D02*
Y0031320D01*
X0013578Y0028895D02*
Y0031320D01*
X0012278Y0028620D02*
X0013328D01*
X0009828D02*
X0011378D01*
X0011378D02*
Y0031570D01*
X0009828Y0028620D02*
Y0031570D01*
X0009828D02*
X0011378D01*
X0038050Y0006141D02*
X0043950D01*
X0038050Y0019359D02*
X0043950D01*
X0038050Y0006141D02*
Y0019359D01*
X0038050Y0022741D02*
X0043950D01*
X0038050Y0035959D02*
X0043950D01*
X0038050Y0022741D02*
Y0035959D01*
X0030365Y0041450D02*
Y0044400D01*
X0028815Y0041450D02*
Y0044400D01*
X0026975Y0045425D02*
Y0046975D01*
X0024025Y0046975D02*
X0026975D01*
X0024025Y0045425D02*
X0026975D01*
X0024025Y0045425D02*
Y0046975D01*
X0001125Y0038050D02*
X0003675D01*
X0001125Y0043150D02*
X0003675D01*
Y0038050D02*
Y0043150D01*
X0001125Y0038050D02*
Y0043150D01*
X0002100Y0043905D02*
X0002700D01*
X0002100D02*
X0002400Y0043605D01*
X0002700Y0043905D01*
X0002400D02*
X0002700D01*
X0002300Y0043805D02*
X0002400Y0043905D01*
X0002300Y0043805D02*
X0002475D01*
X0002300Y0043730D02*
X0002475D01*
X0039270Y0039215D02*
Y0040765D01*
X0036320Y0040765D02*
X0039270D01*
X0036320Y0039215D02*
X0039270D01*
X0036320Y0039215D02*
Y0040765D01*
X0012225Y0036450D02*
Y0036850D01*
X0009252D02*
X0012225D01*
X0009252Y0036700D02*
X0012223D01*
X0009252Y0036600D02*
X0012223D01*
X0014575Y0036452D02*
X0017548D01*
X0014577Y0036602D02*
X0017548D01*
X0014577Y0036702D02*
X0017548D01*
X0014575Y0036852D02*
X0017548D01*
X0014575Y0036452D02*
Y0036852D01*
Y0044750D02*
X0015875D01*
X0017550Y0043075D01*
X0009250D02*
X0010925Y0044750D01*
X0012225D01*
X0017550Y0036450D02*
Y0043075D01*
X0009250Y0036450D02*
X0012225D01*
X0009250D02*
Y0043075D01*
X0021050Y0042550D02*
X0027550D01*
X0021050Y0039250D02*
X0027550D01*
Y0042550D01*
X0021050Y0039250D02*
Y0042550D01*
X0018825Y0041725D02*
X0020375D01*
X0020375D02*
Y0044675D01*
X0018825Y0041725D02*
Y0044675D01*
X0018825D02*
X0020375D01*
X0008325Y0040000D02*
Y0040250D01*
X0006875Y0040000D02*
X0008325D01*
X0006875D02*
Y0040250D01*
X0006125Y0040000D02*
Y0040250D01*
X0004675Y0040000D02*
X0006125D01*
X0004675D02*
Y0040250D01*
X0032085Y0026290D02*
X0033635D01*
X0033635D02*
Y0029240D01*
X0032085Y0026290D02*
Y0029240D01*
X0032085D02*
X0033635D01*
X0030135Y0029265D02*
X0031185D01*
X0029885Y0026565D02*
Y0029015D01*
X0031435Y0026590D02*
Y0029015D01*
X0030135Y0026315D02*
X0031185D01*
X0030625Y0036475D02*
X0033575D01*
X0030625Y0034925D02*
X0033575D01*
X0032045Y0009900D02*
X0033595D01*
X0033595D02*
Y0012850D01*
X0032045Y0009900D02*
Y0012850D01*
X0032045D02*
X0033595D01*
X0030095D02*
X0031145D01*
X0029845Y0010150D02*
Y0012600D01*
X0031395Y0010175D02*
Y0012600D01*
X0030095Y0009900D02*
X0031145D01*
X0006635Y0008930D02*
X0009185D01*
X0006635Y0014030D02*
X0009185D01*
Y0008930D02*
Y0014030D01*
X0006635Y0008930D02*
Y0014030D01*
X0007610Y0014785D02*
X0008210D01*
X0007610D02*
X0007910Y0014485D01*
X0008210Y0014785D01*
X0007910D02*
X0008210D01*
X0007810Y0014685D02*
X0007910Y0014785D01*
X0007810Y0014685D02*
X0007985D01*
X0007810Y0014610D02*
X0007985D01*
X0024625Y0014725D02*
Y0016275D01*
Y0014725D02*
X0027575D01*
X0024625Y0016275D02*
X0027575D01*
Y0014725D02*
Y0016275D01*
X0016445Y0011350D02*
X0017995D01*
X0016445Y0008400D02*
Y0011350D01*
X0017995Y0008400D02*
Y0011350D01*
X0016445Y0008400D02*
X0017995D01*
X0018645D02*
Y0011350D01*
X0020195Y0008400D02*
Y0011350D01*
X0020845Y0008400D02*
X0022395D01*
X0022395D02*
Y0011350D01*
X0020845Y0008400D02*
Y0011350D01*
X0020845D02*
X0022395D01*
X0024725Y0030325D02*
Y0031875D01*
Y0030325D02*
X0027675D01*
X0024725Y0031875D02*
X0027675D01*
Y0030325D02*
Y0031875D01*
X0020835Y0024940D02*
X0022385D01*
X0022385D02*
Y0027890D01*
X0020835Y0024940D02*
Y0027890D01*
X0020835D02*
X0022385D01*
X0018635Y0024915D02*
Y0027865D01*
X0020185Y0024915D02*
Y0027865D01*
X0016435D02*
X0017985D01*
X0016435Y0024915D02*
Y0027865D01*
X0017985Y0024915D02*
Y0027865D01*
X0016435Y0024915D02*
X0017985D01*
X0006625Y0025530D02*
X0009175D01*
X0006625Y0030630D02*
X0009175D01*
Y0025530D02*
Y0030630D01*
X0006625Y0025530D02*
Y0030630D01*
X0007600Y0031385D02*
X0008200D01*
X0007600D02*
X0007900Y0031085D01*
X0008200Y0031385D01*
X0007900D02*
X0008200D01*
X0007800Y0031285D02*
X0007900Y0031385D01*
X0007800Y0031285D02*
X0007975D01*
X0007800Y0031210D02*
X0007975D01*
X0000050Y0019359D02*
X0005950D01*
X0000050Y0006141D02*
X0005950D01*
Y0019359D01*
X0000050Y0035959D02*
X0005950D01*
X0000050Y0022741D02*
X0005950D01*
Y0035959D01*
X0034825Y0007750D02*
X0037375D01*
X0034825Y0012850D02*
X0037375D01*
Y0007750D02*
Y0012850D01*
X0034825Y0007750D02*
Y0012850D01*
X0035800Y0013605D02*
X0036400D01*
X0035800D02*
X0036100Y0013305D01*
X0036400Y0013605D01*
X0036100D02*
X0036400D01*
X0036000Y0013505D02*
X0036100Y0013605D01*
X0036000Y0013505D02*
X0036175D01*
X0036000Y0013430D02*
X0036175D01*
D12*
X0032930Y0041660D02*
X0033530D01*
X0032930D02*
Y0044560D01*
X0033530D01*
Y0041660D02*
Y0044560D01*
X0033880Y0041610D02*
X0035080D01*
X0036550Y0042933D02*
X0037040Y0043424D01*
X0038075D01*
X0036650Y0041824D02*
Y0043024D01*
X0036550Y0042933D02*
X0036550Y0041914D01*
X0037040Y0041424D02*
X0038075D01*
X0036550Y0041914D02*
X0037040Y0041424D01*
X0007140Y0042125D02*
X0008060Y0042125D01*
X0006850Y0041775D02*
Y0041835D01*
X0007100Y0042025D02*
X0008100D01*
X0006850Y0041835D02*
X0007140Y0042125D01*
X0008350Y0041775D02*
Y0041825D01*
X0008060Y0042125D02*
X0008350Y0041835D01*
X0004940Y0042125D02*
X0005860Y0042125D01*
X0004650Y0041775D02*
Y0041835D01*
X0004900Y0042025D02*
X0005900D01*
X0004650Y0041835D02*
X0004940Y0042125D01*
X0006150Y0041775D02*
Y0041825D01*
X0005860Y0042125D02*
X0006150Y0041835D01*
X0023800Y0035800D02*
Y0035267D01*
X0024067Y0035000D01*
X0024333Y0035267D01*
Y0035800D01*
X0024600Y0035400D02*
X0025133D01*
X0007293Y0034783D02*
X0007160Y0034916D01*
X0006893D01*
X0006760Y0034783D01*
Y0034650D01*
X0006893Y0034516D01*
X0007160D01*
X0007293Y0034383D01*
Y0034250D01*
X0007160Y0034117D01*
X0006893D01*
X0006760Y0034250D01*
X0007560Y0034117D02*
X0007826D01*
X0007693D01*
Y0034650D01*
X0007560D01*
X0008493Y0033850D02*
X0008626D01*
X0008759Y0033983D01*
Y0034650D01*
X0008359D01*
X0008226Y0034516D01*
Y0034250D01*
X0008359Y0034117D01*
X0008759D01*
X0009026Y0034916D02*
X0009293D01*
X0009159D01*
Y0034117D01*
X0009026D01*
X0009293D01*
X0009692D02*
Y0034650D01*
X0010092D01*
X0010226Y0034516D01*
Y0034117D01*
X0010492D02*
X0010759D01*
X0010625D01*
Y0034916D01*
X0010492Y0034783D01*
X0007780Y0002210D02*
X0007580Y0002409D01*
X0007180D01*
X0006980Y0002210D01*
Y0002010D01*
X0007180Y0001810D01*
X0007580D01*
X0007780Y0001610D01*
Y0001410D01*
X0007580Y0001210D01*
X0007180D01*
X0006980Y0001410D01*
X0008979Y0002210D02*
X0008779Y0002409D01*
X0008380D01*
X0008180Y0002210D01*
Y0001410D01*
X0008380Y0001210D01*
X0008779D01*
X0008979Y0001410D01*
X0010179Y0002409D02*
X0009379D01*
Y0001210D01*
X0010179D01*
X0009379Y0001810D02*
X0009779D01*
X0010579Y0002409D02*
Y0001210D01*
X0011379D01*
X0012578Y0002210D02*
X0012378Y0002409D01*
X0011978D01*
X0011778Y0002210D01*
Y0002010D01*
X0011978Y0001810D01*
X0012378D01*
X0012578Y0001610D01*
Y0001410D01*
X0012378Y0001210D01*
X0011978D01*
X0011778Y0001410D01*
X0013778Y0002409D02*
X0012978D01*
Y0001210D01*
X0013778D01*
X0012978Y0001810D02*
X0013378D01*
X0015377Y0001210D02*
Y0002409D01*
X0015977D01*
X0016177Y0002210D01*
Y0001810D01*
X0015977Y0001610D01*
X0015377D01*
X0016577Y0002010D02*
Y0001210D01*
Y0001610D01*
X0016777Y0001810D01*
X0016977Y0002010D01*
X0017177D01*
X0018376Y0001210D02*
X0017976D01*
X0017777Y0001410D01*
Y0001810D01*
X0017976Y0002010D01*
X0018376D01*
X0018576Y0001810D01*
Y0001610D01*
X0017777D01*
X0019176Y0002010D02*
X0019576D01*
X0019776Y0001810D01*
Y0001210D01*
X0019176D01*
X0018976Y0001410D01*
X0019176Y0001610D01*
X0019776D01*
X0020176Y0001210D02*
Y0002010D01*
X0020376D01*
X0020576Y0001810D01*
Y0001210D01*
Y0001810D01*
X0020776Y0002010D01*
X0020975Y0001810D01*
Y0001210D01*
X0021375Y0000810D02*
Y0002010D01*
X0021975D01*
X0022175Y0001810D01*
Y0001410D01*
X0021975Y0001210D01*
X0021375D01*
X0023775Y0002010D02*
X0024174Y0001210D01*
X0024574Y0002010D01*
X0024974Y0001210D02*
X0025374D01*
X0025174D01*
Y0002409D01*
X0024974Y0002210D01*
X0025974Y0002010D02*
Y0001210D01*
Y0001610D01*
X0026174Y0001810D01*
X0026374Y0002010D01*
X0026574D01*
X0027173Y0002210D02*
X0027373Y0002409D01*
X0027773D01*
X0027973Y0002210D01*
Y0002010D01*
X0027773Y0001810D01*
X0027573D01*
X0027773D01*
X0027973Y0001610D01*
Y0001410D01*
X0027773Y0001210D01*
X0027373D01*
X0027173Y0001410D01*
X0030933Y0018633D02*
X0030800Y0018766D01*
X0030533D01*
X0030400Y0018633D01*
Y0018500D01*
X0030533Y0018366D01*
X0030800D01*
X0030933Y0018233D01*
Y0018100D01*
X0030800Y0017967D01*
X0030533D01*
X0030400Y0018100D01*
X0031200Y0017967D02*
X0031466D01*
X0031333D01*
Y0018500D01*
X0031200D01*
X0032133Y0017700D02*
X0032266D01*
X0032399Y0017833D01*
Y0018500D01*
X0031999D01*
X0031866Y0018366D01*
Y0018100D01*
X0031999Y0017967D01*
X0032399D01*
X0033066Y0018766D02*
X0032799D01*
X0032666Y0018633D01*
Y0018100D01*
X0032799Y0017967D01*
X0033066D01*
X0033199Y0018100D01*
Y0018633D01*
X0033066Y0018766D01*
X0033466Y0018500D02*
Y0018100D01*
X0033599Y0017967D01*
X0033999D01*
Y0018500D01*
X0034399Y0018633D02*
Y0018500D01*
X0034265D01*
X0034532D01*
X0034399D01*
Y0018100D01*
X0034532Y0017967D01*
X0035465D02*
X0034932D01*
X0035465Y0018500D01*
Y0018633D01*
X0035332Y0018766D01*
X0035065D01*
X0034932Y0018633D01*
X0007193Y0018083D02*
X0007060Y0018216D01*
X0006793D01*
X0006660Y0018083D01*
Y0017950D01*
X0006793Y0017816D01*
X0007060D01*
X0007193Y0017683D01*
Y0017550D01*
X0007060Y0017417D01*
X0006793D01*
X0006660Y0017550D01*
X0007460Y0017417D02*
X0007726D01*
X0007593D01*
Y0017950D01*
X0007460D01*
X0008393Y0017150D02*
X0008526D01*
X0008659Y0017283D01*
Y0017950D01*
X0008259D01*
X0008126Y0017816D01*
Y0017550D01*
X0008259Y0017417D01*
X0008659D01*
X0008926Y0018216D02*
X0009193D01*
X0009059D01*
Y0017417D01*
X0008926D01*
X0009193D01*
X0009592D02*
Y0017950D01*
X0009992D01*
X0010126Y0017816D01*
Y0017417D01*
X0010925D02*
X0010392D01*
X0010925Y0017950D01*
Y0018083D01*
X0010792Y0018216D01*
X0010525D01*
X0010392Y0018083D01*
X0030433Y0034433D02*
X0030300Y0034566D01*
X0030033D01*
X0029900Y0034433D01*
Y0034300D01*
X0030033Y0034166D01*
X0030300D01*
X0030433Y0034033D01*
Y0033900D01*
X0030300Y0033767D01*
X0030033D01*
X0029900Y0033900D01*
X0030700Y0033767D02*
X0030966D01*
X0030833D01*
Y0034300D01*
X0030700D01*
X0031633Y0033500D02*
X0031766D01*
X0031899Y0033633D01*
Y0034300D01*
X0031499D01*
X0031366Y0034166D01*
Y0033900D01*
X0031499Y0033767D01*
X0031899D01*
X0032566Y0034566D02*
X0032299D01*
X0032166Y0034433D01*
Y0033900D01*
X0032299Y0033767D01*
X0032566D01*
X0032699Y0033900D01*
Y0034433D01*
X0032566Y0034566D01*
X0032966Y0034300D02*
Y0033900D01*
X0033099Y0033767D01*
X0033499D01*
Y0034300D01*
X0033899Y0034433D02*
Y0034300D01*
X0033765D01*
X0034032D01*
X0033899D01*
Y0033900D01*
X0034032Y0033767D01*
X0034432D02*
X0034698D01*
X0034565D01*
Y0034566D01*
X0034432Y0034433D01*
X0027700Y0049200D02*
Y0048667D01*
X0027967Y0048400D01*
X0028233Y0048667D01*
Y0049200D01*
X0028500Y0048800D02*
X0029033D01*
X0028766Y0049066D02*
Y0048533D01*
X0021000Y0049200D02*
Y0048667D01*
X0021267Y0048400D01*
X0021533Y0048667D01*
Y0049200D01*
X0021800Y0048400D02*
X0022066D01*
X0021933D01*
Y0048933D01*
X0021800D01*
X0022466Y0048400D02*
Y0048933D01*
X0022866D01*
X0022999Y0048800D01*
Y0048400D01*
X0031234Y0045900D02*
Y0045233D01*
X0031367Y0045100D01*
X0031633D01*
X0031767Y0045233D01*
Y0045900D01*
X0032566Y0045100D02*
X0032033D01*
X0032566Y0045633D01*
Y0045767D01*
X0032433Y0045900D01*
X0032167D01*
X0032033Y0045767D01*
X0027149Y0008700D02*
X0027682D01*
X0027415D01*
Y0007900D01*
X0027948D02*
Y0008700D01*
X0028348D01*
X0028482Y0008567D01*
Y0008300D01*
X0028348Y0008167D01*
X0027948D01*
X0028748Y0008567D02*
X0028881Y0008700D01*
X0029148D01*
X0029281Y0008567D01*
Y0008433D01*
X0029148Y0008300D01*
X0029281Y0008167D01*
Y0008033D01*
X0029148Y0007900D01*
X0028881D01*
X0028748Y0008033D01*
Y0008167D01*
X0028881Y0008300D01*
X0028748Y0008433D01*
Y0008567D01*
X0028881Y0008300D02*
X0029148D01*
X0023234Y0008700D02*
X0023767D01*
X0023500D01*
Y0007900D01*
X0024033D02*
Y0008700D01*
X0024433D01*
X0024567Y0008567D01*
Y0008300D01*
X0024433Y0008167D01*
X0024033D01*
X0024833Y0008033D02*
X0024966Y0007900D01*
X0025233D01*
X0025366Y0008033D01*
Y0008567D01*
X0025233Y0008700D01*
X0024966D01*
X0024833Y0008567D01*
Y0008433D01*
X0024966Y0008300D01*
X0025366D01*
X0025534Y0010600D02*
Y0009933D01*
X0025667Y0009800D01*
X0025933D01*
X0026067Y0009933D01*
Y0010600D01*
X0026733Y0009800D02*
Y0010600D01*
X0026333Y0010200D01*
X0026866D01*
X0027394Y0024200D02*
X0027927D01*
X0027660D01*
Y0023400D01*
X0028193D02*
Y0024200D01*
X0028593D01*
X0028727Y0024067D01*
Y0023800D01*
X0028593Y0023667D01*
X0028193D01*
X0028993Y0024200D02*
X0029526D01*
Y0024067D01*
X0028993Y0023533D01*
Y0023400D01*
X0022734Y0024200D02*
X0023267D01*
X0023000D01*
Y0023400D01*
X0023533D02*
Y0024200D01*
X0023933D01*
X0024067Y0024067D01*
Y0023800D01*
X0023933Y0023667D01*
X0023533D01*
X0024866Y0024200D02*
X0024600Y0024067D01*
X0024333Y0023800D01*
Y0023533D01*
X0024466Y0023400D01*
X0024733D01*
X0024866Y0023533D01*
Y0023667D01*
X0024733Y0023800D01*
X0024333D01*
X0025534Y0025800D02*
Y0025133D01*
X0025667Y0025000D01*
X0025933D01*
X0026067Y0025133D01*
Y0025800D01*
X0026333Y0025667D02*
X0026467Y0025800D01*
X0026733D01*
X0026866Y0025667D01*
Y0025533D01*
X0026733Y0025400D01*
X0026600D01*
X0026733D01*
X0026866Y0025267D01*
Y0025133D01*
X0026733Y0025000D01*
X0026467D01*
X0026333Y0025133D01*
X0041967Y0042400D02*
Y0041600D01*
X0042367D01*
X0042500Y0041733D01*
Y0042267D01*
X0042367Y0042400D01*
X0041967D01*
X0042767Y0041600D02*
X0043033D01*
X0042900D01*
Y0042400D01*
X0042767Y0042267D01*
X0035900Y0044000D02*
Y0044800D01*
X0036300D01*
X0036433Y0044667D01*
Y0044400D01*
X0036300Y0044267D01*
X0035900D01*
X0036167D02*
X0036433Y0044000D01*
X0036700D02*
X0036967D01*
X0036833D01*
Y0044800D01*
X0036700Y0044667D01*
X0037367D02*
X0037500Y0044800D01*
X0037766D01*
X0037900Y0044667D01*
Y0044533D01*
X0037766Y0044400D01*
X0037633D01*
X0037766D01*
X0037900Y0044267D01*
Y0044133D01*
X0037766Y0044000D01*
X0037500D01*
X0037367Y0044133D01*
X0032800Y0047100D02*
X0032000D01*
Y0047500D01*
X0032133Y0047633D01*
X0032400D01*
X0032533Y0047500D01*
Y0047100D01*
Y0047367D02*
X0032800Y0047633D01*
Y0047900D02*
Y0048167D01*
Y0048033D01*
X0032000D01*
X0032133Y0047900D01*
X0032800Y0048966D02*
X0032000D01*
X0032400Y0048567D01*
Y0049100D01*
X0041934Y0038500D02*
Y0037700D01*
X0042467D01*
X0043266D02*
X0042733D01*
X0043266Y0038233D01*
Y0038367D01*
X0043133Y0038500D01*
X0042867D01*
X0042733Y0038367D01*
X0032840Y0037497D02*
X0033640D01*
Y0038030D01*
Y0038297D02*
Y0038563D01*
Y0038430D01*
X0032840D01*
X0032973Y0038297D01*
X0030837Y0038737D02*
X0030703Y0038870D01*
X0030437D01*
X0030304Y0038737D01*
Y0038203D01*
X0030437Y0038070D01*
X0030703D01*
X0030837Y0038203D01*
X0031636Y0038070D02*
X0031103D01*
X0031636Y0038603D01*
Y0038737D01*
X0031503Y0038870D01*
X0031237D01*
X0031103Y0038737D01*
X0019410Y0037617D02*
X0020077D01*
X0020210Y0037750D01*
Y0038017D01*
X0020077Y0038150D01*
X0019410D01*
X0020210Y0038417D02*
Y0038683D01*
Y0038550D01*
X0019410D01*
X0019543Y0038417D01*
X0007100Y0036334D02*
Y0036867D01*
Y0036600D01*
X0007900D01*
X0007100Y0037134D02*
X0007633D01*
X0007900Y0037400D01*
X0007633Y0037667D01*
X0007100D01*
X0007233Y0038466D02*
X0007100Y0038333D01*
Y0038067D01*
X0007233Y0037933D01*
X0007367D01*
X0007500Y0038067D01*
Y0038333D01*
X0007633Y0038466D01*
X0007767D01*
X0007900Y0038333D01*
Y0038067D01*
X0007767Y0037933D01*
X0007900Y0039266D02*
Y0038733D01*
X0007367Y0039266D01*
X0007233D01*
X0007100Y0039133D01*
Y0038866D01*
X0007233Y0038733D01*
X0004900Y0036567D02*
Y0037100D01*
Y0036834D01*
X0005700D01*
X0004900Y0037367D02*
X0005433D01*
X0005700Y0037633D01*
X0005433Y0037900D01*
X0004900D01*
X0005033Y0038700D02*
X0004900Y0038566D01*
Y0038300D01*
X0005033Y0038167D01*
X0005167D01*
X0005300Y0038300D01*
Y0038566D01*
X0005433Y0038700D01*
X0005567D01*
X0005700Y0038566D01*
Y0038300D01*
X0005567Y0038167D01*
X0005700Y0038966D02*
Y0039233D01*
Y0039100D01*
X0004900D01*
X0005033Y0038966D01*
X0018524Y0019380D02*
X0019057D01*
X0018790D01*
Y0018580D01*
X0019323D02*
Y0019380D01*
X0019723D01*
X0019857Y0019247D01*
Y0018980D01*
X0019723Y0018847D01*
X0019323D01*
X0020656Y0019380D02*
X0020123D01*
Y0018980D01*
X0020390Y0019113D01*
X0020523D01*
X0020656Y0018980D01*
Y0018713D01*
X0020523Y0018580D01*
X0020256D01*
X0020123Y0018713D01*
X0019934Y0035800D02*
X0020467D01*
X0020200D01*
Y0035000D01*
X0020733D02*
Y0035800D01*
X0021133D01*
X0021267Y0035667D01*
Y0035400D01*
X0021133Y0035267D01*
X0020733D01*
X0021933Y0035000D02*
Y0035800D01*
X0021533Y0035400D01*
X0022066D01*
X0014900Y0015690D02*
X0014100D01*
Y0016090D01*
X0014233Y0016223D01*
X0014500D01*
X0014633Y0016090D01*
Y0015690D01*
Y0015957D02*
X0014900Y0016223D01*
Y0016490D02*
Y0016757D01*
Y0016623D01*
X0014100D01*
X0014233Y0016490D01*
X0014900Y0017690D02*
Y0017157D01*
X0014367Y0017690D01*
X0014233D01*
X0014100Y0017556D01*
Y0017290D01*
X0014233Y0017157D01*
X0010770Y0006004D02*
X0009970D01*
Y0006403D01*
X0010103Y0006537D01*
X0010370D01*
X0010503Y0006403D01*
Y0006004D01*
Y0006270D02*
X0010770Y0006537D01*
Y0006803D02*
Y0007070D01*
Y0006937D01*
X0009970D01*
X0010103Y0006803D01*
X0010770Y0007470D02*
Y0007736D01*
Y0007603D01*
X0009970D01*
X0010103Y0007470D01*
X0023900Y0014800D02*
X0023100D01*
Y0015200D01*
X0023233Y0015333D01*
X0023500D01*
X0023633Y0015200D01*
Y0014800D01*
Y0015067D02*
X0023900Y0015333D01*
Y0015600D02*
Y0015867D01*
Y0015733D01*
X0023100D01*
X0023233Y0015600D01*
Y0016267D02*
X0023100Y0016400D01*
Y0016666D01*
X0023233Y0016800D01*
X0023767D01*
X0023900Y0016666D01*
Y0016400D01*
X0023767Y0016267D01*
X0023233D01*
X0011060Y0015654D02*
X0010260D01*
Y0016053D01*
X0010393Y0016187D01*
X0010660D01*
X0010793Y0016053D01*
Y0015654D01*
Y0015920D02*
X0011060Y0016187D01*
X0010927Y0016453D02*
X0011060Y0016587D01*
Y0016853D01*
X0010927Y0016986D01*
X0010393D01*
X0010260Y0016853D01*
Y0016587D01*
X0010393Y0016453D01*
X0010527D01*
X0010660Y0016587D01*
Y0016986D01*
X0033200Y0008134D02*
X0032400D01*
Y0008533D01*
X0032533Y0008667D01*
X0032800D01*
X0032933Y0008533D01*
Y0008134D01*
Y0008400D02*
X0033200Y0008667D01*
X0032533Y0008933D02*
X0032400Y0009067D01*
Y0009333D01*
X0032533Y0009466D01*
X0032667D01*
X0032800Y0009333D01*
X0032933Y0009466D01*
X0033067D01*
X0033200Y0009333D01*
Y0009067D01*
X0033067Y0008933D01*
X0032933D01*
X0032800Y0009067D01*
X0032667Y0008933D01*
X0032533D01*
X0032800Y0009067D02*
Y0009333D01*
X0017680Y0015734D02*
X0016880D01*
Y0016133D01*
X0017013Y0016267D01*
X0017280D01*
X0017413Y0016133D01*
Y0015734D01*
Y0016000D02*
X0017680Y0016267D01*
X0016880Y0016533D02*
Y0017066D01*
X0017013D01*
X0017547Y0016533D01*
X0017680D01*
X0016450Y0032234D02*
X0015650D01*
Y0032633D01*
X0015783Y0032767D01*
X0016050D01*
X0016183Y0032633D01*
Y0032234D01*
Y0032500D02*
X0016450Y0032767D01*
X0015650Y0033566D02*
X0015783Y0033300D01*
X0016050Y0033033D01*
X0016317D01*
X0016450Y0033167D01*
Y0033433D01*
X0016317Y0033566D01*
X0016183D01*
X0016050Y0033433D01*
Y0033033D01*
X0010860Y0022994D02*
X0010060D01*
Y0023393D01*
X0010193Y0023527D01*
X0010460D01*
X0010593Y0023393D01*
Y0022994D01*
Y0023260D02*
X0010860Y0023527D01*
X0010060Y0024326D02*
Y0023793D01*
X0010460D01*
X0010327Y0024060D01*
Y0024193D01*
X0010460Y0024326D01*
X0010727D01*
X0010860Y0024193D01*
Y0023927D01*
X0010727Y0023793D01*
X0024100Y0030234D02*
X0023300D01*
Y0030633D01*
X0023433Y0030767D01*
X0023700D01*
X0023833Y0030633D01*
Y0030234D01*
Y0030500D02*
X0024100Y0030767D01*
Y0031433D02*
X0023300D01*
X0023700Y0031033D01*
Y0031566D01*
X0010950Y0032194D02*
X0010150D01*
Y0032593D01*
X0010283Y0032727D01*
X0010550D01*
X0010683Y0032593D01*
Y0032194D01*
Y0032460D02*
X0010950Y0032727D01*
X0010283Y0032993D02*
X0010150Y0033127D01*
Y0033393D01*
X0010283Y0033526D01*
X0010417D01*
X0010550Y0033393D01*
Y0033260D01*
Y0033393D01*
X0010683Y0033526D01*
X0010817D01*
X0010950Y0033393D01*
Y0033127D01*
X0010817Y0032993D01*
X0033240Y0024264D02*
X0032440D01*
Y0024663D01*
X0032573Y0024797D01*
X0032840D01*
X0032973Y0024663D01*
Y0024264D01*
Y0024530D02*
X0033240Y0024797D01*
Y0025596D02*
Y0025063D01*
X0032707Y0025596D01*
X0032573D01*
X0032440Y0025463D01*
Y0025197D01*
X0032573Y0025063D01*
X0021770Y0032157D02*
X0020970D01*
Y0032557D01*
X0021103Y0032690D01*
X0021370D01*
X0021503Y0032557D01*
Y0032157D01*
Y0032423D02*
X0021770Y0032690D01*
Y0032957D02*
Y0033223D01*
Y0033090D01*
X0020970D01*
X0021103Y0032957D01*
X0018900Y0006387D02*
Y0005854D01*
X0019300D01*
Y0006120D01*
Y0005854D01*
X0019700D01*
X0018900Y0006653D02*
X0019700D01*
Y0007053D01*
X0019567Y0007187D01*
X0019433D01*
X0019300Y0007053D01*
Y0006653D01*
Y0007053D01*
X0019167Y0007187D01*
X0019033D01*
X0018900Y0007053D01*
Y0006653D01*
Y0007986D02*
X0019033Y0007720D01*
X0019300Y0007453D01*
X0019567D01*
X0019700Y0007586D01*
Y0007853D01*
X0019567Y0007986D01*
X0019433D01*
X0019300Y0007853D01*
Y0007453D01*
X0027700Y0017767D02*
Y0017234D01*
X0028100D01*
Y0017500D01*
Y0017234D01*
X0028500D01*
X0027700Y0018033D02*
X0028500D01*
Y0018433D01*
X0028367Y0018567D01*
X0028233D01*
X0028100Y0018433D01*
Y0018033D01*
Y0018433D01*
X0027967Y0018567D01*
X0027833D01*
X0027700Y0018433D01*
Y0018033D01*
Y0019366D02*
Y0018833D01*
X0028100D01*
X0027967Y0019100D01*
Y0019233D01*
X0028100Y0019366D01*
X0028367D01*
X0028500Y0019233D01*
Y0018966D01*
X0028367Y0018833D01*
X0019000Y0022997D02*
Y0022464D01*
X0019400D01*
Y0022730D01*
Y0022464D01*
X0019800D01*
X0019000Y0023263D02*
X0019800D01*
Y0023663D01*
X0019667Y0023797D01*
X0019533D01*
X0019400Y0023663D01*
Y0023263D01*
Y0023663D01*
X0019267Y0023797D01*
X0019133D01*
X0019000Y0023663D01*
Y0023263D01*
X0019800Y0024463D02*
X0019000D01*
X0019400Y0024063D01*
Y0024596D01*
X0027200Y0032967D02*
Y0032434D01*
X0027600D01*
Y0032700D01*
Y0032434D01*
X0028000D01*
X0027200Y0033233D02*
X0028000D01*
Y0033633D01*
X0027867Y0033767D01*
X0027733D01*
X0027600Y0033633D01*
Y0033233D01*
Y0033633D01*
X0027467Y0033767D01*
X0027333D01*
X0027200Y0033633D01*
Y0033233D01*
X0027333Y0034033D02*
X0027200Y0034166D01*
Y0034433D01*
X0027333Y0034566D01*
X0027467D01*
X0027600Y0034433D01*
Y0034300D01*
Y0034433D01*
X0027733Y0034566D01*
X0027867D01*
X0028000Y0034433D01*
Y0034166D01*
X0027867Y0034033D01*
X0028487Y0036040D02*
X0027954D01*
Y0035640D01*
X0028220D01*
X0027954D01*
Y0035240D01*
X0028753Y0036040D02*
Y0035240D01*
X0029153D01*
X0029287Y0035373D01*
Y0035507D01*
X0029153Y0035640D01*
X0028753D01*
X0029153D01*
X0029287Y0035773D01*
Y0035907D01*
X0029153Y0036040D01*
X0028753D01*
X0030086Y0035240D02*
X0029553D01*
X0030086Y0035773D01*
Y0035907D01*
X0029953Y0036040D01*
X0029686D01*
X0029553Y0035907D01*
X0029190Y0039922D02*
Y0039389D01*
X0029590D01*
Y0039655D01*
Y0039389D01*
X0029990D01*
X0029190Y0040189D02*
X0029990D01*
Y0040588D01*
X0029857Y0040722D01*
X0029723D01*
X0029590Y0040588D01*
Y0040189D01*
Y0040588D01*
X0029457Y0040722D01*
X0029323D01*
X0029190Y0040588D01*
Y0040189D01*
X0029990Y0040988D02*
Y0041255D01*
Y0041122D01*
X0029190D01*
X0029323Y0040988D01*
X0009650Y0047197D02*
X0009517Y0047330D01*
X0009250D01*
X0009117Y0047197D01*
Y0046663D01*
X0009250Y0046530D01*
X0009517D01*
X0009650Y0046663D01*
X0009917Y0046530D02*
Y0047330D01*
X0010317D01*
X0010450Y0047197D01*
Y0046930D01*
X0010317Y0046797D01*
X0009917D01*
X0010716Y0046530D02*
X0010983D01*
X0010850D01*
Y0047330D01*
X0010716Y0047197D01*
X0007057Y0007637D02*
X0006924Y0007770D01*
X0006657D01*
X0006524Y0007637D01*
Y0007103D01*
X0006657Y0006970D01*
X0006924D01*
X0007057Y0007103D01*
X0007324Y0006970D02*
Y0007770D01*
X0007857Y0006970D01*
Y0007770D01*
X0008123Y0006970D02*
Y0007770D01*
X0008523D01*
X0008656Y0007637D01*
Y0007370D01*
X0008523Y0007237D01*
X0008123D01*
X0008390D02*
X0008656Y0006970D01*
X0008923Y0007770D02*
X0009456D01*
Y0007637D01*
X0008923Y0007103D01*
Y0006970D01*
X0003777Y0020687D02*
X0003644Y0020820D01*
X0003377D01*
X0003244Y0020687D01*
Y0020153D01*
X0003377Y0020020D01*
X0003644D01*
X0003777Y0020153D01*
X0004044Y0020020D02*
Y0020820D01*
X0004577Y0020020D01*
Y0020820D01*
X0004843Y0020020D02*
Y0020820D01*
X0005243D01*
X0005376Y0020687D01*
Y0020420D01*
X0005243Y0020287D01*
X0004843D01*
X0005110D02*
X0005376Y0020020D01*
X0006176Y0020820D02*
X0005910Y0020687D01*
X0005643Y0020420D01*
Y0020153D01*
X0005776Y0020020D01*
X0006043D01*
X0006176Y0020153D01*
Y0020287D01*
X0006043Y0020420D01*
X0005643D01*
X0038307Y0020687D02*
X0038174Y0020820D01*
X0037907D01*
X0037774Y0020687D01*
Y0020153D01*
X0037907Y0020020D01*
X0038174D01*
X0038307Y0020153D01*
X0038574Y0020020D02*
Y0020820D01*
X0039107Y0020020D01*
Y0020820D01*
X0039373Y0020020D02*
Y0020820D01*
X0039773D01*
X0039906Y0020687D01*
Y0020420D01*
X0039773Y0020287D01*
X0039373D01*
X0039640D02*
X0039906Y0020020D01*
X0040173Y0020687D02*
X0040306Y0020820D01*
X0040573D01*
X0040706Y0020687D01*
Y0020553D01*
X0040573Y0020420D01*
X0040706Y0020287D01*
Y0020153D01*
X0040573Y0020020D01*
X0040306D01*
X0040173Y0020153D01*
Y0020287D01*
X0040306Y0020420D01*
X0040173Y0020553D01*
Y0020687D01*
X0040306Y0020420D02*
X0040573D01*
X0034767Y0006867D02*
X0034634Y0007000D01*
X0034367D01*
X0034234Y0006867D01*
Y0006333D01*
X0034367Y0006200D01*
X0034634D01*
X0034767Y0006333D01*
X0035034Y0006200D02*
Y0007000D01*
X0035567Y0006200D01*
Y0007000D01*
X0035833Y0006200D02*
Y0007000D01*
X0036233D01*
X0036366Y0006867D01*
Y0006600D01*
X0036233Y0006467D01*
X0035833D01*
X0036100D02*
X0036366Y0006200D01*
X0036633Y0006333D02*
X0036766Y0006200D01*
X0037033D01*
X0037166Y0006333D01*
Y0006867D01*
X0037033Y0007000D01*
X0036766D01*
X0036633Y0006867D01*
Y0006733D01*
X0036766Y0006600D01*
X0037166D01*
X0007137Y0024487D02*
X0007004Y0024620D01*
X0006737D01*
X0006604Y0024487D01*
Y0023953D01*
X0006737Y0023820D01*
X0007004D01*
X0007137Y0023953D01*
X0007404Y0023820D02*
Y0024620D01*
X0007937Y0023820D01*
Y0024620D01*
X0008203Y0023820D02*
Y0024620D01*
X0008603D01*
X0008736Y0024487D01*
Y0024220D01*
X0008603Y0024087D01*
X0008203D01*
X0008470D02*
X0008736Y0023820D01*
X0009003Y0024487D02*
X0009136Y0024620D01*
X0009403D01*
X0009536Y0024487D01*
Y0024353D01*
X0009403Y0024220D01*
X0009270D01*
X0009403D01*
X0009536Y0024087D01*
Y0023953D01*
X0009403Y0023820D01*
X0009136D01*
X0009003Y0023953D01*
X0003767Y0021857D02*
X0003634Y0021990D01*
X0003367D01*
X0003234Y0021857D01*
Y0021323D01*
X0003367Y0021190D01*
X0003634D01*
X0003767Y0021323D01*
X0004034Y0021190D02*
Y0021990D01*
X0004567Y0021190D01*
Y0021990D01*
X0004833Y0021190D02*
Y0021990D01*
X0005233D01*
X0005366Y0021857D01*
Y0021590D01*
X0005233Y0021457D01*
X0004833D01*
X0005100D02*
X0005366Y0021190D01*
X0006166D02*
X0005633D01*
X0006166Y0021723D01*
Y0021857D01*
X0006033Y0021990D01*
X0005766D01*
X0005633Y0021857D01*
X0038337Y0021957D02*
X0038204Y0022090D01*
X0037937D01*
X0037804Y0021957D01*
Y0021423D01*
X0037937Y0021290D01*
X0038204D01*
X0038337Y0021423D01*
X0038604Y0021290D02*
Y0022090D01*
X0039137Y0021290D01*
Y0022090D01*
X0039403Y0021290D02*
Y0022090D01*
X0039803D01*
X0039936Y0021957D01*
Y0021690D01*
X0039803Y0021557D01*
X0039403D01*
X0039670D02*
X0039936Y0021290D01*
X0040603D02*
Y0022090D01*
X0040203Y0021690D01*
X0040736D01*
X0034767Y0023367D02*
X0034634Y0023500D01*
X0034367D01*
X0034234Y0023367D01*
Y0022833D01*
X0034367Y0022700D01*
X0034634D01*
X0034767Y0022833D01*
X0035034Y0022700D02*
Y0023500D01*
X0035567Y0022700D01*
Y0023500D01*
X0035833Y0022700D02*
Y0023500D01*
X0036233D01*
X0036366Y0023367D01*
Y0023100D01*
X0036233Y0022967D01*
X0035833D01*
X0036100D02*
X0036366Y0022700D01*
X0037166Y0023500D02*
X0036633D01*
Y0023100D01*
X0036900Y0023233D01*
X0037033D01*
X0037166Y0023100D01*
Y0022833D01*
X0037033Y0022700D01*
X0036766D01*
X0036633Y0022833D01*
X0001570Y0037257D02*
X0001437Y0037390D01*
X0001170D01*
X0001037Y0037257D01*
Y0036723D01*
X0001170Y0036590D01*
X0001437D01*
X0001570Y0036723D01*
X0001837Y0036590D02*
Y0037390D01*
X0002370Y0036590D01*
Y0037390D01*
X0002637Y0036590D02*
Y0037390D01*
X0003036D01*
X0003170Y0037257D01*
Y0036990D01*
X0003036Y0036857D01*
X0002637D01*
X0002903D02*
X0003170Y0036590D01*
X0003436D02*
X0003703D01*
X0003570D01*
Y0037390D01*
X0003436Y0037257D01*
X0016943Y0006147D02*
X0016810Y0006014D01*
Y0005747D01*
X0016943Y0005614D01*
X0017477D01*
X0017610Y0005747D01*
Y0006014D01*
X0017477Y0006147D01*
X0017610Y0006947D02*
Y0006413D01*
X0017077Y0006947D01*
X0016943D01*
X0016810Y0006813D01*
Y0006547D01*
X0016943Y0006413D01*
Y0007213D02*
X0016810Y0007346D01*
Y0007613D01*
X0016943Y0007746D01*
X0017477D01*
X0017610Y0007613D01*
Y0007346D01*
X0017477Y0007213D01*
X0016943D01*
X0029033Y0017733D02*
X0028900Y0017600D01*
Y0017334D01*
X0029033Y0017200D01*
X0029567D01*
X0029700Y0017334D01*
Y0017600D01*
X0029567Y0017733D01*
X0029700Y0018000D02*
Y0018267D01*
Y0018133D01*
X0028900D01*
X0029033Y0018000D01*
Y0018667D02*
X0028900Y0018800D01*
Y0019066D01*
X0029033Y0019200D01*
X0029167D01*
X0029300Y0019066D01*
X0029433Y0019200D01*
X0029567D01*
X0029700Y0019066D01*
Y0018800D01*
X0029567Y0018667D01*
X0029433D01*
X0029300Y0018800D01*
X0029167Y0018667D01*
X0029033D01*
X0029300Y0018800D02*
Y0019066D01*
X0016803Y0023127D02*
X0016670Y0022993D01*
Y0022727D01*
X0016803Y0022594D01*
X0017337D01*
X0017470Y0022727D01*
Y0022993D01*
X0017337Y0023127D01*
X0017470Y0023393D02*
Y0023660D01*
Y0023527D01*
X0016670D01*
X0016803Y0023393D01*
X0017470Y0024060D02*
Y0024326D01*
Y0024193D01*
X0016670D01*
X0016803Y0024060D01*
X0028533Y0032967D02*
X0028400Y0032833D01*
Y0032567D01*
X0028533Y0032434D01*
X0029067D01*
X0029200Y0032567D01*
Y0032833D01*
X0029067Y0032967D01*
Y0033233D02*
X0029200Y0033367D01*
Y0033633D01*
X0029067Y0033766D01*
X0028533D01*
X0028400Y0033633D01*
Y0033367D01*
X0028533Y0033233D01*
X0028667D01*
X0028800Y0033367D01*
Y0033766D01*
X0021353Y0006303D02*
X0021220Y0006170D01*
Y0005904D01*
X0021353Y0005770D01*
X0021887D01*
X0022020Y0005904D01*
Y0006170D01*
X0021887Y0006303D01*
X0022020Y0006570D02*
Y0006837D01*
Y0006703D01*
X0021220D01*
X0021353Y0006570D01*
X0021887Y0007237D02*
X0022020Y0007370D01*
Y0007636D01*
X0021887Y0007770D01*
X0021353D01*
X0021220Y0007636D01*
Y0007370D01*
X0021353Y0007237D01*
X0021487D01*
X0021620Y0007370D01*
Y0007770D01*
X0015603Y0016267D02*
X0015470Y0016134D01*
Y0015867D01*
X0015603Y0015734D01*
X0016137D01*
X0016270Y0015867D01*
Y0016134D01*
X0016137Y0016267D01*
X0016270Y0017067D02*
Y0016533D01*
X0015737Y0017067D01*
X0015603D01*
X0015470Y0016933D01*
Y0016667D01*
X0015603Y0016533D01*
Y0017333D02*
X0015470Y0017466D01*
Y0017733D01*
X0015603Y0017866D01*
X0015737D01*
X0015870Y0017733D01*
Y0017600D01*
Y0017733D01*
X0016003Y0017866D01*
X0016137D01*
X0016270Y0017733D01*
Y0017466D01*
X0016137Y0017333D01*
X0012403Y0006117D02*
X0012270Y0005984D01*
Y0005717D01*
X0012403Y0005584D01*
X0012937D01*
X0013070Y0005717D01*
Y0005984D01*
X0012937Y0006117D01*
X0013070Y0006917D02*
Y0006383D01*
X0012537Y0006917D01*
X0012403D01*
X0012270Y0006783D01*
Y0006517D01*
X0012403Y0006383D01*
X0013070Y0007716D02*
Y0007183D01*
X0012537Y0007716D01*
X0012403D01*
X0012270Y0007583D01*
Y0007316D01*
X0012403Y0007183D01*
X0012373Y0016190D02*
X0012240Y0016057D01*
Y0015790D01*
X0012373Y0015657D01*
X0012907D01*
X0013040Y0015790D01*
Y0016057D01*
X0012907Y0016190D01*
X0013040Y0016990D02*
Y0016457D01*
X0012507Y0016990D01*
X0012373D01*
X0012240Y0016857D01*
Y0016590D01*
X0012373Y0016457D01*
X0013040Y0017256D02*
Y0017523D01*
Y0017390D01*
X0012240D01*
X0012373Y0017256D01*
X0026633Y0017733D02*
X0026500Y0017600D01*
Y0017334D01*
X0026633Y0017200D01*
X0027167D01*
X0027300Y0017334D01*
Y0017600D01*
X0027167Y0017733D01*
X0027300Y0018000D02*
Y0018267D01*
Y0018133D01*
X0026500D01*
X0026633Y0018000D01*
X0026500Y0018667D02*
Y0019200D01*
X0026633D01*
X0027167Y0018667D01*
X0027300D01*
X0030333Y0007933D02*
X0030200Y0007800D01*
Y0007534D01*
X0030333Y0007400D01*
X0030867D01*
X0031000Y0007534D01*
Y0007800D01*
X0030867Y0007933D01*
X0031000Y0008200D02*
Y0008467D01*
Y0008333D01*
X0030200D01*
X0030333Y0008200D01*
X0030200Y0009400D02*
X0030333Y0009133D01*
X0030600Y0008867D01*
X0030867D01*
X0031000Y0009000D01*
Y0009266D01*
X0030867Y0009400D01*
X0030733D01*
X0030600Y0009266D01*
Y0008867D01*
X0021553Y0016243D02*
X0021420Y0016110D01*
Y0015844D01*
X0021553Y0015710D01*
X0022087D01*
X0022220Y0015844D01*
Y0016110D01*
X0022087Y0016243D01*
X0022220Y0016510D02*
Y0016777D01*
Y0016643D01*
X0021420D01*
X0021553Y0016510D01*
X0021420Y0017710D02*
Y0017177D01*
X0021820D01*
X0021687Y0017443D01*
Y0017576D01*
X0021820Y0017710D01*
X0022087D01*
X0022220Y0017576D01*
Y0017310D01*
X0022087Y0017177D01*
X0021373Y0022883D02*
X0021240Y0022750D01*
Y0022484D01*
X0021373Y0022350D01*
X0021907D01*
X0022040Y0022484D01*
Y0022750D01*
X0021907Y0022883D01*
X0022040Y0023150D02*
Y0023417D01*
Y0023283D01*
X0021240D01*
X0021373Y0023150D01*
Y0023817D02*
X0021240Y0023950D01*
Y0024216D01*
X0021373Y0024350D01*
X0021907D01*
X0022040Y0024216D01*
Y0023950D01*
X0021907Y0023817D01*
X0021373D01*
X0014463Y0032743D02*
X0014330Y0032610D01*
Y0032344D01*
X0014463Y0032210D01*
X0014997D01*
X0015130Y0032344D01*
Y0032610D01*
X0014997Y0032743D01*
X0015130Y0033010D02*
Y0033277D01*
Y0033143D01*
X0014330D01*
X0014463Y0033010D01*
X0015130Y0034076D02*
X0014330D01*
X0014730Y0033677D01*
Y0034210D01*
X0012413Y0022983D02*
X0012280Y0022850D01*
Y0022584D01*
X0012413Y0022450D01*
X0012947D01*
X0013080Y0022584D01*
Y0022850D01*
X0012947Y0022983D01*
X0013080Y0023250D02*
Y0023517D01*
Y0023383D01*
X0012280D01*
X0012413Y0023250D01*
Y0023917D02*
X0012280Y0024050D01*
Y0024316D01*
X0012413Y0024450D01*
X0012547D01*
X0012680Y0024316D01*
Y0024183D01*
Y0024316D01*
X0012813Y0024450D01*
X0012947D01*
X0013080Y0024316D01*
Y0024050D01*
X0012947Y0023917D01*
X0012333Y0032723D02*
X0012200Y0032590D01*
Y0032324D01*
X0012333Y0032190D01*
X0012867D01*
X0013000Y0032324D01*
Y0032590D01*
X0012867Y0032723D01*
X0013000Y0032990D02*
Y0033257D01*
Y0033123D01*
X0012200D01*
X0012333Y0032990D01*
X0013000Y0034190D02*
Y0033657D01*
X0012467Y0034190D01*
X0012333D01*
X0012200Y0034056D01*
Y0033790D01*
X0012333Y0033657D01*
X0026033Y0032967D02*
X0025900Y0032833D01*
Y0032567D01*
X0026033Y0032434D01*
X0026567D01*
X0026700Y0032567D01*
Y0032833D01*
X0026567Y0032967D01*
X0026033Y0033233D02*
X0025900Y0033367D01*
Y0033633D01*
X0026033Y0033766D01*
X0026167D01*
X0026300Y0033633D01*
X0026433Y0033766D01*
X0026567D01*
X0026700Y0033633D01*
Y0033367D01*
X0026567Y0033233D01*
X0026433D01*
X0026300Y0033367D01*
X0026167Y0033233D01*
X0026033D01*
X0026300Y0033367D02*
Y0033633D01*
X0030463Y0024887D02*
X0030330Y0024753D01*
Y0024487D01*
X0030463Y0024354D01*
X0030997D01*
X0031130Y0024487D01*
Y0024753D01*
X0030997Y0024887D01*
X0030330Y0025153D02*
Y0025686D01*
X0030463D01*
X0030997Y0025153D01*
X0031130D01*
X0017043Y0032757D02*
X0016910Y0032623D01*
Y0032357D01*
X0017043Y0032224D01*
X0017577D01*
X0017710Y0032357D01*
Y0032623D01*
X0017577Y0032757D01*
X0016910Y0033556D02*
X0017043Y0033290D01*
X0017310Y0033023D01*
X0017577D01*
X0017710Y0033157D01*
Y0033423D01*
X0017577Y0033556D01*
X0017443D01*
X0017310Y0033423D01*
Y0033023D01*
X0036567Y0036367D02*
X0036433Y0036500D01*
X0036167D01*
X0036034Y0036367D01*
Y0035833D01*
X0036167Y0035700D01*
X0036433D01*
X0036567Y0035833D01*
X0037366Y0036500D02*
X0036833D01*
Y0036100D01*
X0037100Y0036233D01*
X0037233D01*
X0037366Y0036100D01*
Y0035833D01*
X0037233Y0035700D01*
X0036967D01*
X0036833Y0035833D01*
X0025337Y0048277D02*
X0025203Y0048410D01*
X0024937D01*
X0024804Y0048277D01*
Y0047743D01*
X0024937Y0047610D01*
X0025203D01*
X0025337Y0047743D01*
X0026003Y0047610D02*
Y0048410D01*
X0025603Y0048010D01*
X0026136D01*
X0019233Y0040167D02*
X0019100Y0040033D01*
Y0039767D01*
X0019233Y0039634D01*
X0019767D01*
X0019900Y0039767D01*
Y0040033D01*
X0019767Y0040167D01*
X0019233Y0040433D02*
X0019100Y0040567D01*
Y0040833D01*
X0019233Y0040966D01*
X0019367D01*
X0019500Y0040833D01*
Y0040700D01*
Y0040833D01*
X0019633Y0040966D01*
X0019767D01*
X0019900Y0040833D01*
Y0040567D01*
X0019767Y0040433D01*
X0042500Y0040267D02*
X0042367Y0040400D01*
X0042100D01*
X0041967Y0040267D01*
Y0039733D01*
X0042100Y0039600D01*
X0042367D01*
X0042500Y0039733D01*
X0042767Y0039600D02*
X0043033D01*
X0042900D01*
Y0040400D01*
X0042767Y0040267D01*
D13*
X0038975Y0042099D02*
Y0042749D01*
D14*
X0035120Y0034250D02*
X0036050D01*
X0006900Y0021100D02*
X0037100D01*
X0036800Y0030600D02*
X0037300Y0030100D01*
Y0030700D01*
X0036700Y0030100D02*
X0037300D01*
X0036800Y0030600D02*
Y0033500D01*
X0036050Y0034250D02*
X0036800Y0033500D01*
X0035900Y0018200D02*
X0036900Y0017200D01*
Y0014300D02*
Y0017200D01*
X0036800Y0013800D02*
X0037400D01*
Y0014400D01*
X0036900Y0014300D02*
X0037400Y0013800D01*
X0007500Y0015800D02*
Y0016900D01*
X0006800Y0015100D02*
X0007500Y0015800D01*
X0006800Y0015100D02*
Y0015600D01*
Y0015100D02*
X0007200D01*
X0006900Y0031800D02*
X0007300D01*
X0006900D02*
Y0032300D01*
Y0031800D02*
X0007600Y0032500D01*
Y0033600D01*
M02*
