%FSDAX43Y43*%
%MOMM*%
%SFA1B1*%

%IPPOS*%
%ADD9500C,0.300000*%
%ADD9501C,0.700000*%
%ADD9502C,1.000000*%
%ADD9503C,3.000000*%
%LNpreamp_v1r3-1*%
%LPD*%
G54D9500*
X0014999Y0001999D03*
X0018999D03*
X0022999D03*
X0026999D03*
X0030999D03*
X0034999D03*
X0036999Y0005999D03*
X0032999D03*
X0028999D03*
X0024999D03*
X0020999D03*
X0021617Y0008721D03*
X0017219Y0008724D03*
X0017217Y0011022D03*
X0014999Y0009999D03*
X0015021Y0014626D03*
X0017221D03*
X0016999Y0021999D03*
X0017209Y0025239D03*
X0017207Y0027537D03*
X0014999Y0025999D03*
X0021607Y0025262D03*
X0022999Y0025999D03*
X0023318Y0027780D03*
X0026999Y0025999D03*
X0028799Y0027099D03*
X0028699Y0027999D03*
X0030999Y0025999D03*
X0032999Y0021999D03*
X0036999D03*
X0040999D03*
Y0022993D03*
Y0019105D03*
Y0015079D03*
Y0013999D03*
Y0010419D03*
Y0006393D03*
X0038439Y0008559D03*
X0036999Y0013999D03*
X0035017Y0013822D03*
X0035019Y0016644D03*
X0034999Y0017999D03*
X0030999D03*
X0030617Y0016146D03*
X0028615Y0014829D03*
X0028741Y0012216D03*
X0028843Y0011463D03*
X0026999Y0009999D03*
X0022822Y0012192D03*
X0026506Y0018479D03*
X0024999Y0021999D03*
X0028999D03*
X0020999D03*
X0016999Y0005999D03*
X0038307Y0017092D03*
Y0025006D03*
X0040999Y0027019D03*
X0012800Y0025352D03*
X0010600D03*
X0008999Y0021999D03*
X0012999D03*
X0010999Y0017999D03*
X0006999D03*
X0005689Y0017090D03*
X0004999Y0013999D03*
X0002996Y0015077D03*
Y0019103D03*
Y0022990D03*
X0004999Y0021999D03*
X0005689Y0025003D03*
X0002996Y0027016D03*
Y0010416D03*
Y0006390D03*
X0005689Y0008403D03*
X0010609Y0008714D03*
X0012809D03*
X0012999Y0005999D03*
X0008999D03*
X0006999Y0001999D03*
X0010999D03*
X0012806Y0015479D03*
X0012799Y0032099D03*
X0010999Y0033999D03*
X0013399Y0035274D03*
Y0039224D03*
X0008999Y0037999D03*
X0007599Y0040374D03*
X0005399D03*
X0004999Y0037999D03*
X0002996Y0035703D03*
Y0031677D03*
X0005689Y0033690D03*
X0006999Y0033999D03*
X0008999Y0045999D03*
X0016999D03*
X0014999Y0041999D03*
X0019599Y0042049D03*
X0022999Y0041999D03*
X0026999D03*
X0026649Y0046199D03*
X0026499Y0035099D03*
X0030999Y0033999D03*
X0030607Y0032512D03*
X0028489Y0030899D03*
X0035009Y0030239D03*
X0036999Y0029999D03*
X0038307Y0033692D03*
X0034999Y0033999D03*
X0035009Y0033059D03*
X0036649Y0037799D03*
X0032914Y0039839D03*
X0040999Y0035705D03*
Y0031679D03*
X0017212Y0031246D03*
X0015012D03*
X0016999Y0037999D03*
X0020999D03*
G54D9501*
X0019419Y0016794D03*
X0019409Y0033389D03*
X0023399Y0033399D03*
X0021999Y0046574D03*
X0029599Y0046899D03*
G54D9502*
X0036099Y0009029D03*
Y0011569D03*
X0035779Y0025409D03*
Y0027949D03*
X0007899Y0026809D03*
Y0029349D03*
X0007909Y0012749D03*
Y0010209D03*
X0002399Y0039329D03*
Y0041869D03*
G54D9503*
X0041149Y0002849D03*
X0002849D03*
Y0047149D03*
X0041149D03*
M02*