G04*
G04 #@! TF.GenerationSoftware,Altium Limited,Altium Designer,22.6.1 (34)*
G04*
G04 Layer_Color=0*
%FSAX43Y43*%
%MOMM*%
G71*
G04*
G04 #@! TF.SameCoordinates,DFD1A6D8-6486-425C-A6BB-C63D1257436E*
G04*
G04*
G04 #@! TF.FilePolarity,Positive*
G04*
G01*
G75*
%ADD14C,0.300*%
%ADD63C,0.381*%
%ADD64C,0.254*%
D14*
X0074110Y0036629D02*
X0073860Y0036879D01*
X0073360D01*
X0073110Y0036629D01*
Y0036380D01*
X0073360Y0036130D01*
X0073860D01*
X0074110Y0035880D01*
Y0035630D01*
X0073860Y0035380D01*
X0073360D01*
X0073110Y0035630D01*
X0075609Y0036629D02*
X0075359Y0036879D01*
X0074859D01*
X0074610Y0036629D01*
Y0035630D01*
X0074859Y0035380D01*
X0075359D01*
X0075609Y0035630D01*
X0076109Y0036879D02*
Y0035380D01*
Y0036130D01*
X0077109D01*
Y0036879D01*
Y0035380D01*
X0077609Y0036380D02*
X0077858D01*
Y0036130D01*
X0077609D01*
Y0036380D01*
Y0035630D02*
X0077858D01*
Y0035380D01*
X0077609D01*
Y0035630D01*
X0080358Y0034880D02*
Y0036380D01*
X0081107D01*
X0081357Y0036130D01*
Y0035630D01*
X0081107Y0035380D01*
X0080358D01*
X0081857Y0036380D02*
Y0035380D01*
Y0035880D01*
X0082107Y0036130D01*
X0082357Y0036380D01*
X0082607D01*
X0084106Y0035380D02*
X0083607D01*
X0083357Y0035630D01*
Y0036130D01*
X0083607Y0036380D01*
X0084106D01*
X0084356Y0036130D01*
Y0035880D01*
X0083357D01*
X0085106Y0036380D02*
X0085606D01*
X0085856Y0036130D01*
Y0035380D01*
X0085106D01*
X0084856Y0035630D01*
X0085106Y0035880D01*
X0085856D01*
X0086356Y0035380D02*
Y0036380D01*
X0086606D01*
X0086856Y0036130D01*
Y0035380D01*
Y0036130D01*
X0087105Y0036380D01*
X0087355Y0036130D01*
Y0035380D01*
X0087855Y0034880D02*
Y0036380D01*
X0088605D01*
X0088855Y0036130D01*
Y0035630D01*
X0088605Y0035380D01*
X0087855D01*
X0089355Y0035130D02*
X0090354D01*
X0090854Y0036380D02*
X0091354Y0035380D01*
X0091854Y0036380D01*
X0092354Y0035380D02*
X0092854D01*
X0092604D01*
Y0036879D01*
X0092354Y0036629D01*
X0093603Y0036380D02*
Y0035380D01*
Y0035880D01*
X0093853Y0036130D01*
X0094103Y0036380D01*
X0094353D01*
X0095853Y0035380D02*
Y0036879D01*
X0095103Y0036130D01*
X0096103D01*
X0096602Y0035380D02*
Y0035630D01*
X0096852D01*
Y0035380D01*
X0096602D01*
X0098852Y0036629D02*
X0098602Y0036879D01*
X0098102D01*
X0097852Y0036629D01*
Y0036380D01*
X0098102Y0036130D01*
X0098602D01*
X0098852Y0035880D01*
Y0035630D01*
X0098602Y0035380D01*
X0098102D01*
X0097852Y0035630D01*
X0100351Y0036380D02*
X0099601D01*
X0099352Y0036130D01*
Y0035630D01*
X0099601Y0035380D01*
X0100351D01*
X0100851Y0036879D02*
Y0035380D01*
Y0036130D01*
X0101101Y0036380D01*
X0101601D01*
X0101851Y0036130D01*
Y0035380D01*
X0102351Y0036879D02*
Y0035380D01*
X0103100D01*
X0103350Y0035630D01*
Y0036629D01*
X0103100Y0036879D01*
X0102351D01*
X0104100Y0035380D02*
X0104600D01*
X0104850Y0035630D01*
Y0036130D01*
X0104600Y0036380D01*
X0104100D01*
X0103850Y0036130D01*
Y0035630D01*
X0104100Y0035380D01*
X0106349Y0036380D02*
X0105599D01*
X0105350Y0036130D01*
Y0035630D01*
X0105599Y0035380D01*
X0106349D01*
D63*
X0073190Y0074910D02*
X0171971D01*
X0073190Y0077958D02*
X0171971D01*
X0073190Y0041382D02*
Y0077958D01*
Y0041382D02*
X0083602D01*
X0073190Y0044430D02*
X0083602D01*
X0073190Y0047478D02*
X0083602D01*
X0073190Y0050526D02*
X0083602D01*
X0073190Y0053574D02*
X0083602D01*
X0073190Y0056622D02*
X0083602D01*
X0073190Y0059670D02*
X0083602D01*
X0073190Y0062718D02*
X0083602D01*
X0073190Y0065766D02*
X0083602D01*
X0073190Y0068814D02*
X0083602D01*
X0073190Y0071862D02*
X0083602D01*
Y0041382D02*
Y0077958D01*
Y0041382D02*
X0107218D01*
X0083602Y0044430D02*
X0107218D01*
X0083602Y0047478D02*
X0107218D01*
X0083602Y0050526D02*
X0107218D01*
X0083602Y0053574D02*
X0107218D01*
X0083602Y0056622D02*
X0107218D01*
X0083602Y0059670D02*
X0107218D01*
X0083602Y0062718D02*
X0107218D01*
X0083602Y0065766D02*
X0107218D01*
X0083602Y0068814D02*
X0107218D01*
X0083602Y0071862D02*
X0107218D01*
Y0041382D02*
Y0077958D01*
Y0041382D02*
X0129056D01*
X0107218Y0044430D02*
X0129056D01*
X0107218Y0047478D02*
X0129056D01*
X0107218Y0050526D02*
X0129056D01*
X0107218Y0053574D02*
X0129056D01*
X0107218Y0056622D02*
X0129056D01*
X0107218Y0059670D02*
X0129056D01*
X0107218Y0062718D02*
X0129056D01*
X0107218Y0065766D02*
X0129056D01*
X0107218Y0068814D02*
X0129056D01*
X0107218Y0071862D02*
X0129056D01*
Y0041382D02*
Y0077958D01*
Y0041382D02*
X0145561D01*
X0129056Y0044430D02*
X0145561D01*
X0129056Y0047478D02*
X0145561D01*
X0129056Y0050526D02*
X0145561D01*
X0129056Y0053574D02*
X0145561D01*
X0129056Y0056622D02*
X0145561D01*
X0129056Y0059670D02*
X0145561D01*
X0129056Y0062718D02*
X0145561D01*
X0129056Y0065766D02*
X0145561D01*
X0129056Y0068814D02*
X0145561D01*
X0129056Y0071862D02*
X0145561D01*
Y0041382D02*
Y0077958D01*
Y0041382D02*
X0160036D01*
X0145561Y0044430D02*
X0160036D01*
X0145561Y0047478D02*
X0160036D01*
X0145561Y0050526D02*
X0160036D01*
X0145561Y0053574D02*
X0160036D01*
X0145561Y0056622D02*
X0160036D01*
X0145561Y0059670D02*
X0160036D01*
X0145561Y0062718D02*
X0160036D01*
X0145561Y0065766D02*
X0160036D01*
X0145561Y0068814D02*
X0160036D01*
X0145561Y0071862D02*
X0160036D01*
Y0041382D02*
Y0077958D01*
Y0041382D02*
X0171971D01*
X0160036Y0044430D02*
X0171971D01*
X0160036Y0047478D02*
X0171971D01*
X0160036Y0050526D02*
X0171971D01*
X0160036Y0053574D02*
X0171971D01*
X0160036Y0056622D02*
X0171971D01*
X0160036Y0059670D02*
X0171971D01*
X0160036Y0062718D02*
X0171971D01*
X0160036Y0065766D02*
X0171971D01*
X0160036Y0068814D02*
X0171971D01*
X0160036Y0071862D02*
X0171971D01*
Y0041382D02*
Y0077958D01*
D64*
X0074968Y0077196D02*
Y0075672D01*
X0075984D01*
X0076746Y0076688D02*
X0077253D01*
X0077507Y0076434D01*
Y0075672D01*
X0076746D01*
X0076492Y0075926D01*
X0076746Y0076180D01*
X0077507D01*
X0078015Y0076688D02*
Y0075926D01*
X0078269Y0075672D01*
X0079031D01*
Y0075418D01*
X0078777Y0075164D01*
X0078523D01*
X0079031Y0075672D02*
Y0076688D01*
X0080300Y0075672D02*
X0079793D01*
X0079539Y0075926D01*
Y0076434D01*
X0079793Y0076688D01*
X0080300D01*
X0080554Y0076434D01*
Y0076180D01*
X0079539D01*
X0081062Y0076688D02*
Y0075672D01*
Y0076180D01*
X0081316Y0076434D01*
X0081570Y0076688D01*
X0081824D01*
X0075730Y0048240D02*
Y0049764D01*
X0074968Y0049002D01*
X0075984D01*
X0074968Y0055606D02*
X0075222Y0055860D01*
X0075730D01*
X0075984Y0055606D01*
Y0055352D01*
X0075730Y0055098D01*
X0075476D01*
X0075730D01*
X0075984Y0054844D01*
Y0054590D01*
X0075730Y0054336D01*
X0075222D01*
X0074968Y0054590D01*
X0075984Y0060432D02*
X0074968D01*
X0075984Y0061448D01*
Y0061702D01*
X0075730Y0061956D01*
X0075222D01*
X0074968Y0061702D01*
Y0066528D02*
X0075476D01*
X0075222D01*
Y0068052D01*
X0074968Y0067798D01*
X0085380Y0075672D02*
Y0077196D01*
X0086396Y0075672D01*
Y0077196D01*
X0087157Y0076688D02*
X0087665D01*
X0087919Y0076434D01*
Y0075672D01*
X0087157D01*
X0086904Y0075926D01*
X0087157Y0076180D01*
X0087919D01*
X0088427Y0075672D02*
Y0076688D01*
X0088681D01*
X0088935Y0076434D01*
Y0075672D01*
Y0076434D01*
X0089189Y0076688D01*
X0089443Y0076434D01*
Y0075672D01*
X0090712D02*
X0090204D01*
X0089951Y0075926D01*
Y0076434D01*
X0090204Y0076688D01*
X0090712D01*
X0090966Y0076434D01*
Y0076180D01*
X0089951D01*
X0085380Y0043668D02*
Y0042144D01*
X0086142D01*
X0086396Y0042398D01*
Y0042652D01*
X0086142Y0042906D01*
X0085380D01*
X0086142D01*
X0086396Y0043160D01*
Y0043414D01*
X0086142Y0043668D01*
X0085380D01*
X0087157Y0042144D02*
X0087665D01*
X0087919Y0042398D01*
Y0042906D01*
X0087665Y0043160D01*
X0087157D01*
X0086904Y0042906D01*
Y0042398D01*
X0087157Y0042144D01*
X0088681Y0043414D02*
Y0043160D01*
X0088427D01*
X0088935D01*
X0088681D01*
Y0042398D01*
X0088935Y0042144D01*
X0089951Y0043414D02*
Y0043160D01*
X0089697D01*
X0090204D01*
X0089951D01*
Y0042398D01*
X0090204Y0042144D01*
X0091220D02*
X0091728D01*
X0091982Y0042398D01*
Y0042906D01*
X0091728Y0043160D01*
X0091220D01*
X0090966Y0042906D01*
Y0042398D01*
X0091220Y0042144D01*
X0092490D02*
Y0043160D01*
X0092744D01*
X0092998Y0042906D01*
Y0042144D01*
Y0042906D01*
X0093251Y0043160D01*
X0093505Y0042906D01*
Y0042144D01*
X0096298Y0043668D02*
X0095791D01*
X0095537Y0043414D01*
Y0042398D01*
X0095791Y0042144D01*
X0096298D01*
X0096552Y0042398D01*
Y0043414D01*
X0096298Y0043668D01*
X0097060Y0043160D02*
X0097568Y0042144D01*
X0098076Y0043160D01*
X0099345Y0042144D02*
X0098838D01*
X0098584Y0042398D01*
Y0042906D01*
X0098838Y0043160D01*
X0099345D01*
X0099599Y0042906D01*
Y0042652D01*
X0098584D01*
X0100107Y0043160D02*
Y0042144D01*
Y0042652D01*
X0100361Y0042906D01*
X0100615Y0043160D01*
X0100869D01*
X0101631Y0042144D02*
X0102139D01*
X0101885D01*
Y0043668D01*
X0101631D01*
X0103154Y0043160D02*
X0103662D01*
X0103916Y0042906D01*
Y0042144D01*
X0103154D01*
X0102900Y0042398D01*
X0103154Y0042652D01*
X0103916D01*
X0104424Y0043160D02*
Y0042398D01*
X0104678Y0042144D01*
X0105440D01*
Y0041890D01*
X0105186Y0041636D01*
X0104932D01*
X0105440Y0042144D02*
Y0043160D01*
X0085380Y0046716D02*
Y0045192D01*
X0086142D01*
X0086396Y0045446D01*
Y0045700D01*
X0086142Y0045954D01*
X0085380D01*
X0086142D01*
X0086396Y0046208D01*
Y0046462D01*
X0086142Y0046716D01*
X0085380D01*
X0087157Y0045192D02*
X0087665D01*
X0087919Y0045446D01*
Y0045954D01*
X0087665Y0046208D01*
X0087157D01*
X0086904Y0045954D01*
Y0045446D01*
X0087157Y0045192D01*
X0088681Y0046462D02*
Y0046208D01*
X0088427D01*
X0088935D01*
X0088681D01*
Y0045446D01*
X0088935Y0045192D01*
X0089951Y0046462D02*
Y0046208D01*
X0089697D01*
X0090204D01*
X0089951D01*
Y0045446D01*
X0090204Y0045192D01*
X0091220D02*
X0091728D01*
X0091982Y0045446D01*
Y0045954D01*
X0091728Y0046208D01*
X0091220D01*
X0090966Y0045954D01*
Y0045446D01*
X0091220Y0045192D01*
X0092490D02*
Y0046208D01*
X0092744D01*
X0092998Y0045954D01*
Y0045192D01*
Y0045954D01*
X0093251Y0046208D01*
X0093505Y0045954D01*
Y0045192D01*
X0096552Y0046462D02*
X0096298Y0046716D01*
X0095791D01*
X0095537Y0046462D01*
Y0046208D01*
X0095791Y0045954D01*
X0096298D01*
X0096552Y0045700D01*
Y0045446D01*
X0096298Y0045192D01*
X0095791D01*
X0095537Y0045446D01*
X0097314Y0045192D02*
X0097822D01*
X0098076Y0045446D01*
Y0045954D01*
X0097822Y0046208D01*
X0097314D01*
X0097060Y0045954D01*
Y0045446D01*
X0097314Y0045192D01*
X0098584D02*
X0099092D01*
X0098838D01*
Y0046716D01*
X0098584D01*
X0100869D02*
Y0045192D01*
X0100107D01*
X0099853Y0045446D01*
Y0045954D01*
X0100107Y0046208D01*
X0100869D01*
X0102139Y0045192D02*
X0101631D01*
X0101377Y0045446D01*
Y0045954D01*
X0101631Y0046208D01*
X0102139D01*
X0102393Y0045954D01*
Y0045700D01*
X0101377D01*
X0102900Y0046208D02*
Y0045192D01*
Y0045700D01*
X0103154Y0045954D01*
X0103408Y0046208D01*
X0103662D01*
X0085380Y0049764D02*
Y0048240D01*
X0086142D01*
X0086396Y0048494D01*
Y0048748D01*
X0086142Y0049002D01*
X0085380D01*
X0086142D01*
X0086396Y0049256D01*
Y0049510D01*
X0086142Y0049764D01*
X0085380D01*
X0087157Y0048240D02*
X0087665D01*
X0087919Y0048494D01*
Y0049002D01*
X0087665Y0049256D01*
X0087157D01*
X0086904Y0049002D01*
Y0048494D01*
X0087157Y0048240D01*
X0088681Y0049510D02*
Y0049256D01*
X0088427D01*
X0088935D01*
X0088681D01*
Y0048494D01*
X0088935Y0048240D01*
X0089951Y0049510D02*
Y0049256D01*
X0089697D01*
X0090204D01*
X0089951D01*
Y0048494D01*
X0090204Y0048240D01*
X0091220D02*
X0091728D01*
X0091982Y0048494D01*
Y0049002D01*
X0091728Y0049256D01*
X0091220D01*
X0090966Y0049002D01*
Y0048494D01*
X0091220Y0048240D01*
X0092490D02*
Y0049256D01*
X0092744D01*
X0092998Y0049002D01*
Y0048240D01*
Y0049002D01*
X0093251Y0049256D01*
X0093505Y0049002D01*
Y0048240D01*
X0095537Y0049764D02*
Y0048240D01*
X0096552D01*
X0097314Y0049256D02*
X0097822D01*
X0098076Y0049002D01*
Y0048240D01*
X0097314D01*
X0097060Y0048494D01*
X0097314Y0048748D01*
X0098076D01*
X0098584Y0049256D02*
Y0048494D01*
X0098838Y0048240D01*
X0099599D01*
Y0047986D01*
X0099345Y0047732D01*
X0099092D01*
X0099599Y0048240D02*
Y0049256D01*
X0100869Y0048240D02*
X0100361D01*
X0100107Y0048494D01*
Y0049002D01*
X0100361Y0049256D01*
X0100869D01*
X0101123Y0049002D01*
Y0048748D01*
X0100107D01*
X0101631Y0049256D02*
Y0048240D01*
Y0048748D01*
X0101885Y0049002D01*
X0102139Y0049256D01*
X0102393D01*
X0085380Y0052812D02*
Y0051288D01*
X0086142D01*
X0086396Y0051542D01*
Y0052558D01*
X0086142Y0052812D01*
X0085380D01*
X0086904Y0051288D02*
X0087411D01*
X0087157D01*
Y0052304D01*
X0086904D01*
X0088935Y0051288D02*
X0088427D01*
X0088173Y0051542D01*
Y0052050D01*
X0088427Y0052304D01*
X0088935D01*
X0089189Y0052050D01*
Y0051796D01*
X0088173D01*
X0089697Y0051288D02*
X0090204D01*
X0089951D01*
Y0052812D01*
X0089697D01*
X0091728Y0051288D02*
X0091220D01*
X0090966Y0051542D01*
Y0052050D01*
X0091220Y0052304D01*
X0091728D01*
X0091982Y0052050D01*
Y0051796D01*
X0090966D01*
X0093505Y0052304D02*
X0092744D01*
X0092490Y0052050D01*
Y0051542D01*
X0092744Y0051288D01*
X0093505D01*
X0094267Y0052558D02*
Y0052304D01*
X0094013D01*
X0094521D01*
X0094267D01*
Y0051542D01*
X0094521Y0051288D01*
X0095283Y0052304D02*
Y0051288D01*
Y0051796D01*
X0095537Y0052050D01*
X0095791Y0052304D01*
X0096045D01*
X0096806Y0051288D02*
X0097314D01*
X0097060D01*
Y0052304D01*
X0096806D01*
X0099092D02*
X0098330D01*
X0098076Y0052050D01*
Y0051542D01*
X0098330Y0051288D01*
X0099092D01*
X0101123Y0052558D02*
X0101377Y0052812D01*
X0101885D01*
X0102139Y0052558D01*
Y0052304D01*
X0101885Y0052050D01*
X0101631D01*
X0101885D01*
X0102139Y0051796D01*
Y0051542D01*
X0101885Y0051288D01*
X0101377D01*
X0101123Y0051542D01*
X0085380Y0054336D02*
Y0055860D01*
X0086142D01*
X0086396Y0055606D01*
Y0055098D01*
X0086142Y0054844D01*
X0085380D01*
X0086904Y0055860D02*
Y0054336D01*
X0087411Y0054844D01*
X0087919Y0054336D01*
Y0055860D01*
X0088427Y0054336D02*
Y0055860D01*
X0089189D01*
X0089443Y0055606D01*
Y0055098D01*
X0089189Y0054844D01*
X0088427D01*
X0088935D02*
X0089443Y0054336D01*
X0085380Y0058908D02*
Y0057384D01*
X0086142D01*
X0086396Y0057638D01*
Y0058654D01*
X0086142Y0058908D01*
X0085380D01*
X0086904Y0057384D02*
X0087411D01*
X0087157D01*
Y0058400D01*
X0086904D01*
X0088935Y0057384D02*
X0088427D01*
X0088173Y0057638D01*
Y0058146D01*
X0088427Y0058400D01*
X0088935D01*
X0089189Y0058146D01*
Y0057892D01*
X0088173D01*
X0089697Y0057384D02*
X0090204D01*
X0089951D01*
Y0058908D01*
X0089697D01*
X0091728Y0057384D02*
X0091220D01*
X0090966Y0057638D01*
Y0058146D01*
X0091220Y0058400D01*
X0091728D01*
X0091982Y0058146D01*
Y0057892D01*
X0090966D01*
X0093505Y0058400D02*
X0092744D01*
X0092490Y0058146D01*
Y0057638D01*
X0092744Y0057384D01*
X0093505D01*
X0094267Y0058654D02*
Y0058400D01*
X0094013D01*
X0094521D01*
X0094267D01*
Y0057638D01*
X0094521Y0057384D01*
X0095283Y0058400D02*
Y0057384D01*
Y0057892D01*
X0095537Y0058146D01*
X0095791Y0058400D01*
X0096045D01*
X0096806Y0057384D02*
X0097314D01*
X0097060D01*
Y0058400D01*
X0096806D01*
X0099092D02*
X0098330D01*
X0098076Y0058146D01*
Y0057638D01*
X0098330Y0057384D01*
X0099092D01*
X0101123D02*
X0101631D01*
X0101377D01*
Y0058908D01*
X0101123Y0058654D01*
X0086396Y0061702D02*
X0086142Y0061956D01*
X0085634D01*
X0085380Y0061702D01*
Y0060686D01*
X0085634Y0060432D01*
X0086142D01*
X0086396Y0060686D01*
Y0061194D01*
X0085888D01*
X0086904Y0060432D02*
Y0061956D01*
X0087919Y0060432D01*
Y0061956D01*
X0088427D02*
Y0060432D01*
X0089189D01*
X0089443Y0060686D01*
Y0061702D01*
X0089189Y0061956D01*
X0088427D01*
X0085380Y0065004D02*
Y0063480D01*
X0086142D01*
X0086396Y0063734D01*
Y0064750D01*
X0086142Y0065004D01*
X0085380D01*
X0086904Y0063480D02*
X0087411D01*
X0087157D01*
Y0064496D01*
X0086904D01*
X0088935Y0063480D02*
X0088427D01*
X0088173Y0063734D01*
Y0064242D01*
X0088427Y0064496D01*
X0088935D01*
X0089189Y0064242D01*
Y0063988D01*
X0088173D01*
X0089697Y0063480D02*
X0090204D01*
X0089951D01*
Y0065004D01*
X0089697D01*
X0091728Y0063480D02*
X0091220D01*
X0090966Y0063734D01*
Y0064242D01*
X0091220Y0064496D01*
X0091728D01*
X0091982Y0064242D01*
Y0063988D01*
X0090966D01*
X0093505Y0064496D02*
X0092744D01*
X0092490Y0064242D01*
Y0063734D01*
X0092744Y0063480D01*
X0093505D01*
X0094267Y0064750D02*
Y0064496D01*
X0094013D01*
X0094521D01*
X0094267D01*
Y0063734D01*
X0094521Y0063480D01*
X0095283Y0064496D02*
Y0063480D01*
Y0063988D01*
X0095537Y0064242D01*
X0095791Y0064496D01*
X0096045D01*
X0096806Y0063480D02*
X0097314D01*
X0097060D01*
Y0064496D01*
X0096806D01*
X0099092D02*
X0098330D01*
X0098076Y0064242D01*
Y0063734D01*
X0098330Y0063480D01*
X0099092D01*
X0102139D02*
X0101123D01*
X0102139Y0064496D01*
Y0064750D01*
X0101885Y0065004D01*
X0101377D01*
X0101123Y0064750D01*
X0085380Y0068052D02*
X0086396D01*
X0085888D01*
Y0066528D01*
X0087157D02*
X0087665D01*
X0087919Y0066782D01*
Y0067290D01*
X0087665Y0067544D01*
X0087157D01*
X0086904Y0067290D01*
Y0066782D01*
X0087157Y0066528D01*
X0088427Y0066020D02*
Y0067544D01*
X0089189D01*
X0089443Y0067290D01*
Y0066782D01*
X0089189Y0066528D01*
X0088427D01*
X0091474Y0068052D02*
Y0066528D01*
X0092490D01*
X0093251Y0067544D02*
X0093759D01*
X0094013Y0067290D01*
Y0066528D01*
X0093251D01*
X0092998Y0066782D01*
X0093251Y0067036D01*
X0094013D01*
X0094521Y0067544D02*
Y0066782D01*
X0094775Y0066528D01*
X0095537D01*
Y0066274D01*
X0095283Y0066020D01*
X0095029D01*
X0095537Y0066528D02*
Y0067544D01*
X0096806Y0066528D02*
X0096298D01*
X0096045Y0066782D01*
Y0067290D01*
X0096298Y0067544D01*
X0096806D01*
X0097060Y0067290D01*
Y0067036D01*
X0096045D01*
X0097568Y0067544D02*
Y0066528D01*
Y0067036D01*
X0097822Y0067290D01*
X0098076Y0067544D01*
X0098330D01*
X0085380Y0071100D02*
X0086396D01*
X0085888D01*
Y0069576D01*
X0087157D02*
X0087665D01*
X0087919Y0069830D01*
Y0070338D01*
X0087665Y0070592D01*
X0087157D01*
X0086904Y0070338D01*
Y0069830D01*
X0087157Y0069576D01*
X0088427Y0069068D02*
Y0070592D01*
X0089189D01*
X0089443Y0070338D01*
Y0069830D01*
X0089189Y0069576D01*
X0088427D01*
X0092490Y0070846D02*
X0092236Y0071100D01*
X0091728D01*
X0091474Y0070846D01*
Y0070592D01*
X0091728Y0070338D01*
X0092236D01*
X0092490Y0070084D01*
Y0069830D01*
X0092236Y0069576D01*
X0091728D01*
X0091474Y0069830D01*
X0093251Y0069576D02*
X0093759D01*
X0094013Y0069830D01*
Y0070338D01*
X0093759Y0070592D01*
X0093251D01*
X0092998Y0070338D01*
Y0069830D01*
X0093251Y0069576D01*
X0094521D02*
X0095029D01*
X0094775D01*
Y0071100D01*
X0094521D01*
X0096806D02*
Y0069576D01*
X0096045D01*
X0095791Y0069830D01*
Y0070338D01*
X0096045Y0070592D01*
X0096806D01*
X0098076Y0069576D02*
X0097568D01*
X0097314Y0069830D01*
Y0070338D01*
X0097568Y0070592D01*
X0098076D01*
X0098330Y0070338D01*
Y0070084D01*
X0097314D01*
X0098838Y0070592D02*
Y0069576D01*
Y0070084D01*
X0099092Y0070338D01*
X0099345Y0070592D01*
X0099599D01*
X0085380Y0074148D02*
X0086396D01*
X0085888D01*
Y0072624D01*
X0087157D02*
X0087665D01*
X0087919Y0072878D01*
Y0073386D01*
X0087665Y0073640D01*
X0087157D01*
X0086904Y0073386D01*
Y0072878D01*
X0087157Y0072624D01*
X0088427Y0072116D02*
Y0073640D01*
X0089189D01*
X0089443Y0073386D01*
Y0072878D01*
X0089189Y0072624D01*
X0088427D01*
X0092236Y0074148D02*
X0091728D01*
X0091474Y0073894D01*
Y0072878D01*
X0091728Y0072624D01*
X0092236D01*
X0092490Y0072878D01*
Y0073894D01*
X0092236Y0074148D01*
X0092998Y0073640D02*
X0093505Y0072624D01*
X0094013Y0073640D01*
X0095283Y0072624D02*
X0094775D01*
X0094521Y0072878D01*
Y0073386D01*
X0094775Y0073640D01*
X0095283D01*
X0095537Y0073386D01*
Y0073132D01*
X0094521D01*
X0096045Y0073640D02*
Y0072624D01*
Y0073132D01*
X0096298Y0073386D01*
X0096552Y0073640D01*
X0096806D01*
X0097568Y0072624D02*
X0098076D01*
X0097822D01*
Y0074148D01*
X0097568D01*
X0099092Y0073640D02*
X0099599D01*
X0099853Y0073386D01*
Y0072624D01*
X0099092D01*
X0098838Y0072878D01*
X0099092Y0073132D01*
X0099853D01*
X0100361Y0073640D02*
Y0072878D01*
X0100615Y0072624D01*
X0101377D01*
Y0072370D01*
X0101123Y0072116D01*
X0100869D01*
X0101377Y0072624D02*
Y0073640D01*
X0108996Y0075672D02*
Y0077196D01*
X0109503Y0076688D01*
X0110011Y0077196D01*
Y0075672D01*
X0110773Y0076688D02*
X0111281D01*
X0111535Y0076434D01*
Y0075672D01*
X0110773D01*
X0110519Y0075926D01*
X0110773Y0076180D01*
X0111535D01*
X0112296Y0076942D02*
Y0076688D01*
X0112043D01*
X0112550D01*
X0112296D01*
Y0075926D01*
X0112550Y0075672D01*
X0114074D02*
X0113566D01*
X0113312Y0075926D01*
Y0076434D01*
X0113566Y0076688D01*
X0114074D01*
X0114328Y0076434D01*
Y0076180D01*
X0113312D01*
X0114836Y0076688D02*
Y0075672D01*
Y0076180D01*
X0115090Y0076434D01*
X0115343Y0076688D01*
X0115597D01*
X0116359Y0075672D02*
X0116867D01*
X0116613D01*
Y0076688D01*
X0116359D01*
X0117883D02*
X0118390D01*
X0118644Y0076434D01*
Y0075672D01*
X0117883D01*
X0117629Y0075926D01*
X0117883Y0076180D01*
X0118644D01*
X0119152Y0075672D02*
X0119660D01*
X0119406D01*
Y0077196D01*
X0119152D01*
X0110011Y0046462D02*
X0109757Y0046716D01*
X0109249D01*
X0108996Y0046462D01*
Y0046208D01*
X0109249Y0045954D01*
X0109757D01*
X0110011Y0045700D01*
Y0045446D01*
X0109757Y0045192D01*
X0109249D01*
X0108996Y0045446D01*
X0110773Y0045192D02*
X0111281D01*
X0111535Y0045446D01*
Y0045954D01*
X0111281Y0046208D01*
X0110773D01*
X0110519Y0045954D01*
Y0045446D01*
X0110773Y0045192D01*
X0112043D02*
X0112550D01*
X0112296D01*
Y0046716D01*
X0112043D01*
X0114328D02*
Y0045192D01*
X0113566D01*
X0113312Y0045446D01*
Y0045954D01*
X0113566Y0046208D01*
X0114328D01*
X0115597Y0045192D02*
X0115090D01*
X0114836Y0045446D01*
Y0045954D01*
X0115090Y0046208D01*
X0115597D01*
X0115851Y0045954D01*
Y0045700D01*
X0114836D01*
X0116359Y0046208D02*
Y0045192D01*
Y0045700D01*
X0116613Y0045954D01*
X0116867Y0046208D01*
X0117121D01*
X0119406Y0045192D02*
Y0046716D01*
X0120168D01*
X0120422Y0046462D01*
Y0045954D01*
X0120168Y0045700D01*
X0119406D01*
X0119914D02*
X0120422Y0045192D01*
X0121691D02*
X0121184D01*
X0120930Y0045446D01*
Y0045954D01*
X0121184Y0046208D01*
X0121691D01*
X0121945Y0045954D01*
Y0045700D01*
X0120930D01*
X0122453Y0045192D02*
X0123215D01*
X0123469Y0045446D01*
X0123215Y0045700D01*
X0122707D01*
X0122453Y0045954D01*
X0122707Y0046208D01*
X0123469D01*
X0123977Y0045192D02*
X0124484D01*
X0124231D01*
Y0046208D01*
X0123977D01*
X0125246Y0045192D02*
X0126008D01*
X0126262Y0045446D01*
X0126008Y0045700D01*
X0125500D01*
X0125246Y0045954D01*
X0125500Y0046208D01*
X0126262D01*
X0127024Y0046462D02*
Y0046208D01*
X0126770D01*
X0127278D01*
X0127024D01*
Y0045446D01*
X0127278Y0045192D01*
X0108996Y0051288D02*
Y0052812D01*
X0109757D01*
X0110011Y0052558D01*
Y0052050D01*
X0109757Y0051796D01*
X0108996D01*
X0110519Y0051288D02*
Y0052812D01*
X0111281D01*
X0111535Y0052558D01*
Y0052050D01*
X0111281Y0051796D01*
X0110519D01*
X0112043Y0052050D02*
X0113058D01*
X0113566Y0052558D02*
X0113820Y0052812D01*
X0114328D01*
X0114582Y0052558D01*
Y0051542D01*
X0114328Y0051288D01*
X0113820D01*
X0113566Y0051542D01*
Y0052558D01*
X0115090Y0051288D02*
X0115597D01*
X0115343D01*
Y0052812D01*
X0115090Y0052558D01*
X0117375Y0052812D02*
X0116867Y0052558D01*
X0116359Y0052050D01*
Y0051542D01*
X0116613Y0051288D01*
X0117121D01*
X0117375Y0051542D01*
Y0051796D01*
X0117121Y0052050D01*
X0116359D01*
X0110011Y0055606D02*
X0109757Y0055860D01*
X0109249D01*
X0108996Y0055606D01*
Y0054590D01*
X0109249Y0054336D01*
X0109757D01*
X0110011Y0054590D01*
X0111535Y0055860D02*
X0110519D01*
Y0055098D01*
X0111027D01*
X0110519D01*
Y0054336D01*
X0112043Y0055098D02*
X0113058D01*
X0113566Y0055606D02*
X0113820Y0055860D01*
X0114328D01*
X0114582Y0055606D01*
Y0054590D01*
X0114328Y0054336D01*
X0113820D01*
X0113566Y0054590D01*
Y0055606D01*
X0115090D02*
X0115343Y0055860D01*
X0115851D01*
X0116105Y0055606D01*
Y0054590D01*
X0115851Y0054336D01*
X0115343D01*
X0115090Y0054590D01*
Y0055606D01*
X0117375Y0054336D02*
Y0055860D01*
X0116613Y0055098D01*
X0117629D01*
X0110011Y0058654D02*
X0109757Y0058908D01*
X0109249D01*
X0108996Y0058654D01*
Y0057638D01*
X0109249Y0057384D01*
X0109757D01*
X0110011Y0057638D01*
X0110773Y0057384D02*
X0111281D01*
X0111535Y0057638D01*
Y0058146D01*
X0111281Y0058400D01*
X0110773D01*
X0110519Y0058146D01*
Y0057638D01*
X0110773Y0057384D01*
X0112043Y0058400D02*
Y0057384D01*
Y0057892D01*
X0112296Y0058146D01*
X0112550Y0058400D01*
X0112804D01*
X0114328Y0057384D02*
X0113820D01*
X0113566Y0057638D01*
Y0058146D01*
X0113820Y0058400D01*
X0114328D01*
X0114582Y0058146D01*
Y0057892D01*
X0113566D01*
X0115090Y0058146D02*
X0116105D01*
X0116613Y0058654D02*
X0116867Y0058908D01*
X0117375D01*
X0117629Y0058654D01*
Y0057638D01*
X0117375Y0057384D01*
X0116867D01*
X0116613Y0057638D01*
Y0058654D01*
X0118137D02*
X0118390Y0058908D01*
X0118898D01*
X0119152Y0058654D01*
Y0058400D01*
X0118898Y0058146D01*
X0118644D01*
X0118898D01*
X0119152Y0057892D01*
Y0057638D01*
X0118898Y0057384D01*
X0118390D01*
X0118137Y0057638D01*
X0120422Y0057384D02*
Y0058908D01*
X0119660Y0058146D01*
X0120676D01*
X0110011Y0061702D02*
X0109757Y0061956D01*
X0109249D01*
X0108996Y0061702D01*
Y0060686D01*
X0109249Y0060432D01*
X0109757D01*
X0110011Y0060686D01*
X0111535Y0061956D02*
X0110519D01*
Y0061194D01*
X0111027D01*
X0110519D01*
Y0060432D01*
X0112043Y0061194D02*
X0113058D01*
X0113566Y0061702D02*
X0113820Y0061956D01*
X0114328D01*
X0114582Y0061702D01*
Y0060686D01*
X0114328Y0060432D01*
X0113820D01*
X0113566Y0060686D01*
Y0061702D01*
X0115090D02*
X0115343Y0061956D01*
X0115851D01*
X0116105Y0061702D01*
Y0060686D01*
X0115851Y0060432D01*
X0115343D01*
X0115090Y0060686D01*
Y0061702D01*
X0117375Y0060432D02*
Y0061956D01*
X0116613Y0061194D01*
X0117629D01*
X0108996Y0063480D02*
Y0065004D01*
X0109757D01*
X0110011Y0064750D01*
Y0064242D01*
X0109757Y0063988D01*
X0108996D01*
X0110519Y0063480D02*
Y0065004D01*
X0111281D01*
X0111535Y0064750D01*
Y0064242D01*
X0111281Y0063988D01*
X0110519D01*
X0112043Y0064242D02*
X0113058D01*
X0113566Y0064750D02*
X0113820Y0065004D01*
X0114328D01*
X0114582Y0064750D01*
Y0063734D01*
X0114328Y0063480D01*
X0113820D01*
X0113566Y0063734D01*
Y0064750D01*
X0115090Y0063480D02*
X0115597D01*
X0115343D01*
Y0065004D01*
X0115090Y0064750D01*
X0117375Y0065004D02*
X0116867Y0064750D01*
X0116359Y0064242D01*
Y0063734D01*
X0116613Y0063480D01*
X0117121D01*
X0117375Y0063734D01*
Y0063988D01*
X0117121Y0064242D01*
X0116359D01*
X0110011Y0070846D02*
X0109757Y0071100D01*
X0109249D01*
X0108996Y0070846D01*
Y0070592D01*
X0109249Y0070338D01*
X0109757D01*
X0110011Y0070084D01*
Y0069830D01*
X0109757Y0069576D01*
X0109249D01*
X0108996Y0069830D01*
X0110773Y0069576D02*
X0111281D01*
X0111535Y0069830D01*
Y0070338D01*
X0111281Y0070592D01*
X0110773D01*
X0110519Y0070338D01*
Y0069830D01*
X0110773Y0069576D01*
X0112043D02*
X0112550D01*
X0112296D01*
Y0071100D01*
X0112043D01*
X0114328D02*
Y0069576D01*
X0113566D01*
X0113312Y0069830D01*
Y0070338D01*
X0113566Y0070592D01*
X0114328D01*
X0115597Y0069576D02*
X0115090D01*
X0114836Y0069830D01*
Y0070338D01*
X0115090Y0070592D01*
X0115597D01*
X0115851Y0070338D01*
Y0070084D01*
X0114836D01*
X0116359Y0070592D02*
Y0069576D01*
Y0070084D01*
X0116613Y0070338D01*
X0116867Y0070592D01*
X0117121D01*
X0119406Y0069576D02*
Y0071100D01*
X0120168D01*
X0120422Y0070846D01*
Y0070338D01*
X0120168Y0070084D01*
X0119406D01*
X0119914D02*
X0120422Y0069576D01*
X0121691D02*
X0121184D01*
X0120930Y0069830D01*
Y0070338D01*
X0121184Y0070592D01*
X0121691D01*
X0121945Y0070338D01*
Y0070084D01*
X0120930D01*
X0122453Y0069576D02*
X0123215D01*
X0123469Y0069830D01*
X0123215Y0070084D01*
X0122707D01*
X0122453Y0070338D01*
X0122707Y0070592D01*
X0123469D01*
X0123977Y0069576D02*
X0124484D01*
X0124231D01*
Y0070592D01*
X0123977D01*
X0125246Y0069576D02*
X0126008D01*
X0126262Y0069830D01*
X0126008Y0070084D01*
X0125500D01*
X0125246Y0070338D01*
X0125500Y0070592D01*
X0126262D01*
X0127024Y0070846D02*
Y0070592D01*
X0126770D01*
X0127278D01*
X0127024D01*
Y0069830D01*
X0127278Y0069576D01*
X0130834Y0077196D02*
X0131849D01*
X0131341D01*
Y0075672D01*
X0132357Y0077196D02*
Y0075672D01*
Y0076434D01*
X0132611Y0076688D01*
X0133119D01*
X0133373Y0076434D01*
Y0075672D01*
X0133881D02*
X0134388D01*
X0134135D01*
Y0076688D01*
X0133881D01*
X0136166D02*
X0135404D01*
X0135150Y0076434D01*
Y0075926D01*
X0135404Y0075672D01*
X0136166D01*
X0136674D02*
Y0077196D01*
Y0076180D02*
X0137435Y0076688D01*
X0136674Y0076180D02*
X0137435Y0075672D01*
X0138197D02*
Y0076688D01*
X0138959D01*
X0139213Y0076434D01*
Y0075672D01*
X0140482D02*
X0139975D01*
X0139721Y0075926D01*
Y0076434D01*
X0139975Y0076688D01*
X0140482D01*
X0140736Y0076434D01*
Y0076180D01*
X0139721D01*
X0141244Y0075672D02*
X0142006D01*
X0142260Y0075926D01*
X0142006Y0076180D01*
X0141498D01*
X0141244Y0076434D01*
X0141498Y0076688D01*
X0142260D01*
X0142768Y0075672D02*
X0143529D01*
X0143783Y0075926D01*
X0143529Y0076180D01*
X0143022D01*
X0142768Y0076434D01*
X0143022Y0076688D01*
X0143783D01*
X0130834Y0046462D02*
X0131088Y0046716D01*
X0131595D01*
X0131849Y0046462D01*
Y0045446D01*
X0131595Y0045192D01*
X0131088D01*
X0130834Y0045446D01*
Y0046462D01*
X0132357Y0045192D02*
Y0045446D01*
X0132611D01*
Y0045192D01*
X0132357D01*
X0133627Y0046462D02*
X0133881Y0046716D01*
X0134388D01*
X0134642Y0046462D01*
Y0045446D01*
X0134388Y0045192D01*
X0133881D01*
X0133627Y0045446D01*
Y0046462D01*
X0135150Y0045192D02*
X0135658D01*
X0135404D01*
Y0046716D01*
X0135150Y0046462D01*
X0136420D02*
X0136674Y0046716D01*
X0137182D01*
X0137435Y0046462D01*
Y0045446D01*
X0137182Y0045192D01*
X0136674D01*
X0136420Y0045446D01*
Y0046462D01*
X0137943Y0045192D02*
Y0046208D01*
X0138197D01*
X0138451Y0045954D01*
Y0045192D01*
Y0045954D01*
X0138705Y0046208D01*
X0138959Y0045954D01*
Y0045192D01*
X0139467D02*
Y0046208D01*
X0139721D01*
X0139975Y0045954D01*
Y0045192D01*
Y0045954D01*
X0140229Y0046208D01*
X0140482Y0045954D01*
Y0045192D01*
X0130834Y0049510D02*
X0131088Y0049764D01*
X0131595D01*
X0131849Y0049510D01*
Y0048494D01*
X0131595Y0048240D01*
X0131088D01*
X0130834Y0048494D01*
Y0049510D01*
X0132357Y0048240D02*
Y0048494D01*
X0132611D01*
Y0048240D01*
X0132357D01*
X0133627Y0049510D02*
X0133881Y0049764D01*
X0134388D01*
X0134642Y0049510D01*
Y0048494D01*
X0134388Y0048240D01*
X0133881D01*
X0133627Y0048494D01*
Y0049510D01*
X0135150D02*
X0135404Y0049764D01*
X0135912D01*
X0136166Y0049510D01*
Y0049256D01*
X0135912Y0049002D01*
X0135658D01*
X0135912D01*
X0136166Y0048748D01*
Y0048494D01*
X0135912Y0048240D01*
X0135404D01*
X0135150Y0048494D01*
X0137689Y0049764D02*
X0136674D01*
Y0049002D01*
X0137182Y0049256D01*
X0137435D01*
X0137689Y0049002D01*
Y0048494D01*
X0137435Y0048240D01*
X0136928D01*
X0136674Y0048494D01*
X0138197Y0048240D02*
Y0049256D01*
X0138451D01*
X0138705Y0049002D01*
Y0048240D01*
Y0049002D01*
X0138959Y0049256D01*
X0139213Y0049002D01*
Y0048240D01*
X0139721D02*
Y0049256D01*
X0139975D01*
X0140229Y0049002D01*
Y0048240D01*
Y0049002D01*
X0140482Y0049256D01*
X0140736Y0049002D01*
Y0048240D01*
X0130834Y0052558D02*
X0131088Y0052812D01*
X0131595D01*
X0131849Y0052558D01*
Y0051542D01*
X0131595Y0051288D01*
X0131088D01*
X0130834Y0051542D01*
Y0052558D01*
X0132357Y0051288D02*
Y0051542D01*
X0132611D01*
Y0051288D01*
X0132357D01*
X0133627D02*
X0134135D01*
X0133881D01*
Y0052812D01*
X0133627Y0052558D01*
X0134896Y0051288D02*
X0135404D01*
X0135150D01*
Y0052812D01*
X0134896Y0052558D01*
X0136166Y0052812D02*
X0137182D01*
Y0052558D01*
X0136166Y0051542D01*
Y0051288D01*
X0137689D02*
Y0052304D01*
X0137943D01*
X0138197Y0052050D01*
Y0051288D01*
Y0052050D01*
X0138451Y0052304D01*
X0138705Y0052050D01*
Y0051288D01*
X0139213D02*
Y0052304D01*
X0139467D01*
X0139721Y0052050D01*
Y0051288D01*
Y0052050D01*
X0139975Y0052304D01*
X0140229Y0052050D01*
Y0051288D01*
X0130834Y0055606D02*
X0131088Y0055860D01*
X0131595D01*
X0131849Y0055606D01*
Y0054590D01*
X0131595Y0054336D01*
X0131088D01*
X0130834Y0054590D01*
Y0055606D01*
X0132357Y0054336D02*
Y0054590D01*
X0132611D01*
Y0054336D01*
X0132357D01*
X0133627Y0055606D02*
X0133881Y0055860D01*
X0134388D01*
X0134642Y0055606D01*
Y0054590D01*
X0134388Y0054336D01*
X0133881D01*
X0133627Y0054590D01*
Y0055606D01*
X0135150D02*
X0135404Y0055860D01*
X0135912D01*
X0136166Y0055606D01*
Y0055352D01*
X0135912Y0055098D01*
X0135658D01*
X0135912D01*
X0136166Y0054844D01*
Y0054590D01*
X0135912Y0054336D01*
X0135404D01*
X0135150Y0054590D01*
X0137689Y0055860D02*
X0136674D01*
Y0055098D01*
X0137182Y0055352D01*
X0137435D01*
X0137689Y0055098D01*
Y0054590D01*
X0137435Y0054336D01*
X0136928D01*
X0136674Y0054590D01*
X0138197Y0054336D02*
Y0055352D01*
X0138451D01*
X0138705Y0055098D01*
Y0054336D01*
Y0055098D01*
X0138959Y0055352D01*
X0139213Y0055098D01*
Y0054336D01*
X0139721D02*
Y0055352D01*
X0139975D01*
X0140229Y0055098D01*
Y0054336D01*
Y0055098D01*
X0140482Y0055352D01*
X0140736Y0055098D01*
Y0054336D01*
X0130834Y0058654D02*
X0131088Y0058908D01*
X0131595D01*
X0131849Y0058654D01*
Y0057638D01*
X0131595Y0057384D01*
X0131088D01*
X0130834Y0057638D01*
Y0058654D01*
X0132357Y0057384D02*
Y0057638D01*
X0132611D01*
Y0057384D01*
X0132357D01*
X0134388D02*
Y0058908D01*
X0133627Y0058146D01*
X0134642D01*
X0135150Y0058654D02*
X0135404Y0058908D01*
X0135912D01*
X0136166Y0058654D01*
Y0057638D01*
X0135912Y0057384D01*
X0135404D01*
X0135150Y0057638D01*
Y0058654D01*
X0137689Y0058908D02*
X0137182Y0058654D01*
X0136674Y0058146D01*
Y0057638D01*
X0136928Y0057384D01*
X0137435D01*
X0137689Y0057638D01*
Y0057892D01*
X0137435Y0058146D01*
X0136674D01*
X0138197Y0057384D02*
Y0058400D01*
X0138451D01*
X0138705Y0058146D01*
Y0057384D01*
Y0058146D01*
X0138959Y0058400D01*
X0139213Y0058146D01*
Y0057384D01*
X0139721D02*
Y0058400D01*
X0139975D01*
X0140229Y0058146D01*
Y0057384D01*
Y0058146D01*
X0140482Y0058400D01*
X0140736Y0058146D01*
Y0057384D01*
X0130834Y0061702D02*
X0131088Y0061956D01*
X0131595D01*
X0131849Y0061702D01*
Y0060686D01*
X0131595Y0060432D01*
X0131088D01*
X0130834Y0060686D01*
Y0061702D01*
X0132357Y0060432D02*
Y0060686D01*
X0132611D01*
Y0060432D01*
X0132357D01*
X0133627Y0061702D02*
X0133881Y0061956D01*
X0134388D01*
X0134642Y0061702D01*
Y0060686D01*
X0134388Y0060432D01*
X0133881D01*
X0133627Y0060686D01*
Y0061702D01*
X0135150D02*
X0135404Y0061956D01*
X0135912D01*
X0136166Y0061702D01*
Y0061448D01*
X0135912Y0061194D01*
X0135658D01*
X0135912D01*
X0136166Y0060940D01*
Y0060686D01*
X0135912Y0060432D01*
X0135404D01*
X0135150Y0060686D01*
X0137689Y0061956D02*
X0136674D01*
Y0061194D01*
X0137182Y0061448D01*
X0137435D01*
X0137689Y0061194D01*
Y0060686D01*
X0137435Y0060432D01*
X0136928D01*
X0136674Y0060686D01*
X0138197Y0060432D02*
Y0061448D01*
X0138451D01*
X0138705Y0061194D01*
Y0060432D01*
Y0061194D01*
X0138959Y0061448D01*
X0139213Y0061194D01*
Y0060432D01*
X0139721D02*
Y0061448D01*
X0139975D01*
X0140229Y0061194D01*
Y0060432D01*
Y0061194D01*
X0140482Y0061448D01*
X0140736Y0061194D01*
Y0060432D01*
X0130834Y0064750D02*
X0131088Y0065004D01*
X0131595D01*
X0131849Y0064750D01*
Y0063734D01*
X0131595Y0063480D01*
X0131088D01*
X0130834Y0063734D01*
Y0064750D01*
X0132357Y0063480D02*
Y0063734D01*
X0132611D01*
Y0063480D01*
X0132357D01*
X0133627D02*
X0134135D01*
X0133881D01*
Y0065004D01*
X0133627Y0064750D01*
X0134896Y0063480D02*
X0135404D01*
X0135150D01*
Y0065004D01*
X0134896Y0064750D01*
X0136166Y0065004D02*
X0137182D01*
Y0064750D01*
X0136166Y0063734D01*
Y0063480D01*
X0137689D02*
Y0064496D01*
X0137943D01*
X0138197Y0064242D01*
Y0063480D01*
Y0064242D01*
X0138451Y0064496D01*
X0138705Y0064242D01*
Y0063480D01*
X0139213D02*
Y0064496D01*
X0139467D01*
X0139721Y0064242D01*
Y0063480D01*
Y0064242D01*
X0139975Y0064496D01*
X0140229Y0064242D01*
Y0063480D01*
X0130834Y0067798D02*
X0131088Y0068052D01*
X0131595D01*
X0131849Y0067798D01*
Y0066782D01*
X0131595Y0066528D01*
X0131088D01*
X0130834Y0066782D01*
Y0067798D01*
X0132357Y0066528D02*
Y0066782D01*
X0132611D01*
Y0066528D01*
X0132357D01*
X0133627Y0067798D02*
X0133881Y0068052D01*
X0134388D01*
X0134642Y0067798D01*
Y0066782D01*
X0134388Y0066528D01*
X0133881D01*
X0133627Y0066782D01*
Y0067798D01*
X0135150D02*
X0135404Y0068052D01*
X0135912D01*
X0136166Y0067798D01*
Y0067544D01*
X0135912Y0067290D01*
X0135658D01*
X0135912D01*
X0136166Y0067036D01*
Y0066782D01*
X0135912Y0066528D01*
X0135404D01*
X0135150Y0066782D01*
X0137689Y0068052D02*
X0136674D01*
Y0067290D01*
X0137182Y0067544D01*
X0137435D01*
X0137689Y0067290D01*
Y0066782D01*
X0137435Y0066528D01*
X0136928D01*
X0136674Y0066782D01*
X0138197Y0066528D02*
Y0067544D01*
X0138451D01*
X0138705Y0067290D01*
Y0066528D01*
Y0067290D01*
X0138959Y0067544D01*
X0139213Y0067290D01*
Y0066528D01*
X0139721D02*
Y0067544D01*
X0139975D01*
X0140229Y0067290D01*
Y0066528D01*
Y0067290D01*
X0140482Y0067544D01*
X0140736Y0067290D01*
Y0066528D01*
X0130834Y0070846D02*
X0131088Y0071100D01*
X0131595D01*
X0131849Y0070846D01*
Y0069830D01*
X0131595Y0069576D01*
X0131088D01*
X0130834Y0069830D01*
Y0070846D01*
X0132357Y0069576D02*
Y0069830D01*
X0132611D01*
Y0069576D01*
X0132357D01*
X0133627Y0070846D02*
X0133881Y0071100D01*
X0134388D01*
X0134642Y0070846D01*
Y0069830D01*
X0134388Y0069576D01*
X0133881D01*
X0133627Y0069830D01*
Y0070846D01*
X0135150Y0069576D02*
X0135658D01*
X0135404D01*
Y0071100D01*
X0135150Y0070846D01*
X0136420D02*
X0136674Y0071100D01*
X0137182D01*
X0137435Y0070846D01*
Y0069830D01*
X0137182Y0069576D01*
X0136674D01*
X0136420Y0069830D01*
Y0070846D01*
X0137943Y0069576D02*
Y0070592D01*
X0138197D01*
X0138451Y0070338D01*
Y0069576D01*
Y0070338D01*
X0138705Y0070592D01*
X0138959Y0070338D01*
Y0069576D01*
X0139467D02*
Y0070592D01*
X0139721D01*
X0139975Y0070338D01*
Y0069576D01*
Y0070338D01*
X0140229Y0070592D01*
X0140482Y0070338D01*
Y0069576D01*
X0148355Y0076942D02*
X0148101Y0077196D01*
X0147593D01*
X0147339Y0076942D01*
Y0075926D01*
X0147593Y0075672D01*
X0148101D01*
X0148355Y0075926D01*
X0149117Y0075672D02*
X0149625D01*
X0149879Y0075926D01*
Y0076434D01*
X0149625Y0076688D01*
X0149117D01*
X0148863Y0076434D01*
Y0075926D01*
X0149117Y0075672D01*
X0150386D02*
Y0076688D01*
X0151148D01*
X0151402Y0076434D01*
Y0075672D01*
X0151910D02*
X0152672D01*
X0152926Y0075926D01*
X0152672Y0076180D01*
X0152164D01*
X0151910Y0076434D01*
X0152164Y0076688D01*
X0152926D01*
X0153687Y0076942D02*
Y0076688D01*
X0153433D01*
X0153941D01*
X0153687D01*
Y0075926D01*
X0153941Y0075672D01*
X0154957Y0076688D02*
X0155465D01*
X0155719Y0076434D01*
Y0075672D01*
X0154957D01*
X0154703Y0075926D01*
X0154957Y0076180D01*
X0155719D01*
X0156227Y0075672D02*
Y0076688D01*
X0156988D01*
X0157242Y0076434D01*
Y0075672D01*
X0158004Y0076942D02*
Y0076688D01*
X0157750D01*
X0158258D01*
X0158004D01*
Y0075926D01*
X0158258Y0075672D01*
X0147339Y0046462D02*
X0147593Y0046716D01*
X0148101D01*
X0148355Y0046462D01*
Y0046208D01*
X0148101Y0045954D01*
X0147847D01*
X0148101D01*
X0148355Y0045700D01*
Y0045446D01*
X0148101Y0045192D01*
X0147593D01*
X0147339Y0045446D01*
X0148863Y0045192D02*
Y0045446D01*
X0149117D01*
Y0045192D01*
X0148863D01*
X0151148Y0046716D02*
X0150133D01*
Y0045954D01*
X0150640Y0046208D01*
X0150894D01*
X0151148Y0045954D01*
Y0045446D01*
X0150894Y0045192D01*
X0150386D01*
X0150133Y0045446D01*
X0148101Y0051288D02*
Y0052812D01*
X0147339Y0052050D01*
X0148355D01*
X0148863Y0051288D02*
Y0051542D01*
X0149117D01*
Y0051288D01*
X0148863D01*
X0150894D02*
Y0052812D01*
X0150133Y0052050D01*
X0151148D01*
X0148101Y0057384D02*
Y0058908D01*
X0147339Y0058146D01*
X0148355D01*
X0148863Y0057384D02*
Y0057638D01*
X0149117D01*
Y0057384D01*
X0148863D01*
X0151148Y0058908D02*
X0150640Y0058654D01*
X0150133Y0058146D01*
Y0057638D01*
X0150386Y0057384D01*
X0150894D01*
X0151148Y0057638D01*
Y0057892D01*
X0150894Y0058146D01*
X0150133D01*
X0148101Y0063480D02*
Y0065004D01*
X0147339Y0064242D01*
X0148355D01*
X0148863Y0063480D02*
Y0063734D01*
X0149117D01*
Y0063480D01*
X0148863D01*
X0150894D02*
Y0065004D01*
X0150133Y0064242D01*
X0151148D01*
X0147339Y0070846D02*
X0147593Y0071100D01*
X0148101D01*
X0148355Y0070846D01*
Y0070592D01*
X0148101Y0070338D01*
X0147847D01*
X0148101D01*
X0148355Y0070084D01*
Y0069830D01*
X0148101Y0069576D01*
X0147593D01*
X0147339Y0069830D01*
X0148863Y0069576D02*
Y0069830D01*
X0149117D01*
Y0069576D01*
X0148863D01*
X0151148Y0071100D02*
X0150133D01*
Y0070338D01*
X0150640Y0070592D01*
X0150894D01*
X0151148Y0070338D01*
Y0069830D01*
X0150894Y0069576D01*
X0150386D01*
X0150133Y0069830D01*
X0162830Y0076942D02*
X0162576Y0077196D01*
X0162068D01*
X0161814Y0076942D01*
Y0075926D01*
X0162068Y0075672D01*
X0162576D01*
X0162830Y0075926D01*
Y0076434D01*
X0162322D01*
X0164099Y0075672D02*
X0163591D01*
X0163337Y0075926D01*
Y0076434D01*
X0163591Y0076688D01*
X0164099D01*
X0164353Y0076434D01*
Y0076180D01*
X0163337D01*
X0164861Y0076688D02*
Y0075672D01*
Y0076180D01*
X0165115Y0076434D01*
X0165369Y0076688D01*
X0165623D01*
X0166384Y0077196D02*
Y0075672D01*
X0167146D01*
X0167400Y0075926D01*
Y0076180D01*
Y0076434D01*
X0167146Y0076688D01*
X0166384D01*
X0168670Y0075672D02*
X0168162D01*
X0167908Y0075926D01*
Y0076434D01*
X0168162Y0076688D01*
X0168670D01*
X0168924Y0076434D01*
Y0076180D01*
X0167908D01*
X0169431Y0076688D02*
Y0075672D01*
Y0076180D01*
X0169685Y0076434D01*
X0169939Y0076688D01*
X0170193D01*
X0162830Y0043414D02*
X0162576Y0043668D01*
X0162068D01*
X0161814Y0043414D01*
Y0042398D01*
X0162068Y0042144D01*
X0162576D01*
X0162830Y0042398D01*
Y0042906D01*
X0162322D01*
X0163337Y0043668D02*
Y0042144D01*
X0164099D01*
X0164353Y0042398D01*
Y0042652D01*
X0164099Y0042906D01*
X0163337D01*
X0164099D01*
X0164353Y0043160D01*
Y0043414D01*
X0164099Y0043668D01*
X0163337D01*
X0165623D02*
X0165115D01*
X0164861Y0043414D01*
Y0042398D01*
X0165115Y0042144D01*
X0165623D01*
X0165877Y0042398D01*
Y0043414D01*
X0165623Y0043668D01*
X0162830Y0046462D02*
X0162576Y0046716D01*
X0162068D01*
X0161814Y0046462D01*
Y0045446D01*
X0162068Y0045192D01*
X0162576D01*
X0162830Y0045446D01*
Y0045954D01*
X0162322D01*
X0163337Y0046716D02*
Y0045192D01*
X0164099D01*
X0164353Y0045446D01*
Y0045700D01*
X0164099Y0045954D01*
X0163337D01*
X0164099D01*
X0164353Y0046208D01*
Y0046462D01*
X0164099Y0046716D01*
X0163337D01*
X0165877Y0046462D02*
X0165623Y0046716D01*
X0165115D01*
X0164861Y0046462D01*
Y0046208D01*
X0165115Y0045954D01*
X0165623D01*
X0165877Y0045700D01*
Y0045446D01*
X0165623Y0045192D01*
X0165115D01*
X0164861Y0045446D01*
X0162830Y0049510D02*
X0162576Y0049764D01*
X0162068D01*
X0161814Y0049510D01*
Y0048494D01*
X0162068Y0048240D01*
X0162576D01*
X0162830Y0048494D01*
Y0049002D01*
X0162322D01*
X0163337Y0049764D02*
Y0048240D01*
X0164099D01*
X0164353Y0048494D01*
Y0048748D01*
X0164099Y0049002D01*
X0163337D01*
X0164099D01*
X0164353Y0049256D01*
Y0049510D01*
X0164099Y0049764D01*
X0163337D01*
X0164861D02*
Y0048240D01*
X0165877D01*
X0162830Y0055606D02*
X0162576Y0055860D01*
X0162068D01*
X0161814Y0055606D01*
Y0054590D01*
X0162068Y0054336D01*
X0162576D01*
X0162830Y0054590D01*
Y0055098D01*
X0162322D01*
X0163337Y0054336D02*
Y0055860D01*
X0164099D01*
X0164353Y0055606D01*
Y0055098D01*
X0164099Y0054844D01*
X0163337D01*
X0165877Y0054336D02*
X0164861D01*
X0165877Y0055352D01*
Y0055606D01*
X0165623Y0055860D01*
X0165115D01*
X0164861Y0055606D01*
X0162830Y0061702D02*
X0162576Y0061956D01*
X0162068D01*
X0161814Y0061702D01*
Y0060686D01*
X0162068Y0060432D01*
X0162576D01*
X0162830Y0060686D01*
Y0061194D01*
X0162322D01*
X0163337Y0060432D02*
Y0061956D01*
X0164099D01*
X0164353Y0061702D01*
Y0061194D01*
X0164099Y0060940D01*
X0163337D01*
X0164861Y0060432D02*
X0165369D01*
X0165115D01*
Y0061956D01*
X0164861Y0061702D01*
X0162830Y0067798D02*
X0162576Y0068052D01*
X0162068D01*
X0161814Y0067798D01*
Y0066782D01*
X0162068Y0066528D01*
X0162576D01*
X0162830Y0066782D01*
Y0067290D01*
X0162322D01*
X0163337Y0068052D02*
X0164353D01*
X0163845D01*
Y0066528D01*
X0164861Y0068052D02*
Y0066528D01*
X0165877D01*
X0162830Y0070846D02*
X0162576Y0071100D01*
X0162068D01*
X0161814Y0070846D01*
Y0069830D01*
X0162068Y0069576D01*
X0162576D01*
X0162830Y0069830D01*
Y0070338D01*
X0162322D01*
X0163337Y0071100D02*
X0164353D01*
X0163845D01*
Y0069576D01*
X0165877Y0070846D02*
X0165623Y0071100D01*
X0165115D01*
X0164861Y0070846D01*
Y0070592D01*
X0165115Y0070338D01*
X0165623D01*
X0165877Y0070084D01*
Y0069830D01*
X0165623Y0069576D01*
X0165115D01*
X0164861Y0069830D01*
X0162830Y0073894D02*
X0162576Y0074148D01*
X0162068D01*
X0161814Y0073894D01*
Y0072878D01*
X0162068Y0072624D01*
X0162576D01*
X0162830Y0072878D01*
Y0073386D01*
X0162322D01*
X0163337Y0074148D02*
X0164353D01*
X0163845D01*
Y0072624D01*
X0165623Y0074148D02*
X0165115D01*
X0164861Y0073894D01*
Y0072878D01*
X0165115Y0072624D01*
X0165623D01*
X0165877Y0072878D01*
Y0073894D01*
X0165623Y0074148D01*
X0074968Y0040620D02*
X0075984D01*
X0075476D01*
Y0039096D01*
X0076746D02*
X0077253D01*
X0077507Y0039350D01*
Y0039858D01*
X0077253Y0040112D01*
X0076746D01*
X0076492Y0039858D01*
Y0039350D01*
X0076746Y0039096D01*
X0078269Y0040366D02*
Y0040112D01*
X0078015D01*
X0078523D01*
X0078269D01*
Y0039350D01*
X0078523Y0039096D01*
X0079539Y0040112D02*
X0080047D01*
X0080300Y0039858D01*
Y0039096D01*
X0079539D01*
X0079285Y0039350D01*
X0079539Y0039604D01*
X0080300D01*
X0080808Y0039096D02*
X0081316D01*
X0081062D01*
Y0040620D01*
X0080808D01*
X0083601D02*
Y0039096D01*
X0084363D01*
X0084617Y0039350D01*
Y0039604D01*
Y0039858D01*
X0084363Y0040112D01*
X0083601D01*
X0085379Y0039096D02*
X0085887D01*
X0086141Y0039350D01*
Y0039858D01*
X0085887Y0040112D01*
X0085379D01*
X0085125Y0039858D01*
Y0039350D01*
X0085379Y0039096D01*
X0086902Y0040112D02*
X0087410D01*
X0087664Y0039858D01*
Y0039096D01*
X0086902D01*
X0086648Y0039350D01*
X0086902Y0039604D01*
X0087664D01*
X0088172Y0040112D02*
Y0039096D01*
Y0039604D01*
X0088426Y0039858D01*
X0088680Y0040112D01*
X0088934D01*
X0090711Y0040620D02*
Y0039096D01*
X0089949D01*
X0089695Y0039350D01*
Y0039858D01*
X0089949Y0040112D01*
X0090711D01*
X0092996Y0040366D02*
Y0040112D01*
X0092742D01*
X0093250D01*
X0092996D01*
Y0039350D01*
X0093250Y0039096D01*
X0094012Y0040620D02*
Y0039096D01*
Y0039858D01*
X0094266Y0040112D01*
X0094774D01*
X0095028Y0039858D01*
Y0039096D01*
X0095536D02*
X0096043D01*
X0095789D01*
Y0040112D01*
X0095536D01*
X0097821D02*
X0097059D01*
X0096805Y0039858D01*
Y0039350D01*
X0097059Y0039096D01*
X0097821D01*
X0098329D02*
Y0040620D01*
Y0039604D02*
X0099090Y0040112D01*
X0098329Y0039604D02*
X0099090Y0039096D01*
X0099852D02*
Y0040112D01*
X0100614D01*
X0100868Y0039858D01*
Y0039096D01*
X0102137D02*
X0101630D01*
X0101376Y0039350D01*
Y0039858D01*
X0101630Y0040112D01*
X0102137D01*
X0102391Y0039858D01*
Y0039604D01*
X0101376D01*
X0102899Y0039096D02*
X0103661D01*
X0103915Y0039350D01*
X0103661Y0039604D01*
X0103153D01*
X0102899Y0039858D01*
X0103153Y0040112D01*
X0103915D01*
X0104423Y0039096D02*
X0105184D01*
X0105438Y0039350D01*
X0105184Y0039604D01*
X0104677D01*
X0104423Y0039858D01*
X0104677Y0040112D01*
X0105438D01*
X0105946D02*
X0106200D01*
Y0039858D01*
X0105946D01*
Y0040112D01*
Y0039350D02*
X0106200D01*
Y0039096D01*
X0105946D01*
Y0039350D01*
X0130834Y0040366D02*
X0131088Y0040620D01*
X0131595D01*
X0131849Y0040366D01*
Y0039350D01*
X0131595Y0039096D01*
X0131088D01*
X0130834Y0039350D01*
Y0040366D01*
X0132357Y0039096D02*
Y0039350D01*
X0132611D01*
Y0039096D01*
X0132357D01*
X0133627Y0040366D02*
X0133881Y0040620D01*
X0134388D01*
X0134642Y0040366D01*
Y0040112D01*
X0134388Y0039858D01*
X0134642Y0039604D01*
Y0039350D01*
X0134388Y0039096D01*
X0133881D01*
X0133627Y0039350D01*
Y0039604D01*
X0133881Y0039858D01*
X0133627Y0040112D01*
Y0040366D01*
X0133881Y0039858D02*
X0134388D01*
X0135150Y0040366D02*
X0135404Y0040620D01*
X0135912D01*
X0136166Y0040366D01*
Y0039350D01*
X0135912Y0039096D01*
X0135404D01*
X0135150Y0039350D01*
Y0040366D01*
X0136674D02*
X0136928Y0040620D01*
X0137435D01*
X0137689Y0040366D01*
Y0039350D01*
X0137435Y0039096D01*
X0136928D01*
X0136674Y0039350D01*
Y0040366D01*
X0138197Y0039096D02*
Y0040112D01*
X0138451D01*
X0138705Y0039858D01*
Y0039096D01*
Y0039858D01*
X0138959Y0040112D01*
X0139213Y0039858D01*
Y0039096D01*
X0139721D02*
Y0040112D01*
X0139975D01*
X0140229Y0039858D01*
Y0039096D01*
Y0039858D01*
X0140482Y0040112D01*
X0140736Y0039858D01*
Y0039096D01*
M02*
