G04*
G04 #@! TF.GenerationSoftware,Altium Limited,Altium Designer,22.6.1 (34)*
G04*
G04 Layer_Color=128*
%FSAX43Y43*%
%MOMM*%
G71*
G04*
G04 #@! TF.SameCoordinates,DFD1A6D8-6486-425C-A6BB-C63D1257436E*
G04*
G04*
G04 #@! TF.FilePolarity,Positive*
G04*
G01*
G75*
%ADD65C,0.051*%
D65*
X0019070Y0016795D02*
X0019770D01*
X0019420Y0016445D02*
Y0017145D01*
X0035280Y0027950D02*
X0036280D01*
X0035780Y0027450D02*
Y0028450D01*
X0035280Y0025410D02*
X0036280D01*
X0035780Y0024910D02*
Y0025910D01*
X0023050Y0033400D02*
X0023750D01*
X0023400Y0033050D02*
Y0033750D01*
X0019060Y0033390D02*
X0019760D01*
X0019410Y0033040D02*
Y0033740D01*
X0029250Y0046900D02*
X0029950D01*
X0029600Y0046550D02*
Y0047250D01*
X0001900Y0041870D02*
X0002900D01*
X0002400Y0041370D02*
Y0042370D01*
X0001900Y0039330D02*
X0002900D01*
X0002400Y0038830D02*
Y0039830D01*
X0021650Y0046575D02*
X0022350D01*
X0022000Y0046225D02*
Y0046925D01*
X0007410Y0012750D02*
X0008410D01*
X0007910Y0012250D02*
Y0013250D01*
X0007410Y0010210D02*
X0008410D01*
X0007910Y0009710D02*
Y0010710D01*
X0007400Y0029350D02*
X0008400D01*
X0007900Y0028850D02*
Y0029850D01*
X0007400Y0026810D02*
X0008400D01*
X0007900Y0026310D02*
Y0027310D01*
X0035600Y0011570D02*
X0036600D01*
X0036100Y0011070D02*
Y0012070D01*
X0035600Y0009030D02*
X0036600D01*
X0036100Y0008530D02*
Y0009530D01*
X0039650Y0047150D02*
X0042650D01*
X0041150Y0045650D02*
Y0048650D01*
X0039650Y0002850D02*
X0042650D01*
X0041150Y0001350D02*
Y0004350D01*
X0001350Y0002850D02*
X0004350D01*
X0002850Y0001350D02*
Y0004350D01*
X0001350Y0047150D02*
X0004350D01*
X0002850Y0045650D02*
Y0048650D01*
X0040850Y0022000D02*
X0041150D01*
X0041000Y0021850D02*
Y0022150D01*
X0040850Y0014000D02*
X0041150D01*
X0041000Y0013850D02*
Y0014150D01*
X0034850Y0034000D02*
X0035150D01*
X0035000Y0033850D02*
Y0034150D01*
X0036850Y0030000D02*
X0037150D01*
X0037000Y0029850D02*
Y0030150D01*
X0036850Y0022000D02*
X0037150D01*
X0037000Y0021850D02*
Y0022150D01*
X0034850Y0018000D02*
X0035150D01*
X0035000Y0017850D02*
Y0018150D01*
X0036850Y0014000D02*
X0037150D01*
X0037000Y0013850D02*
Y0014150D01*
X0036850Y0006000D02*
X0037150D01*
X0037000Y0005850D02*
Y0006150D01*
X0034850Y0002000D02*
X0035150D01*
X0035000Y0001850D02*
Y0002150D01*
X0030850Y0034000D02*
X0031150D01*
X0031000Y0033850D02*
Y0034150D01*
X0030850Y0026000D02*
X0031150D01*
X0031000Y0025850D02*
Y0026150D01*
X0032850Y0022000D02*
X0033150D01*
X0033000Y0021850D02*
Y0022150D01*
X0030850Y0018000D02*
X0031150D01*
X0031000Y0017850D02*
Y0018150D01*
X0032850Y0006000D02*
X0033150D01*
X0033000Y0005850D02*
Y0006150D01*
X0030850Y0002000D02*
X0031150D01*
X0031000Y0001850D02*
Y0002150D01*
X0026850Y0042000D02*
X0027150D01*
X0027000Y0041850D02*
Y0042150D01*
X0026850Y0026000D02*
X0027150D01*
X0027000Y0025850D02*
Y0026150D01*
X0028850Y0022000D02*
X0029150D01*
X0029000Y0021850D02*
Y0022150D01*
X0026850Y0010000D02*
X0027150D01*
X0027000Y0009850D02*
Y0010150D01*
X0028850Y0006000D02*
X0029150D01*
X0029000Y0005850D02*
Y0006150D01*
X0026850Y0002000D02*
X0027150D01*
X0027000Y0001850D02*
Y0002150D01*
X0022850Y0042000D02*
X0023150D01*
X0023000Y0041850D02*
Y0042150D01*
X0022850Y0026000D02*
X0023150D01*
X0023000Y0025850D02*
Y0026150D01*
X0024850Y0022000D02*
X0025150D01*
X0025000Y0021850D02*
Y0022150D01*
X0024850Y0006000D02*
X0025150D01*
X0025000Y0005850D02*
Y0006150D01*
X0022850Y0002000D02*
X0023150D01*
X0023000Y0001850D02*
Y0002150D01*
X0020850Y0038000D02*
X0021150D01*
X0021000Y0037850D02*
Y0038150D01*
X0020850Y0022000D02*
X0021150D01*
X0021000Y0021850D02*
Y0022150D01*
X0020850Y0006000D02*
X0021150D01*
X0021000Y0005850D02*
Y0006150D01*
X0018850Y0002000D02*
X0019150D01*
X0019000Y0001850D02*
Y0002150D01*
X0016850Y0046000D02*
X0017150D01*
X0017000Y0045850D02*
Y0046150D01*
X0014850Y0042000D02*
X0015150D01*
X0015000Y0041850D02*
Y0042150D01*
X0016850Y0038000D02*
X0017150D01*
X0017000Y0037850D02*
Y0038150D01*
X0014850Y0026000D02*
X0015150D01*
X0015000Y0025850D02*
Y0026150D01*
X0016850Y0022000D02*
X0017150D01*
X0017000Y0021850D02*
Y0022150D01*
X0014850Y0010000D02*
X0015150D01*
X0015000Y0009850D02*
Y0010150D01*
X0016850Y0006000D02*
X0017150D01*
X0017000Y0005850D02*
Y0006150D01*
X0014850Y0002000D02*
X0015150D01*
X0015000Y0001850D02*
Y0002150D01*
X0010850Y0034000D02*
X0011150D01*
X0011000Y0033850D02*
Y0034150D01*
X0012850Y0022000D02*
X0013150D01*
X0013000Y0021850D02*
Y0022150D01*
X0010850Y0018000D02*
X0011150D01*
X0011000Y0017850D02*
Y0018150D01*
X0012850Y0006000D02*
X0013150D01*
X0013000Y0005850D02*
Y0006150D01*
X0010850Y0002000D02*
X0011150D01*
X0011000Y0001850D02*
Y0002150D01*
X0008850Y0046000D02*
X0009150D01*
X0009000Y0045850D02*
Y0046150D01*
X0008850Y0038000D02*
X0009150D01*
X0009000Y0037850D02*
Y0038150D01*
X0006850Y0034000D02*
X0007150D01*
X0007000Y0033850D02*
Y0034150D01*
X0008850Y0022000D02*
X0009150D01*
X0009000Y0021850D02*
Y0022150D01*
X0006850Y0018000D02*
X0007150D01*
X0007000Y0017850D02*
Y0018150D01*
X0008850Y0006000D02*
X0009150D01*
X0009000Y0005850D02*
Y0006150D01*
X0006850Y0002000D02*
X0007150D01*
X0007000Y0001850D02*
Y0002150D01*
X0004850Y0038000D02*
X0005150D01*
X0005000Y0037850D02*
Y0038150D01*
X0004850Y0022000D02*
X0005150D01*
X0005000Y0021850D02*
Y0022150D01*
X0004850Y0014000D02*
X0005150D01*
X0005000Y0013850D02*
Y0014150D01*
X0028340Y0030900D02*
X0028640D01*
X0028490Y0030750D02*
Y0031050D01*
X0028592Y0012217D02*
X0028892D01*
X0028742Y0012067D02*
Y0012367D01*
X0028694Y0011464D02*
X0028994D01*
X0028844Y0011314D02*
Y0011614D01*
X0028466Y0014830D02*
X0028766D01*
X0028616Y0014680D02*
Y0014980D01*
X0028550Y0028000D02*
X0028850D01*
X0028700Y0027850D02*
Y0028150D01*
X0028650Y0027100D02*
X0028950D01*
X0028800Y0026950D02*
Y0027250D01*
X0022673Y0012193D02*
X0022973D01*
X0022823Y0012043D02*
Y0012343D01*
X0034860Y0030240D02*
X0035160D01*
X0035010Y0030090D02*
Y0030390D01*
X0023169Y0027781D02*
X0023469D01*
X0023319Y0027631D02*
Y0027931D01*
X0036500Y0037800D02*
X0036800D01*
X0036650Y0037650D02*
Y0037950D01*
X0032765Y0039840D02*
X0033065D01*
X0032915Y0039690D02*
Y0039990D01*
X0013250Y0035275D02*
X0013550D01*
X0013400Y0035125D02*
Y0035425D01*
X0013250Y0039225D02*
X0013550D01*
X0013400Y0039075D02*
Y0039375D01*
X0026500Y0046200D02*
X0026800D01*
X0026650Y0046050D02*
Y0046350D01*
X0007450Y0040375D02*
X0007750D01*
X0007600Y0040225D02*
Y0040525D01*
X0005250Y0040375D02*
X0005550D01*
X0005400Y0040225D02*
Y0040525D01*
X0019450Y0042050D02*
X0019750D01*
X0019600Y0041900D02*
Y0042200D01*
X0034870Y0016645D02*
X0035170D01*
X0035020Y0016495D02*
Y0016795D01*
X0034860Y0033060D02*
X0035160D01*
X0035010Y0032910D02*
Y0033210D01*
X0026357Y0018480D02*
X0026657D01*
X0026507Y0018330D02*
Y0018630D01*
X0012657Y0015480D02*
X0012957D01*
X0012807Y0015330D02*
Y0015630D01*
X0012650Y0032100D02*
X0012950D01*
X0012800Y0031950D02*
Y0032250D01*
X0026350Y0035100D02*
X0026650D01*
X0026500Y0034950D02*
Y0035250D01*
X0010460Y0008715D02*
X0010760D01*
X0010610Y0008565D02*
Y0008865D01*
X0012660Y0008715D02*
X0012960D01*
X0012810Y0008565D02*
Y0008865D01*
X0017070Y0008725D02*
X0017370D01*
X0017220Y0008575D02*
Y0008875D01*
X0017060Y0025240D02*
X0017360D01*
X0017210Y0025090D02*
Y0025390D01*
X0012651Y0025353D02*
X0012951D01*
X0012801Y0025203D02*
Y0025503D01*
X0010451Y0025353D02*
X0010751D01*
X0010601Y0025203D02*
Y0025503D01*
X0014872Y0014627D02*
X0015172D01*
X0015022Y0014477D02*
Y0014777D01*
X0017072Y0014627D02*
X0017372D01*
X0017222Y0014477D02*
Y0014777D01*
X0040850Y0006394D02*
X0041150D01*
X0041000Y0006244D02*
Y0006544D01*
X0038290Y0008560D02*
X0038590D01*
X0038440Y0008410D02*
Y0008710D01*
X0040850Y0010420D02*
X0041150D01*
X0041000Y0010270D02*
Y0010570D01*
X0038158Y0017093D02*
X0038458D01*
X0038308Y0016943D02*
Y0017243D01*
X0040850Y0015080D02*
X0041150D01*
X0041000Y0014930D02*
Y0015230D01*
X0040850Y0019106D02*
X0041150D01*
X0041000Y0018956D02*
Y0019256D01*
X0038158Y0033693D02*
X0038458D01*
X0038308Y0033543D02*
Y0033843D01*
X0040850Y0035706D02*
X0041150D01*
X0041000Y0035556D02*
Y0035856D01*
X0040850Y0031680D02*
X0041150D01*
X0041000Y0031530D02*
Y0031830D01*
X0038158Y0025007D02*
X0038458D01*
X0038308Y0024857D02*
Y0025157D01*
X0040850Y0027020D02*
X0041150D01*
X0041000Y0026870D02*
Y0027170D01*
X0040850Y0022994D02*
X0041150D01*
X0041000Y0022844D02*
Y0023144D01*
X0034868Y0013823D02*
X0035167D01*
X0035018Y0013673D02*
Y0013972D01*
X0030468Y0016147D02*
X0030767D01*
X0030618Y0015998D02*
Y0016298D01*
X0021468Y0008722D02*
X0021767D01*
X0021618Y0008573D02*
Y0008873D01*
X0017067Y0011023D02*
X0017368D01*
X0017218Y0010873D02*
Y0011172D01*
X0005540Y0008404D02*
X0005840D01*
X0005690Y0008254D02*
Y0008554D01*
X0002848Y0006391D02*
X0003148D01*
X0002997Y0006241D02*
Y0006541D01*
X0002848Y0010417D02*
X0003148D01*
X0002997Y0010267D02*
Y0010567D01*
X0005540Y0017091D02*
X0005840D01*
X0005690Y0016941D02*
Y0017241D01*
X0002848Y0019104D02*
X0003148D01*
X0002997Y0018954D02*
Y0019254D01*
X0002848Y0015078D02*
X0003148D01*
X0002997Y0014928D02*
Y0015228D01*
X0002848Y0035704D02*
X0003148D01*
X0002997Y0035554D02*
Y0035854D01*
X0005540Y0033691D02*
X0005840D01*
X0005690Y0033541D02*
Y0033841D01*
X0002848Y0031678D02*
X0003148D01*
X0002997Y0031528D02*
Y0031828D01*
X0002848Y0027017D02*
X0003148D01*
X0002997Y0026867D02*
Y0027167D01*
X0005540Y0025004D02*
X0005840D01*
X0005690Y0024854D02*
Y0025154D01*
X0002848Y0022991D02*
X0003148D01*
X0002997Y0022841D02*
Y0023141D01*
X0014863Y0031247D02*
X0015163D01*
X0015013Y0031097D02*
Y0031397D01*
X0017063Y0031247D02*
X0017363D01*
X0017213Y0031097D02*
Y0031397D01*
X0021458Y0025263D02*
X0021757D01*
X0021608Y0025112D02*
Y0025413D01*
X0017058Y0027538D02*
X0017358D01*
X0017208Y0027388D02*
Y0027688D01*
X0030458Y0032513D02*
X0030757D01*
X0030608Y0032362D02*
Y0032662D01*
M02*
