G04*
G04 #@! TF.GenerationSoftware,Altium Limited,Altium Designer,22.6.1 (34)*
G04*
G04 Layer_Physical_Order=4*
G04 Layer_Color=16711680*
%FSAX43Y43*%
%MOMM*%
G71*
G04*
G04 #@! TF.SameCoordinates,DFD1A6D8-6486-425C-A6BB-C63D1257436E*
G04*
G04*
G04 #@! TF.FilePolarity,Positive*
G04*
G01*
G75*
%ADD22R,5.385X4.026*%
%ADD47C,0.193*%
%ADD49C,0.400*%
%ADD51C,1.500*%
%ADD52R,1.800X1.800*%
%ADD53C,1.800*%
%ADD54C,3.000*%
%ADD55C,0.600*%
G36*
X0039307Y0049592D02*
X0039354Y0049465D01*
X0039074Y0049226D01*
X0038775Y0048876D01*
X0038534Y0048483D01*
X0038358Y0048057D01*
X0038250Y0047609D01*
X0038214Y0047150D01*
X0038250Y0046691D01*
X0038358Y0046243D01*
X0038534Y0045817D01*
X0038775Y0045424D01*
X0039074Y0045074D01*
X0039424Y0044775D01*
X0039817Y0044534D01*
X0040243Y0044358D01*
X0040691Y0044250D01*
X0041150Y0044214D01*
X0041609Y0044250D01*
X0042057Y0044358D01*
X0042483Y0044534D01*
X0042876Y0044775D01*
X0043226Y0045074D01*
X0043465Y0045354D01*
X0043592Y0045307D01*
Y0036006D01*
X0041250D01*
Y0033693D01*
Y0031380D01*
X0043592D01*
Y0027320D01*
X0041250D01*
Y0025007D01*
Y0022694D01*
X0043592D01*
Y0019406D01*
X0041250D01*
Y0017093D01*
Y0014780D01*
X0043592D01*
Y0010720D01*
X0041250D01*
Y0008407D01*
Y0006094D01*
X0043592D01*
Y0004693D01*
X0043465Y0004646D01*
X0043226Y0004926D01*
X0042876Y0005225D01*
X0042483Y0005466D01*
X0042057Y0005642D01*
X0041609Y0005750D01*
X0041150Y0005786D01*
X0040691Y0005750D01*
X0040243Y0005642D01*
X0039817Y0005466D01*
X0039424Y0005225D01*
X0039074Y0004926D01*
X0038775Y0004576D01*
X0038534Y0004183D01*
X0038358Y0003757D01*
X0038250Y0003309D01*
X0038214Y0002850D01*
X0038250Y0002391D01*
X0038358Y0001943D01*
X0038534Y0001517D01*
X0038775Y0001124D01*
X0039074Y0000774D01*
X0039354Y0000535D01*
X0039307Y0000408D01*
X0004693D01*
X0004646Y0000535D01*
X0004926Y0000774D01*
X0005225Y0001124D01*
X0005466Y0001517D01*
X0005642Y0001943D01*
X0005750Y0002391D01*
X0005786Y0002850D01*
X0005750Y0003309D01*
X0005642Y0003757D01*
X0005466Y0004183D01*
X0005225Y0004576D01*
X0004926Y0004926D01*
X0004576Y0005225D01*
X0004183Y0005466D01*
X0003757Y0005642D01*
X0003309Y0005750D01*
X0002850Y0005786D01*
X0002391Y0005750D01*
X0001943Y0005642D01*
X0001517Y0005466D01*
X0001124Y0005225D01*
X0000774Y0004926D01*
X0000535Y0004646D01*
X0000408Y0004693D01*
Y0006094D01*
X0002750D01*
Y0008407D01*
Y0010720D01*
X0000408D01*
Y0014780D01*
X0002750D01*
Y0017093D01*
Y0019406D01*
X0000408D01*
Y0022694D01*
X0002750D01*
Y0025007D01*
Y0027320D01*
X0000408D01*
Y0031380D01*
X0002750D01*
Y0033693D01*
Y0036006D01*
X0000408D01*
Y0045307D01*
X0000535Y0045354D01*
X0000774Y0045074D01*
X0001124Y0044775D01*
X0001517Y0044534D01*
X0001943Y0044358D01*
X0002391Y0044250D01*
X0002850Y0044214D01*
X0003309Y0044250D01*
X0003757Y0044358D01*
X0004183Y0044534D01*
X0004576Y0044775D01*
X0004926Y0045074D01*
X0005225Y0045424D01*
X0005466Y0045817D01*
X0005642Y0046243D01*
X0005750Y0046691D01*
X0005786Y0047150D01*
X0005750Y0047609D01*
X0005642Y0048057D01*
X0005466Y0048483D01*
X0005225Y0048876D01*
X0004926Y0049226D01*
X0004646Y0049465D01*
X0004693Y0049592D01*
X0039307Y0049592D01*
D02*
G37*
%LPC*%
G36*
X0029738Y0047950D02*
X0029462D01*
X0029195Y0047878D01*
X0028955Y0047740D01*
X0028760Y0047545D01*
X0028622Y0047305D01*
X0028550Y0047038D01*
Y0046762D01*
X0028622Y0046495D01*
X0028760Y0046255D01*
X0028955Y0046060D01*
X0029195Y0045922D01*
X0029462Y0045850D01*
X0029738D01*
X0030005Y0045922D01*
X0030245Y0046060D01*
X0030440Y0046255D01*
X0030578Y0046495D01*
X0030650Y0046762D01*
Y0047038D01*
X0030578Y0047305D01*
X0030440Y0047545D01*
X0030245Y0047740D01*
X0030005Y0047878D01*
X0029738Y0047950D01*
D02*
G37*
G36*
X0022138Y0047625D02*
X0021862D01*
X0021595Y0047553D01*
X0021355Y0047415D01*
X0021160Y0047220D01*
X0021022Y0046980D01*
X0020950Y0046713D01*
Y0046437D01*
X0021022Y0046170D01*
X0021160Y0045930D01*
X0021355Y0045735D01*
X0021595Y0045597D01*
X0021862Y0045525D01*
X0022138D01*
X0022405Y0045597D01*
X0022645Y0045735D01*
X0022840Y0045930D01*
X0022978Y0046170D01*
X0023050Y0046437D01*
Y0046713D01*
X0022978Y0046980D01*
X0022840Y0047220D01*
X0022645Y0047415D01*
X0022405Y0047553D01*
X0022138Y0047625D01*
D02*
G37*
G36*
X0003600Y0043070D02*
X0001200D01*
Y0040670D01*
X0003600D01*
Y0043070D01*
D02*
G37*
G36*
X0002650Y0040505D02*
Y0039580D01*
X0003575D01*
X0003518Y0039793D01*
X0003360Y0040067D01*
X0003137Y0040290D01*
X0002863Y0040448D01*
X0002650Y0040505D01*
D02*
G37*
G36*
X0002150D02*
X0001937Y0040448D01*
X0001663Y0040290D01*
X0001440Y0040067D01*
X0001282Y0039793D01*
X0001225Y0039580D01*
X0002150D01*
Y0040505D01*
D02*
G37*
G36*
X0003575Y0039080D02*
X0002650D01*
Y0038155D01*
X0002863Y0038212D01*
X0003137Y0038370D01*
X0003360Y0038593D01*
X0003518Y0038867D01*
X0003575Y0039080D01*
D02*
G37*
G36*
X0002150D02*
X0001225D01*
X0001282Y0038867D01*
X0001440Y0038593D01*
X0001663Y0038370D01*
X0001937Y0038212D01*
X0002150Y0038155D01*
Y0039080D01*
D02*
G37*
G36*
X0026619Y0035700D02*
X0026381D01*
X0026163Y0035610D01*
X0017820D01*
X0017625Y0035571D01*
X0017460Y0035460D01*
X0016399Y0034400D01*
X0014590D01*
X0014395Y0034361D01*
X0014230Y0034250D01*
X0012678Y0032699D01*
X0012460Y0032609D01*
X0012291Y0032440D01*
X0012200Y0032219D01*
Y0031981D01*
X0012291Y0031760D01*
X0012460Y0031591D01*
X0012681Y0031500D01*
X0012919D01*
X0013140Y0031591D01*
X0013309Y0031760D01*
X0013399Y0031978D01*
X0014801Y0033380D01*
X0016610D01*
X0016805Y0033419D01*
X0016970Y0033530D01*
X0018031Y0034590D01*
X0026163D01*
X0026381Y0034500D01*
X0026619D01*
X0026840Y0034591D01*
X0027009Y0034760D01*
X0027100Y0034981D01*
Y0035219D01*
X0027009Y0035440D01*
X0026840Y0035609D01*
X0026619Y0035700D01*
D02*
G37*
G36*
X0005992Y0036006D02*
X0003250D01*
Y0033943D01*
X0005992D01*
Y0036006D01*
D02*
G37*
G36*
X0040750Y0036006D02*
X0038008D01*
Y0033943D01*
X0040750D01*
Y0036006D01*
D02*
G37*
G36*
X0035129Y0033660D02*
X0034891D01*
X0034670Y0033569D01*
X0034501Y0033400D01*
X0034410Y0033179D01*
Y0032941D01*
X0034501Y0032720D01*
X0034670Y0032551D01*
X0034891Y0032460D01*
X0035129D01*
X0035350Y0032551D01*
X0035519Y0032720D01*
X0035610Y0032941D01*
Y0033179D01*
X0035519Y0033400D01*
X0035350Y0033569D01*
X0035129Y0033660D01*
D02*
G37*
G36*
X0023538Y0034450D02*
X0023262D01*
X0022995Y0034378D01*
X0022755Y0034240D01*
X0022560Y0034045D01*
X0022422Y0033805D01*
X0022350Y0033538D01*
Y0033262D01*
X0022422Y0032995D01*
X0022560Y0032755D01*
X0022755Y0032560D01*
X0022995Y0032422D01*
X0023262Y0032350D01*
X0023538D01*
X0023805Y0032422D01*
X0024045Y0032560D01*
X0024240Y0032755D01*
X0024378Y0032995D01*
X0024450Y0033262D01*
Y0033538D01*
X0024378Y0033805D01*
X0024240Y0034045D01*
X0024045Y0034240D01*
X0023805Y0034378D01*
X0023538Y0034450D01*
D02*
G37*
G36*
X0019548Y0034440D02*
X0019272D01*
X0019005Y0034368D01*
X0018765Y0034230D01*
X0018570Y0034035D01*
X0018432Y0033795D01*
X0018360Y0033528D01*
Y0033252D01*
X0018432Y0032985D01*
X0018570Y0032745D01*
X0018765Y0032550D01*
X0019005Y0032412D01*
X0019272Y0032340D01*
X0019548D01*
X0019815Y0032412D01*
X0020055Y0032550D01*
X0020250Y0032745D01*
X0020388Y0032985D01*
X0020460Y0033252D01*
Y0033528D01*
X0020388Y0033795D01*
X0020250Y0034035D01*
X0020055Y0034230D01*
X0019815Y0034368D01*
X0019548Y0034440D01*
D02*
G37*
G36*
X0005992Y0033443D02*
X0003250D01*
Y0031380D01*
X0005992D01*
Y0033443D01*
D02*
G37*
G36*
X0040750D02*
X0038008D01*
Y0031380D01*
X0040750D01*
Y0033443D01*
D02*
G37*
G36*
X0009100Y0030550D02*
X0006700D01*
Y0028150D01*
X0009100D01*
Y0030550D01*
D02*
G37*
G36*
X0028609Y0031500D02*
X0028371D01*
X0028150Y0031409D01*
X0027981Y0031240D01*
X0027890Y0031019D01*
Y0030781D01*
X0027981Y0030560D01*
X0028150Y0030391D01*
X0028295Y0030331D01*
Y0028444D01*
X0028191Y0028340D01*
X0028100Y0028119D01*
Y0027881D01*
X0028191Y0027660D01*
X0028360Y0027491D01*
X0028581Y0027400D01*
X0028819D01*
X0029040Y0027491D01*
X0029209Y0027660D01*
X0029300Y0027881D01*
Y0028119D01*
X0029209Y0028340D01*
X0029105Y0028444D01*
Y0030690D01*
X0029105Y0030690D01*
X0029088Y0030775D01*
X0029090Y0030781D01*
Y0031019D01*
X0028999Y0031240D01*
X0028830Y0031409D01*
X0028609Y0031500D01*
D02*
G37*
G36*
X0008150Y0027985D02*
Y0027060D01*
X0009075D01*
X0009018Y0027273D01*
X0008860Y0027547D01*
X0008637Y0027770D01*
X0008363Y0027928D01*
X0008150Y0027985D01*
D02*
G37*
G36*
X0007650D02*
X0007437Y0027928D01*
X0007163Y0027770D01*
X0006940Y0027547D01*
X0006782Y0027273D01*
X0006725Y0027060D01*
X0007650D01*
Y0027985D01*
D02*
G37*
G36*
X0036980Y0029150D02*
X0034580D01*
Y0026750D01*
X0036980D01*
Y0029150D01*
D02*
G37*
G36*
X0036030Y0026585D02*
Y0025660D01*
X0036955D01*
X0036898Y0025873D01*
X0036740Y0026147D01*
X0036517Y0026370D01*
X0036243Y0026528D01*
X0036030Y0026585D01*
D02*
G37*
G36*
X0035530D02*
X0035317Y0026528D01*
X0035043Y0026370D01*
X0034820Y0026147D01*
X0034662Y0025873D01*
X0034605Y0025660D01*
X0035530D01*
Y0026585D01*
D02*
G37*
G36*
X0009075Y0026560D02*
X0008150D01*
Y0025635D01*
X0008363Y0025692D01*
X0008637Y0025850D01*
X0008860Y0026073D01*
X0009018Y0026347D01*
X0009075Y0026560D01*
D02*
G37*
G36*
X0007650D02*
X0006725D01*
X0006782Y0026347D01*
X0006940Y0026073D01*
X0007163Y0025850D01*
X0007437Y0025692D01*
X0007650Y0025635D01*
Y0026560D01*
D02*
G37*
G36*
X0005992Y0027320D02*
X0003250D01*
Y0025257D01*
X0005992D01*
Y0027320D01*
D02*
G37*
G36*
X0040750Y0027320D02*
X0038008D01*
Y0025257D01*
X0040750D01*
Y0027320D01*
D02*
G37*
G36*
X0012921Y0025953D02*
X0012682D01*
X0012461Y0025862D01*
X0012293Y0025693D01*
X0012201Y0025473D01*
Y0025234D01*
X0012293Y0025013D01*
X0012461Y0024845D01*
X0012682Y0024753D01*
X0012921D01*
X0013141Y0024845D01*
X0013310Y0025013D01*
X0013401Y0025234D01*
Y0025473D01*
X0013310Y0025693D01*
X0013141Y0025862D01*
X0012921Y0025953D01*
D02*
G37*
G36*
X0010721D02*
X0010482D01*
X0010261Y0025862D01*
X0010093Y0025693D01*
X0010001Y0025473D01*
Y0025234D01*
X0010093Y0025013D01*
X0010261Y0024845D01*
X0010482Y0024753D01*
X0010721D01*
X0010941Y0024845D01*
X0011110Y0025013D01*
X0011201Y0025234D01*
Y0025473D01*
X0011110Y0025693D01*
X0010941Y0025862D01*
X0010721Y0025953D01*
D02*
G37*
G36*
X0017329Y0025840D02*
X0017091D01*
X0016870Y0025749D01*
X0016701Y0025580D01*
X0016610Y0025359D01*
Y0025121D01*
X0016701Y0024900D01*
X0016870Y0024731D01*
X0017091Y0024640D01*
X0017329D01*
X0017550Y0024731D01*
X0017719Y0024900D01*
X0017810Y0025121D01*
Y0025359D01*
X0017719Y0025580D01*
X0017550Y0025749D01*
X0017329Y0025840D01*
D02*
G37*
G36*
X0036955Y0025160D02*
X0036030D01*
Y0024235D01*
X0036243Y0024292D01*
X0036517Y0024450D01*
X0036740Y0024673D01*
X0036898Y0024947D01*
X0036955Y0025160D01*
D02*
G37*
G36*
X0035530D02*
X0034605D01*
X0034662Y0024947D01*
X0034820Y0024673D01*
X0035043Y0024450D01*
X0035317Y0024292D01*
X0035530Y0024235D01*
Y0025160D01*
D02*
G37*
G36*
X0005992Y0024757D02*
X0003250D01*
Y0022694D01*
X0005992D01*
Y0024757D01*
D02*
G37*
G36*
X0040750D02*
X0038008D01*
Y0022694D01*
X0040750D01*
Y0024757D01*
D02*
G37*
G36*
X0026627Y0019080D02*
X0026388D01*
X0026170Y0018990D01*
X0015807D01*
X0015612Y0018951D01*
X0015447Y0018841D01*
X0012685Y0016079D01*
X0012467Y0015989D01*
X0012299Y0015820D01*
X0012207Y0015600D01*
Y0015361D01*
X0012299Y0015141D01*
X0012467Y0014972D01*
X0012688Y0014880D01*
X0012927D01*
X0013147Y0014972D01*
X0013316Y0015141D01*
X0013406Y0015358D01*
X0016018Y0017971D01*
X0019278D01*
X0019282Y0017845D01*
X0019015Y0017773D01*
X0018775Y0017635D01*
X0018580Y0017440D01*
X0018442Y0017200D01*
X0018370Y0016933D01*
Y0016657D01*
X0018442Y0016390D01*
X0018580Y0016150D01*
X0018775Y0015955D01*
X0019015Y0015817D01*
X0019282Y0015745D01*
X0019558D01*
X0019825Y0015817D01*
X0020065Y0015955D01*
X0020260Y0016150D01*
X0020398Y0016390D01*
X0020470Y0016657D01*
Y0016933D01*
X0020398Y0017200D01*
X0020260Y0017440D01*
X0020065Y0017635D01*
X0019825Y0017773D01*
X0019558Y0017845D01*
X0019562Y0017971D01*
X0026170D01*
X0026388Y0017880D01*
X0026627D01*
X0026847Y0017972D01*
X0027016Y0018141D01*
X0027107Y0018361D01*
Y0018600D01*
X0027016Y0018820D01*
X0026847Y0018989D01*
X0026627Y0019080D01*
D02*
G37*
G36*
X0005992Y0019406D02*
X0003250D01*
Y0017343D01*
X0005992D01*
Y0019406D01*
D02*
G37*
G36*
X0040750Y0019406D02*
X0038008D01*
Y0017343D01*
X0040750D01*
Y0019406D01*
D02*
G37*
G36*
X0035139Y0017245D02*
X0034901D01*
X0034680Y0017154D01*
X0034511Y0016985D01*
X0034420Y0016764D01*
Y0016526D01*
X0034511Y0016305D01*
X0034680Y0016136D01*
X0034901Y0016045D01*
X0035139D01*
X0035360Y0016136D01*
X0035529Y0016305D01*
X0035620Y0016526D01*
Y0016764D01*
X0035529Y0016985D01*
X0035360Y0017154D01*
X0035139Y0017245D01*
D02*
G37*
G36*
X0005992Y0016843D02*
X0003250D01*
Y0014780D01*
X0005992D01*
Y0016843D01*
D02*
G37*
G36*
X0040750Y0016843D02*
X0038008D01*
Y0014780D01*
X0040750D01*
Y0016843D01*
D02*
G37*
G36*
X0028735Y0015430D02*
X0028497D01*
X0028276Y0015339D01*
X0028107Y0015170D01*
X0028016Y0014949D01*
Y0014711D01*
X0028107Y0014490D01*
X0028276Y0014321D01*
X0028338Y0014296D01*
Y0012661D01*
X0028234Y0012557D01*
X0028142Y0012337D01*
Y0012098D01*
X0028234Y0011877D01*
X0028402Y0011709D01*
X0028623Y0011617D01*
X0028862D01*
X0029082Y0011709D01*
X0029251Y0011877D01*
X0029342Y0012098D01*
Y0012337D01*
X0029251Y0012557D01*
X0029147Y0012661D01*
Y0014543D01*
X0029216Y0014711D01*
Y0014949D01*
X0029125Y0015170D01*
X0028956Y0015339D01*
X0028735Y0015430D01*
D02*
G37*
G36*
X0009110Y0013950D02*
X0006710D01*
Y0011550D01*
X0009110D01*
Y0013950D01*
D02*
G37*
G36*
X0008160Y0011385D02*
Y0010460D01*
X0009085D01*
X0009028Y0010673D01*
X0008870Y0010947D01*
X0008647Y0011170D01*
X0008373Y0011328D01*
X0008160Y0011385D01*
D02*
G37*
G36*
X0007660D02*
X0007447Y0011328D01*
X0007173Y0011170D01*
X0006950Y0010947D01*
X0006792Y0010673D01*
X0006735Y0010460D01*
X0007660D01*
Y0011385D01*
D02*
G37*
G36*
X0037300Y0012770D02*
X0034900D01*
Y0010370D01*
X0037300D01*
Y0012770D01*
D02*
G37*
G36*
X0036350Y0010205D02*
Y0009280D01*
X0037275D01*
X0037218Y0009493D01*
X0037060Y0009767D01*
X0036837Y0009990D01*
X0036563Y0010148D01*
X0036350Y0010205D01*
D02*
G37*
G36*
X0035850D02*
X0035637Y0010148D01*
X0035363Y0009990D01*
X0035140Y0009767D01*
X0034982Y0009493D01*
X0034925Y0009280D01*
X0035850D01*
Y0010205D01*
D02*
G37*
G36*
X0009085Y0009960D02*
X0008160D01*
Y0009035D01*
X0008373Y0009092D01*
X0008647Y0009250D01*
X0008870Y0009473D01*
X0009028Y0009747D01*
X0009085Y0009960D01*
D02*
G37*
G36*
X0007660D02*
X0006735D01*
X0006792Y0009747D01*
X0006950Y0009473D01*
X0007173Y0009250D01*
X0007447Y0009092D01*
X0007660Y0009035D01*
Y0009960D01*
D02*
G37*
G36*
X0005992Y0010720D02*
X0003250D01*
Y0008657D01*
X0005992D01*
Y0010720D01*
D02*
G37*
G36*
X0040750Y0010720D02*
X0038008D01*
Y0008657D01*
X0040750D01*
Y0010720D01*
D02*
G37*
G36*
X0017339Y0009325D02*
X0017101D01*
X0016880Y0009234D01*
X0016711Y0009065D01*
X0016620Y0008844D01*
Y0008606D01*
X0016711Y0008385D01*
X0016880Y0008216D01*
X0017101Y0008125D01*
X0017339D01*
X0017560Y0008216D01*
X0017729Y0008385D01*
X0017820Y0008606D01*
Y0008844D01*
X0017729Y0009065D01*
X0017560Y0009234D01*
X0017339Y0009325D01*
D02*
G37*
G36*
X0012929Y0009315D02*
X0012691D01*
X0012470Y0009224D01*
X0012301Y0009055D01*
X0012210Y0008834D01*
Y0008596D01*
X0012301Y0008375D01*
X0012470Y0008206D01*
X0012691Y0008115D01*
X0012929D01*
X0013150Y0008206D01*
X0013319Y0008375D01*
X0013410Y0008596D01*
Y0008834D01*
X0013319Y0009055D01*
X0013150Y0009224D01*
X0012929Y0009315D01*
D02*
G37*
G36*
X0010729D02*
X0010491D01*
X0010270Y0009224D01*
X0010101Y0009055D01*
X0010010Y0008834D01*
Y0008596D01*
X0010101Y0008375D01*
X0010270Y0008206D01*
X0010491Y0008115D01*
X0010729D01*
X0010950Y0008206D01*
X0011119Y0008375D01*
X0011210Y0008596D01*
Y0008834D01*
X0011119Y0009055D01*
X0010950Y0009224D01*
X0010729Y0009315D01*
D02*
G37*
G36*
X0037275Y0008780D02*
X0036350D01*
Y0007855D01*
X0036563Y0007912D01*
X0036837Y0008070D01*
X0037060Y0008293D01*
X0037218Y0008567D01*
X0037275Y0008780D01*
D02*
G37*
G36*
X0035850D02*
X0034925D01*
X0034982Y0008567D01*
X0035140Y0008293D01*
X0035363Y0008070D01*
X0035637Y0007912D01*
X0035850Y0007855D01*
Y0008780D01*
D02*
G37*
G36*
X0005992Y0008157D02*
X0003250D01*
Y0006094D01*
X0005992D01*
Y0008157D01*
D02*
G37*
G36*
X0040750Y0008157D02*
X0038008D01*
Y0006094D01*
X0040750D01*
Y0008157D01*
D02*
G37*
%LPD*%
D22*
X0041000Y0017093D02*
D03*
Y0008407D02*
D03*
X0041000Y0033693D02*
D03*
Y0025007D02*
D03*
X0003000Y0008407D02*
D03*
Y0017093D02*
D03*
Y0025007D02*
D03*
Y0033693D02*
D03*
D47*
X0028742Y0012217D02*
Y0014594D01*
X0028616Y0014720D02*
X0028742Y0014594D01*
X0028616Y0014720D02*
Y0014830D01*
X0028700Y0028000D02*
Y0030690D01*
X0028490Y0030900D02*
X0028700Y0030690D01*
D49*
X0012823Y0032123D02*
X0014590Y0033890D01*
X0017820Y0035100D02*
X0026500D01*
X0014590Y0033890D02*
X0016610D01*
X0017820Y0035100D01*
X0012831Y0015504D02*
X0015807Y0018480D01*
X0026507D01*
D51*
X0019420Y0016795D02*
D03*
X0023400Y0033400D02*
D03*
X0019410Y0033390D02*
D03*
X0029600Y0046900D02*
D03*
X0022000Y0046575D02*
D03*
D52*
X0035780Y0027950D02*
D03*
X0002400Y0041870D02*
D03*
X0007910Y0012750D02*
D03*
X0007900Y0029350D02*
D03*
X0036100Y0011570D02*
D03*
D53*
X0035780Y0025410D02*
D03*
X0002400Y0039330D02*
D03*
X0007910Y0010210D02*
D03*
X0007900Y0026810D02*
D03*
X0036100Y0009030D02*
D03*
D54*
X0041150Y0047150D02*
D03*
Y0002850D02*
D03*
X0002850D02*
D03*
Y0047150D02*
D03*
D55*
X0041000Y0022000D02*
D03*
Y0014000D02*
D03*
X0035000Y0034000D02*
D03*
X0037000Y0030000D02*
D03*
Y0022000D02*
D03*
X0035000Y0018000D02*
D03*
X0037000Y0014000D02*
D03*
Y0006000D02*
D03*
X0035000Y0002000D02*
D03*
X0031000Y0034000D02*
D03*
Y0026000D02*
D03*
X0033000Y0022000D02*
D03*
X0031000Y0018000D02*
D03*
X0033000Y0006000D02*
D03*
X0031000Y0002000D02*
D03*
X0027000Y0042000D02*
D03*
Y0026000D02*
D03*
X0029000Y0022000D02*
D03*
X0027000Y0010000D02*
D03*
X0029000Y0006000D02*
D03*
X0027000Y0002000D02*
D03*
X0023000Y0042000D02*
D03*
Y0026000D02*
D03*
X0025000Y0022000D02*
D03*
Y0006000D02*
D03*
X0023000Y0002000D02*
D03*
X0021000Y0038000D02*
D03*
Y0022000D02*
D03*
Y0006000D02*
D03*
X0019000Y0002000D02*
D03*
X0017000Y0046000D02*
D03*
X0015000Y0042000D02*
D03*
X0017000Y0038000D02*
D03*
X0015000Y0026000D02*
D03*
X0017000Y0022000D02*
D03*
X0015000Y0010000D02*
D03*
X0017000Y0006000D02*
D03*
X0015000Y0002000D02*
D03*
X0011000Y0034000D02*
D03*
X0013000Y0022000D02*
D03*
X0011000Y0018000D02*
D03*
X0013000Y0006000D02*
D03*
X0011000Y0002000D02*
D03*
X0009000Y0046000D02*
D03*
Y0038000D02*
D03*
X0007000Y0034000D02*
D03*
X0009000Y0022000D02*
D03*
X0007000Y0018000D02*
D03*
X0009000Y0006000D02*
D03*
X0007000Y0002000D02*
D03*
X0005000Y0038000D02*
D03*
Y0022000D02*
D03*
Y0014000D02*
D03*
X0028490Y0030900D02*
D03*
X0028742Y0012217D02*
D03*
X0028844Y0011464D02*
D03*
X0028616Y0014830D02*
D03*
X0028700Y0028000D02*
D03*
X0028800Y0027100D02*
D03*
X0022823Y0012193D02*
D03*
X0035010Y0030240D02*
D03*
X0023319Y0027781D02*
D03*
X0036650Y0037800D02*
D03*
X0032915Y0039840D02*
D03*
X0013400Y0035275D02*
D03*
Y0039225D02*
D03*
X0026650Y0046200D02*
D03*
X0007600Y0040375D02*
D03*
X0005400D02*
D03*
X0019600Y0042050D02*
D03*
X0035020Y0016645D02*
D03*
X0035010Y0033060D02*
D03*
X0026507Y0018480D02*
D03*
X0012807Y0015480D02*
D03*
X0012800Y0032100D02*
D03*
X0026500Y0035100D02*
D03*
X0010610Y0008715D02*
D03*
X0012810D02*
D03*
X0017220Y0008725D02*
D03*
X0017210Y0025240D02*
D03*
X0012801Y0025353D02*
D03*
X0010601D02*
D03*
X0015022Y0014627D02*
D03*
X0017222D02*
D03*
X0041000Y0006394D02*
D03*
X0038440Y0008560D02*
D03*
X0041000Y0010420D02*
D03*
X0038308Y0017093D02*
D03*
X0041000Y0015080D02*
D03*
Y0019106D02*
D03*
X0038308Y0033693D02*
D03*
X0041000Y0035706D02*
D03*
Y0031680D02*
D03*
X0038308Y0025007D02*
D03*
X0041000Y0027020D02*
D03*
Y0022994D02*
D03*
X0035018Y0013823D02*
D03*
X0030618Y0016147D02*
D03*
X0021618Y0008722D02*
D03*
X0017218Y0011023D02*
D03*
X0005690Y0008404D02*
D03*
X0002997Y0006391D02*
D03*
Y0010417D02*
D03*
X0005690Y0017091D02*
D03*
X0002997Y0019104D02*
D03*
Y0015078D02*
D03*
Y0035704D02*
D03*
X0005690Y0033691D02*
D03*
X0002997Y0031678D02*
D03*
Y0027017D02*
D03*
X0005690Y0025004D02*
D03*
X0002997Y0022991D02*
D03*
X0015013Y0031247D02*
D03*
X0017213D02*
D03*
X0021608Y0025263D02*
D03*
X0017208Y0027538D02*
D03*
X0030608Y0032513D02*
D03*
M02*
