G04*
G04 #@! TF.GenerationSoftware,Altium Limited,Altium Designer,22.6.1 (34)*
G04*
G04 Layer_Physical_Order=3*
G04 Layer_Color=128*
%FSAX43Y43*%
%MOMM*%
G71*
G04*
G04 #@! TF.SameCoordinates,DFD1A6D8-6486-425C-A6BB-C63D1257436E*
G04*
G04*
G04 #@! TF.FilePolarity,Negative*
G04*
G01*
G75*
%ADD14C,0.300*%
%ADD56C,1.016*%
%ADD57C,1.300*%
%ADD58C,1.600*%
%ADD60C,3.600*%
%ADD61C,0.900*%
G04:AMPARAMS|DCode=62|XSize=1.7mm|YSize=1.7mm|CornerRadius=0mm|HoleSize=0mm|Usage=FLASHONLY|Rotation=0.000|XOffset=0mm|YOffset=0mm|HoleType=Round|Shape=Relief|Width=0.5mm|Gap=0.3mm|Entries=4|*
%AMTHD62*
7,0,0,1.700,1.100,0.500,45*
%
%ADD62THD62*%
D14*
X0025500Y0000000D02*
Y0050000D01*
D56*
X0000000Y0050000D02*
X0044000Y0050000D01*
Y0000000D02*
Y0050000D01*
X0000000Y0000000D02*
X0044000D01*
X0000000D02*
Y0050000D01*
D57*
X0019420Y0016795D02*
D03*
X0019410Y0033390D02*
D03*
X0022000Y0046575D02*
D03*
D58*
X0035780Y0027950D02*
D03*
Y0025410D02*
D03*
X0002400Y0041870D02*
D03*
Y0039330D02*
D03*
X0007910Y0012750D02*
D03*
Y0010210D02*
D03*
X0007900Y0029350D02*
D03*
Y0026810D02*
D03*
X0036100Y0011570D02*
D03*
Y0009030D02*
D03*
D60*
X0041150Y0047150D02*
D03*
Y0002850D02*
D03*
X0002850D02*
D03*
Y0047150D02*
D03*
D61*
X0041000Y0022000D02*
D03*
Y0014000D02*
D03*
X0035000Y0034000D02*
D03*
X0037000Y0030000D02*
D03*
Y0022000D02*
D03*
X0035000Y0018000D02*
D03*
X0037000Y0014000D02*
D03*
Y0006000D02*
D03*
X0035000Y0002000D02*
D03*
X0031000Y0034000D02*
D03*
Y0026000D02*
D03*
X0033000Y0022000D02*
D03*
X0031000Y0018000D02*
D03*
X0033000Y0006000D02*
D03*
X0031000Y0002000D02*
D03*
X0027000Y0042000D02*
D03*
Y0026000D02*
D03*
X0029000Y0022000D02*
D03*
X0027000Y0010000D02*
D03*
X0029000Y0006000D02*
D03*
X0027000Y0002000D02*
D03*
X0023000Y0042000D02*
D03*
Y0026000D02*
D03*
X0025000Y0022000D02*
D03*
Y0006000D02*
D03*
X0023000Y0002000D02*
D03*
X0021000Y0038000D02*
D03*
Y0022000D02*
D03*
Y0006000D02*
D03*
X0019000Y0002000D02*
D03*
X0017000Y0046000D02*
D03*
X0015000Y0042000D02*
D03*
X0017000Y0038000D02*
D03*
X0015000Y0026000D02*
D03*
X0017000Y0022000D02*
D03*
X0015000Y0010000D02*
D03*
X0017000Y0006000D02*
D03*
X0015000Y0002000D02*
D03*
X0011000Y0034000D02*
D03*
X0013000Y0022000D02*
D03*
X0011000Y0018000D02*
D03*
X0013000Y0006000D02*
D03*
X0011000Y0002000D02*
D03*
X0009000Y0046000D02*
D03*
Y0038000D02*
D03*
X0007000Y0034000D02*
D03*
X0009000Y0022000D02*
D03*
X0007000Y0018000D02*
D03*
X0009000Y0006000D02*
D03*
X0007000Y0002000D02*
D03*
X0005000Y0038000D02*
D03*
Y0022000D02*
D03*
Y0014000D02*
D03*
X0028490Y0030900D02*
D03*
X0028742Y0012217D02*
D03*
X0028844Y0011464D02*
D03*
X0028616Y0014830D02*
D03*
X0028700Y0028000D02*
D03*
X0028800Y0027100D02*
D03*
X0022823Y0012193D02*
D03*
X0035010Y0030240D02*
D03*
X0023319Y0027781D02*
D03*
X0036650Y0037800D02*
D03*
X0032915Y0039840D02*
D03*
X0013400Y0035275D02*
D03*
Y0039225D02*
D03*
X0026650Y0046200D02*
D03*
X0007600Y0040375D02*
D03*
X0005400D02*
D03*
X0019600Y0042050D02*
D03*
X0012807Y0015480D02*
D03*
X0012800Y0032100D02*
D03*
X0015022Y0014627D02*
D03*
X0017222D02*
D03*
X0041000Y0006394D02*
D03*
X0038440Y0008560D02*
D03*
X0041000Y0010420D02*
D03*
X0038308Y0017093D02*
D03*
X0041000Y0015080D02*
D03*
Y0019106D02*
D03*
X0038308Y0033693D02*
D03*
X0041000Y0035706D02*
D03*
Y0031680D02*
D03*
X0038308Y0025007D02*
D03*
X0041000Y0027020D02*
D03*
Y0022994D02*
D03*
X0035018Y0013823D02*
D03*
X0030618Y0016147D02*
D03*
X0021618Y0008722D02*
D03*
X0017218Y0011023D02*
D03*
X0005690Y0008404D02*
D03*
X0002997Y0006391D02*
D03*
Y0010417D02*
D03*
X0005690Y0017091D02*
D03*
X0002997Y0019104D02*
D03*
Y0015078D02*
D03*
Y0035704D02*
D03*
X0005690Y0033691D02*
D03*
X0002997Y0031678D02*
D03*
Y0027017D02*
D03*
X0005690Y0025004D02*
D03*
X0002997Y0022991D02*
D03*
X0015013Y0031247D02*
D03*
X0017213D02*
D03*
X0021608Y0025263D02*
D03*
X0017208Y0027538D02*
D03*
X0030608Y0032513D02*
D03*
D62*
X0023400Y0033400D02*
D03*
X0029600Y0046900D02*
D03*
M02*
