G04*
G04 #@! TF.GenerationSoftware,Altium Limited,Altium Designer,22.6.1 (34)*
G04*
G04 Layer_Color=8421504*
%FSAX43Y43*%
%MOMM*%
G71*
G04*
G04 #@! TF.SameCoordinates,DFD1A6D8-6486-425C-A6BB-C63D1257436E*
G04*
G04*
G04 #@! TF.FilePolarity,Positive*
G04*
G01*
G75*
%ADD15R,1.200X0.600*%
%ADD16R,1.750X2.480*%
%ADD17R,0.800X0.300*%
%ADD18R,0.850X1.200*%
%ADD19R,0.800X0.850*%
%ADD20R,1.250X1.000*%
%ADD21R,0.850X0.800*%
%ADD22R,5.385X4.026*%
%ADD23R,5.385X0.762*%
%ADD24R,1.600X3.950*%
%ADD25R,0.900X1.900*%
%ADD26R,3.200X1.900*%
%ADD27R,0.700X0.500*%
D15*
X0034480Y0042160D02*
D03*
Y0043110D02*
D03*
Y0044060D02*
D03*
X0031980D02*
D03*
Y0042160D02*
D03*
D16*
X0026120Y0012475D02*
D03*
X0026110Y0028040D02*
D03*
D17*
X0027620Y0013475D02*
D03*
Y0012975D02*
D03*
Y0012475D02*
D03*
Y0011975D02*
D03*
Y0011475D02*
D03*
X0024620D02*
D03*
Y0011975D02*
D03*
Y0012475D02*
D03*
Y0012975D02*
D03*
Y0013475D02*
D03*
X0027610Y0029040D02*
D03*
Y0028540D02*
D03*
Y0028040D02*
D03*
Y0027540D02*
D03*
Y0027040D02*
D03*
X0024610D02*
D03*
Y0027540D02*
D03*
Y0028040D02*
D03*
Y0028540D02*
D03*
Y0029040D02*
D03*
D18*
X0037675Y0042424D02*
D03*
X0040675D02*
D03*
D19*
X0036480Y0046015D02*
D03*
Y0047465D02*
D03*
X0034270D02*
D03*
Y0046015D02*
D03*
X0035020Y0015700D02*
D03*
Y0014250D02*
D03*
X0032820Y0015700D02*
D03*
Y0014250D02*
D03*
X0030620Y0014275D02*
D03*
Y0015725D02*
D03*
X0012810Y0009140D02*
D03*
Y0010590D02*
D03*
X0010610D02*
D03*
Y0009140D02*
D03*
X0021620Y0012750D02*
D03*
Y0014200D02*
D03*
X0019420Y0014200D02*
D03*
Y0012750D02*
D03*
X0017220Y0014200D02*
D03*
Y0012750D02*
D03*
X0015020D02*
D03*
Y0014200D02*
D03*
X0012810Y0012750D02*
D03*
Y0014200D02*
D03*
X0010610D02*
D03*
Y0012750D02*
D03*
X0035010Y0032115D02*
D03*
Y0030665D02*
D03*
X0032810Y0032115D02*
D03*
Y0030665D02*
D03*
X0030610Y0030640D02*
D03*
Y0032090D02*
D03*
X0019410Y0029365D02*
D03*
Y0030815D02*
D03*
X0012801Y0025778D02*
D03*
Y0027228D02*
D03*
X0010601D02*
D03*
Y0025778D02*
D03*
X0021610Y0030815D02*
D03*
Y0029365D02*
D03*
X0017210Y0029370D02*
D03*
Y0030820D02*
D03*
X0015010D02*
D03*
Y0029370D02*
D03*
X0012803D02*
D03*
Y0030820D02*
D03*
X0010603D02*
D03*
Y0029370D02*
D03*
X0029590Y0043650D02*
D03*
Y0042200D02*
D03*
X0019600Y0043925D02*
D03*
Y0042475D02*
D03*
X0032860Y0028490D02*
D03*
Y0027040D02*
D03*
X0030660Y0027065D02*
D03*
Y0028515D02*
D03*
X0032820Y0012100D02*
D03*
Y0010650D02*
D03*
X0030620D02*
D03*
Y0012100D02*
D03*
X0017220Y0009150D02*
D03*
Y0010600D02*
D03*
X0019420Y0009150D02*
D03*
Y0010600D02*
D03*
X0021620D02*
D03*
Y0009150D02*
D03*
X0021610Y0027140D02*
D03*
Y0025690D02*
D03*
X0019410Y0025665D02*
D03*
Y0027115D02*
D03*
X0017210Y0025665D02*
D03*
Y0027115D02*
D03*
D20*
X0040580Y0039990D02*
D03*
Y0037990D02*
D03*
X0035010D02*
D03*
Y0039990D02*
D03*
D21*
X0031465Y0040240D02*
D03*
X0032915D02*
D03*
X0038525Y0037800D02*
D03*
X0037075D02*
D03*
X0024775Y0046200D02*
D03*
X0026225D02*
D03*
X0037070Y0039990D02*
D03*
X0038520D02*
D03*
X0031375Y0035700D02*
D03*
X0032825D02*
D03*
X0026825Y0015500D02*
D03*
X0025375D02*
D03*
X0026925Y0031100D02*
D03*
X0025475D02*
D03*
D22*
X0041000Y0017093D02*
D03*
Y0008407D02*
D03*
X0041000Y0033693D02*
D03*
Y0025007D02*
D03*
X0003000Y0008407D02*
D03*
Y0017093D02*
D03*
Y0025007D02*
D03*
Y0033693D02*
D03*
D23*
X0041000Y0012750D02*
D03*
X0041000Y0029350D02*
D03*
X0003000Y0012750D02*
D03*
Y0029350D02*
D03*
D24*
X0013400Y0043950D02*
D03*
Y0037250D02*
D03*
D25*
X0026600Y0043875D02*
D03*
X0022000D02*
D03*
X0024300D02*
D03*
D26*
Y0037925D02*
D03*
D27*
X0007600Y0040625D02*
D03*
Y0041375D02*
D03*
X0005400Y0040625D02*
D03*
Y0041375D02*
D03*
M02*
