G04*
G04 #@! TF.GenerationSoftware,Altium Limited,Altium Designer,22.6.1 (34)*
G04*
G04 Layer_Color=2752767*
%FSAX43Y43*%
%MOMM*%
G71*
G04*
G04 #@! TF.SameCoordinates,DFD1A6D8-6486-425C-A6BB-C63D1257436E*
G04*
G04*
G04 #@! TF.FilePolarity,Positive*
G04*
G01*
G75*
%ADD65C,0.051*%
%ADD66C,0.068*%
D65*
X0019217Y0016592D02*
Y0016998D01*
X0019623D01*
Y0016592D01*
X0019217D01*
X0023197Y0033197D02*
Y0033603D01*
X0023603D01*
Y0033197D01*
X0023197D01*
X0019207Y0033187D02*
Y0033593D01*
X0019613D01*
Y0033187D01*
X0019207D01*
X0029397Y0046697D02*
Y0047103D01*
X0029803D01*
Y0046697D01*
X0029397D01*
X0021797Y0046372D02*
Y0046778D01*
X0022203D01*
Y0046372D01*
X0021797D01*
X0041150Y0046947D02*
X0040947Y0047353D01*
X0041353D01*
X0041150Y0046947D01*
Y0002647D02*
X0040947Y0003053D01*
X0041353D01*
X0041150Y0002647D01*
X0002850D02*
X0002647Y0003053D01*
X0003053D01*
X0002850Y0002647D01*
Y0046947D02*
X0002647Y0047353D01*
X0003053D01*
X0002850Y0046947D01*
X0041000Y0021797D02*
X0041102Y0021898D01*
X0041203D01*
X0041102Y0022000D01*
X0041203Y0022102D01*
X0041102D01*
X0041000Y0022203D01*
X0040898Y0022102D01*
X0040797D01*
X0040898Y0022000D01*
X0040797Y0021898D01*
X0040898D01*
X0041000Y0021797D01*
Y0013797D02*
X0041102Y0013898D01*
X0041203D01*
X0041102Y0014000D01*
X0041203Y0014102D01*
X0041102D01*
X0041000Y0014203D01*
X0040898Y0014102D01*
X0040797D01*
X0040898Y0014000D01*
X0040797Y0013898D01*
X0040898D01*
X0041000Y0013797D01*
X0035000Y0033797D02*
X0035102Y0033898D01*
X0035203D01*
X0035102Y0034000D01*
X0035203Y0034102D01*
X0035102D01*
X0035000Y0034203D01*
X0034898Y0034102D01*
X0034797D01*
X0034898Y0034000D01*
X0034797Y0033898D01*
X0034898D01*
X0035000Y0033797D01*
X0037000Y0029797D02*
X0037102Y0029898D01*
X0037203D01*
X0037102Y0030000D01*
X0037203Y0030102D01*
X0037102D01*
X0037000Y0030203D01*
X0036898Y0030102D01*
X0036797D01*
X0036898Y0030000D01*
X0036797Y0029898D01*
X0036898D01*
X0037000Y0029797D01*
Y0021797D02*
X0037102Y0021898D01*
X0037203D01*
X0037102Y0022000D01*
X0037203Y0022102D01*
X0037102D01*
X0037000Y0022203D01*
X0036898Y0022102D01*
X0036797D01*
X0036898Y0022000D01*
X0036797Y0021898D01*
X0036898D01*
X0037000Y0021797D01*
X0035000Y0017797D02*
X0035102Y0017898D01*
X0035203D01*
X0035102Y0018000D01*
X0035203Y0018102D01*
X0035102D01*
X0035000Y0018203D01*
X0034898Y0018102D01*
X0034797D01*
X0034898Y0018000D01*
X0034797Y0017898D01*
X0034898D01*
X0035000Y0017797D01*
X0037000Y0013797D02*
X0037102Y0013898D01*
X0037203D01*
X0037102Y0014000D01*
X0037203Y0014102D01*
X0037102D01*
X0037000Y0014203D01*
X0036898Y0014102D01*
X0036797D01*
X0036898Y0014000D01*
X0036797Y0013898D01*
X0036898D01*
X0037000Y0013797D01*
Y0005797D02*
X0037102Y0005898D01*
X0037203D01*
X0037102Y0006000D01*
X0037203Y0006102D01*
X0037102D01*
X0037000Y0006203D01*
X0036898Y0006102D01*
X0036797D01*
X0036898Y0006000D01*
X0036797Y0005898D01*
X0036898D01*
X0037000Y0005797D01*
X0035000Y0001797D02*
X0035102Y0001898D01*
X0035203D01*
X0035102Y0002000D01*
X0035203Y0002102D01*
X0035102D01*
X0035000Y0002203D01*
X0034898Y0002102D01*
X0034797D01*
X0034898Y0002000D01*
X0034797Y0001898D01*
X0034898D01*
X0035000Y0001797D01*
X0031000Y0033797D02*
X0031102Y0033898D01*
X0031203D01*
X0031102Y0034000D01*
X0031203Y0034102D01*
X0031102D01*
X0031000Y0034203D01*
X0030898Y0034102D01*
X0030797D01*
X0030898Y0034000D01*
X0030797Y0033898D01*
X0030898D01*
X0031000Y0033797D01*
Y0025797D02*
X0031102Y0025898D01*
X0031203D01*
X0031102Y0026000D01*
X0031203Y0026102D01*
X0031102D01*
X0031000Y0026203D01*
X0030898Y0026102D01*
X0030797D01*
X0030898Y0026000D01*
X0030797Y0025898D01*
X0030898D01*
X0031000Y0025797D01*
X0033000Y0021797D02*
X0033102Y0021898D01*
X0033203D01*
X0033102Y0022000D01*
X0033203Y0022102D01*
X0033102D01*
X0033000Y0022203D01*
X0032898Y0022102D01*
X0032797D01*
X0032898Y0022000D01*
X0032797Y0021898D01*
X0032898D01*
X0033000Y0021797D01*
X0031000Y0017797D02*
X0031102Y0017898D01*
X0031203D01*
X0031102Y0018000D01*
X0031203Y0018102D01*
X0031102D01*
X0031000Y0018203D01*
X0030898Y0018102D01*
X0030797D01*
X0030898Y0018000D01*
X0030797Y0017898D01*
X0030898D01*
X0031000Y0017797D01*
X0033000Y0005797D02*
X0033102Y0005898D01*
X0033203D01*
X0033102Y0006000D01*
X0033203Y0006102D01*
X0033102D01*
X0033000Y0006203D01*
X0032898Y0006102D01*
X0032797D01*
X0032898Y0006000D01*
X0032797Y0005898D01*
X0032898D01*
X0033000Y0005797D01*
X0031000Y0001797D02*
X0031102Y0001898D01*
X0031203D01*
X0031102Y0002000D01*
X0031203Y0002102D01*
X0031102D01*
X0031000Y0002203D01*
X0030898Y0002102D01*
X0030797D01*
X0030898Y0002000D01*
X0030797Y0001898D01*
X0030898D01*
X0031000Y0001797D01*
X0027000Y0041797D02*
X0027102Y0041898D01*
X0027203D01*
X0027102Y0042000D01*
X0027203Y0042102D01*
X0027102D01*
X0027000Y0042203D01*
X0026898Y0042102D01*
X0026797D01*
X0026898Y0042000D01*
X0026797Y0041898D01*
X0026898D01*
X0027000Y0041797D01*
Y0025797D02*
X0027102Y0025898D01*
X0027203D01*
X0027102Y0026000D01*
X0027203Y0026102D01*
X0027102D01*
X0027000Y0026203D01*
X0026898Y0026102D01*
X0026797D01*
X0026898Y0026000D01*
X0026797Y0025898D01*
X0026898D01*
X0027000Y0025797D01*
X0029000Y0021797D02*
X0029102Y0021898D01*
X0029203D01*
X0029102Y0022000D01*
X0029203Y0022102D01*
X0029102D01*
X0029000Y0022203D01*
X0028898Y0022102D01*
X0028797D01*
X0028898Y0022000D01*
X0028797Y0021898D01*
X0028898D01*
X0029000Y0021797D01*
X0027000Y0009797D02*
X0027102Y0009898D01*
X0027203D01*
X0027102Y0010000D01*
X0027203Y0010102D01*
X0027102D01*
X0027000Y0010203D01*
X0026898Y0010102D01*
X0026797D01*
X0026898Y0010000D01*
X0026797Y0009898D01*
X0026898D01*
X0027000Y0009797D01*
X0029000Y0005797D02*
X0029102Y0005898D01*
X0029203D01*
X0029102Y0006000D01*
X0029203Y0006102D01*
X0029102D01*
X0029000Y0006203D01*
X0028898Y0006102D01*
X0028797D01*
X0028898Y0006000D01*
X0028797Y0005898D01*
X0028898D01*
X0029000Y0005797D01*
X0027000Y0001797D02*
X0027102Y0001898D01*
X0027203D01*
X0027102Y0002000D01*
X0027203Y0002102D01*
X0027102D01*
X0027000Y0002203D01*
X0026898Y0002102D01*
X0026797D01*
X0026898Y0002000D01*
X0026797Y0001898D01*
X0026898D01*
X0027000Y0001797D01*
X0023000Y0041797D02*
X0023102Y0041898D01*
X0023203D01*
X0023102Y0042000D01*
X0023203Y0042102D01*
X0023102D01*
X0023000Y0042203D01*
X0022898Y0042102D01*
X0022797D01*
X0022898Y0042000D01*
X0022797Y0041898D01*
X0022898D01*
X0023000Y0041797D01*
Y0025797D02*
X0023102Y0025898D01*
X0023203D01*
X0023102Y0026000D01*
X0023203Y0026102D01*
X0023102D01*
X0023000Y0026203D01*
X0022898Y0026102D01*
X0022797D01*
X0022898Y0026000D01*
X0022797Y0025898D01*
X0022898D01*
X0023000Y0025797D01*
X0025000Y0021797D02*
X0025102Y0021898D01*
X0025203D01*
X0025102Y0022000D01*
X0025203Y0022102D01*
X0025102D01*
X0025000Y0022203D01*
X0024898Y0022102D01*
X0024797D01*
X0024898Y0022000D01*
X0024797Y0021898D01*
X0024898D01*
X0025000Y0021797D01*
Y0005797D02*
X0025102Y0005898D01*
X0025203D01*
X0025102Y0006000D01*
X0025203Y0006102D01*
X0025102D01*
X0025000Y0006203D01*
X0024898Y0006102D01*
X0024797D01*
X0024898Y0006000D01*
X0024797Y0005898D01*
X0024898D01*
X0025000Y0005797D01*
X0023000Y0001797D02*
X0023102Y0001898D01*
X0023203D01*
X0023102Y0002000D01*
X0023203Y0002102D01*
X0023102D01*
X0023000Y0002203D01*
X0022898Y0002102D01*
X0022797D01*
X0022898Y0002000D01*
X0022797Y0001898D01*
X0022898D01*
X0023000Y0001797D01*
X0021000Y0037797D02*
X0021102Y0037898D01*
X0021203D01*
X0021102Y0038000D01*
X0021203Y0038102D01*
X0021102D01*
X0021000Y0038203D01*
X0020898Y0038102D01*
X0020797D01*
X0020898Y0038000D01*
X0020797Y0037898D01*
X0020898D01*
X0021000Y0037797D01*
Y0021797D02*
X0021102Y0021898D01*
X0021203D01*
X0021102Y0022000D01*
X0021203Y0022102D01*
X0021102D01*
X0021000Y0022203D01*
X0020898Y0022102D01*
X0020797D01*
X0020898Y0022000D01*
X0020797Y0021898D01*
X0020898D01*
X0021000Y0021797D01*
Y0005797D02*
X0021102Y0005898D01*
X0021203D01*
X0021102Y0006000D01*
X0021203Y0006102D01*
X0021102D01*
X0021000Y0006203D01*
X0020898Y0006102D01*
X0020797D01*
X0020898Y0006000D01*
X0020797Y0005898D01*
X0020898D01*
X0021000Y0005797D01*
X0019000Y0001797D02*
X0019102Y0001898D01*
X0019203D01*
X0019102Y0002000D01*
X0019203Y0002102D01*
X0019102D01*
X0019000Y0002203D01*
X0018898Y0002102D01*
X0018797D01*
X0018898Y0002000D01*
X0018797Y0001898D01*
X0018898D01*
X0019000Y0001797D01*
X0017000Y0045797D02*
X0017102Y0045898D01*
X0017203D01*
X0017102Y0046000D01*
X0017203Y0046102D01*
X0017102D01*
X0017000Y0046203D01*
X0016898Y0046102D01*
X0016797D01*
X0016898Y0046000D01*
X0016797Y0045898D01*
X0016898D01*
X0017000Y0045797D01*
X0015000Y0041797D02*
X0015102Y0041898D01*
X0015203D01*
X0015102Y0042000D01*
X0015203Y0042102D01*
X0015102D01*
X0015000Y0042203D01*
X0014898Y0042102D01*
X0014797D01*
X0014898Y0042000D01*
X0014797Y0041898D01*
X0014898D01*
X0015000Y0041797D01*
X0017000Y0037797D02*
X0017102Y0037898D01*
X0017203D01*
X0017102Y0038000D01*
X0017203Y0038102D01*
X0017102D01*
X0017000Y0038203D01*
X0016898Y0038102D01*
X0016797D01*
X0016898Y0038000D01*
X0016797Y0037898D01*
X0016898D01*
X0017000Y0037797D01*
X0015000Y0025797D02*
X0015102Y0025898D01*
X0015203D01*
X0015102Y0026000D01*
X0015203Y0026102D01*
X0015102D01*
X0015000Y0026203D01*
X0014898Y0026102D01*
X0014797D01*
X0014898Y0026000D01*
X0014797Y0025898D01*
X0014898D01*
X0015000Y0025797D01*
X0017000Y0021797D02*
X0017102Y0021898D01*
X0017203D01*
X0017102Y0022000D01*
X0017203Y0022102D01*
X0017102D01*
X0017000Y0022203D01*
X0016898Y0022102D01*
X0016797D01*
X0016898Y0022000D01*
X0016797Y0021898D01*
X0016898D01*
X0017000Y0021797D01*
X0015000Y0009797D02*
X0015102Y0009898D01*
X0015203D01*
X0015102Y0010000D01*
X0015203Y0010102D01*
X0015102D01*
X0015000Y0010203D01*
X0014898Y0010102D01*
X0014797D01*
X0014898Y0010000D01*
X0014797Y0009898D01*
X0014898D01*
X0015000Y0009797D01*
X0017000Y0005797D02*
X0017102Y0005898D01*
X0017203D01*
X0017102Y0006000D01*
X0017203Y0006102D01*
X0017102D01*
X0017000Y0006203D01*
X0016898Y0006102D01*
X0016797D01*
X0016898Y0006000D01*
X0016797Y0005898D01*
X0016898D01*
X0017000Y0005797D01*
X0015000Y0001797D02*
X0015102Y0001898D01*
X0015203D01*
X0015102Y0002000D01*
X0015203Y0002102D01*
X0015102D01*
X0015000Y0002203D01*
X0014898Y0002102D01*
X0014797D01*
X0014898Y0002000D01*
X0014797Y0001898D01*
X0014898D01*
X0015000Y0001797D01*
X0011000Y0033797D02*
X0011102Y0033898D01*
X0011203D01*
X0011102Y0034000D01*
X0011203Y0034102D01*
X0011102D01*
X0011000Y0034203D01*
X0010898Y0034102D01*
X0010797D01*
X0010898Y0034000D01*
X0010797Y0033898D01*
X0010898D01*
X0011000Y0033797D01*
X0013000Y0021797D02*
X0013102Y0021898D01*
X0013203D01*
X0013102Y0022000D01*
X0013203Y0022102D01*
X0013102D01*
X0013000Y0022203D01*
X0012898Y0022102D01*
X0012797D01*
X0012898Y0022000D01*
X0012797Y0021898D01*
X0012898D01*
X0013000Y0021797D01*
X0011000Y0017797D02*
X0011102Y0017898D01*
X0011203D01*
X0011102Y0018000D01*
X0011203Y0018102D01*
X0011102D01*
X0011000Y0018203D01*
X0010898Y0018102D01*
X0010797D01*
X0010898Y0018000D01*
X0010797Y0017898D01*
X0010898D01*
X0011000Y0017797D01*
X0013000Y0005797D02*
X0013102Y0005898D01*
X0013203D01*
X0013102Y0006000D01*
X0013203Y0006102D01*
X0013102D01*
X0013000Y0006203D01*
X0012898Y0006102D01*
X0012797D01*
X0012898Y0006000D01*
X0012797Y0005898D01*
X0012898D01*
X0013000Y0005797D01*
X0011000Y0001797D02*
X0011102Y0001898D01*
X0011203D01*
X0011102Y0002000D01*
X0011203Y0002102D01*
X0011102D01*
X0011000Y0002203D01*
X0010898Y0002102D01*
X0010797D01*
X0010898Y0002000D01*
X0010797Y0001898D01*
X0010898D01*
X0011000Y0001797D01*
X0009000Y0045797D02*
X0009102Y0045898D01*
X0009203D01*
X0009102Y0046000D01*
X0009203Y0046102D01*
X0009102D01*
X0009000Y0046203D01*
X0008898Y0046102D01*
X0008797D01*
X0008898Y0046000D01*
X0008797Y0045898D01*
X0008898D01*
X0009000Y0045797D01*
Y0037797D02*
X0009102Y0037898D01*
X0009203D01*
X0009102Y0038000D01*
X0009203Y0038102D01*
X0009102D01*
X0009000Y0038203D01*
X0008898Y0038102D01*
X0008797D01*
X0008898Y0038000D01*
X0008797Y0037898D01*
X0008898D01*
X0009000Y0037797D01*
X0007000Y0033797D02*
X0007102Y0033898D01*
X0007203D01*
X0007102Y0034000D01*
X0007203Y0034102D01*
X0007102D01*
X0007000Y0034203D01*
X0006898Y0034102D01*
X0006797D01*
X0006898Y0034000D01*
X0006797Y0033898D01*
X0006898D01*
X0007000Y0033797D01*
X0009000Y0021797D02*
X0009102Y0021898D01*
X0009203D01*
X0009102Y0022000D01*
X0009203Y0022102D01*
X0009102D01*
X0009000Y0022203D01*
X0008898Y0022102D01*
X0008797D01*
X0008898Y0022000D01*
X0008797Y0021898D01*
X0008898D01*
X0009000Y0021797D01*
X0007000Y0017797D02*
X0007102Y0017898D01*
X0007203D01*
X0007102Y0018000D01*
X0007203Y0018102D01*
X0007102D01*
X0007000Y0018203D01*
X0006898Y0018102D01*
X0006797D01*
X0006898Y0018000D01*
X0006797Y0017898D01*
X0006898D01*
X0007000Y0017797D01*
X0009000Y0005797D02*
X0009102Y0005898D01*
X0009203D01*
X0009102Y0006000D01*
X0009203Y0006102D01*
X0009102D01*
X0009000Y0006203D01*
X0008898Y0006102D01*
X0008797D01*
X0008898Y0006000D01*
X0008797Y0005898D01*
X0008898D01*
X0009000Y0005797D01*
X0007000Y0001797D02*
X0007102Y0001898D01*
X0007203D01*
X0007102Y0002000D01*
X0007203Y0002102D01*
X0007102D01*
X0007000Y0002203D01*
X0006898Y0002102D01*
X0006797D01*
X0006898Y0002000D01*
X0006797Y0001898D01*
X0006898D01*
X0007000Y0001797D01*
X0005000Y0037797D02*
X0005102Y0037898D01*
X0005203D01*
X0005102Y0038000D01*
X0005203Y0038102D01*
X0005102D01*
X0005000Y0038203D01*
X0004898Y0038102D01*
X0004797D01*
X0004898Y0038000D01*
X0004797Y0037898D01*
X0004898D01*
X0005000Y0037797D01*
Y0021797D02*
X0005102Y0021898D01*
X0005203D01*
X0005102Y0022000D01*
X0005203Y0022102D01*
X0005102D01*
X0005000Y0022203D01*
X0004898Y0022102D01*
X0004797D01*
X0004898Y0022000D01*
X0004797Y0021898D01*
X0004898D01*
X0005000Y0021797D01*
Y0013797D02*
X0005102Y0013898D01*
X0005203D01*
X0005102Y0014000D01*
X0005203Y0014102D01*
X0005102D01*
X0005000Y0014203D01*
X0004898Y0014102D01*
X0004797D01*
X0004898Y0014000D01*
X0004797Y0013898D01*
X0004898D01*
X0005000Y0013797D01*
X0028490Y0030697D02*
X0028592Y0030798D01*
X0028693D01*
X0028592Y0030900D01*
X0028693Y0031002D01*
X0028592D01*
X0028490Y0031103D01*
X0028388Y0031002D01*
X0028287D01*
X0028388Y0030900D01*
X0028287Y0030798D01*
X0028388D01*
X0028490Y0030697D01*
X0028742Y0012014D02*
X0028844Y0012116D01*
X0028945D01*
X0028844Y0012217D01*
X0028945Y0012319D01*
X0028844D01*
X0028742Y0012420D01*
X0028641Y0012319D01*
X0028539D01*
X0028641Y0012217D01*
X0028539Y0012116D01*
X0028641D01*
X0028742Y0012014D01*
X0028844Y0011261D02*
X0028945Y0011362D01*
X0029047D01*
X0028945Y0011464D01*
X0029047Y0011566D01*
X0028945D01*
X0028844Y0011667D01*
X0028742Y0011566D01*
X0028641D01*
X0028742Y0011464D01*
X0028641Y0011362D01*
X0028742D01*
X0028844Y0011261D01*
X0028616Y0014627D02*
X0028718Y0014728D01*
X0028819D01*
X0028718Y0014830D01*
X0028819Y0014932D01*
X0028718D01*
X0028616Y0015033D01*
X0028514Y0014932D01*
X0028413D01*
X0028514Y0014830D01*
X0028413Y0014728D01*
X0028514D01*
X0028616Y0014627D01*
X0028700Y0027797D02*
X0028802Y0027898D01*
X0028903D01*
X0028802Y0028000D01*
X0028903Y0028102D01*
X0028802D01*
X0028700Y0028203D01*
X0028598Y0028102D01*
X0028497D01*
X0028598Y0028000D01*
X0028497Y0027898D01*
X0028598D01*
X0028700Y0027797D01*
X0028800Y0026897D02*
X0028902Y0026998D01*
X0029003D01*
X0028902Y0027100D01*
X0029003Y0027202D01*
X0028902D01*
X0028800Y0027303D01*
X0028698Y0027202D01*
X0028597D01*
X0028698Y0027100D01*
X0028597Y0026998D01*
X0028698D01*
X0028800Y0026897D01*
X0022823Y0011990D02*
X0022925Y0012091D01*
X0023026D01*
X0022925Y0012193D01*
X0023026Y0012295D01*
X0022925D01*
X0022823Y0012396D01*
X0022721Y0012295D01*
X0022620D01*
X0022721Y0012193D01*
X0022620Y0012091D01*
X0022721D01*
X0022823Y0011990D01*
X0035010Y0030037D02*
X0035112Y0030138D01*
X0035213D01*
X0035112Y0030240D01*
X0035213Y0030342D01*
X0035112D01*
X0035010Y0030443D01*
X0034908Y0030342D01*
X0034807D01*
X0034908Y0030240D01*
X0034807Y0030138D01*
X0034908D01*
X0035010Y0030037D01*
X0023319Y0027578D02*
X0023420Y0027680D01*
X0023522D01*
X0023420Y0027781D01*
X0023522Y0027883D01*
X0023420D01*
X0023319Y0027985D01*
X0023217Y0027883D01*
X0023115D01*
X0023217Y0027781D01*
X0023115Y0027680D01*
X0023217D01*
X0023319Y0027578D01*
X0036650Y0037597D02*
X0036752Y0037698D01*
X0036853D01*
X0036752Y0037800D01*
X0036853Y0037902D01*
X0036752D01*
X0036650Y0038003D01*
X0036548Y0037902D01*
X0036447D01*
X0036548Y0037800D01*
X0036447Y0037698D01*
X0036548D01*
X0036650Y0037597D01*
X0032915Y0039637D02*
X0033017Y0039738D01*
X0033118D01*
X0033017Y0039840D01*
X0033118Y0039942D01*
X0033017D01*
X0032915Y0040043D01*
X0032813Y0039942D01*
X0032712D01*
X0032813Y0039840D01*
X0032712Y0039738D01*
X0032813D01*
X0032915Y0039637D01*
X0013400Y0035072D02*
X0013502Y0035173D01*
X0013603D01*
X0013502Y0035275D01*
X0013603Y0035377D01*
X0013502D01*
X0013400Y0035478D01*
X0013298Y0035377D01*
X0013197D01*
X0013298Y0035275D01*
X0013197Y0035173D01*
X0013298D01*
X0013400Y0035072D01*
Y0039022D02*
X0013502Y0039123D01*
X0013603D01*
X0013502Y0039225D01*
X0013603Y0039327D01*
X0013502D01*
X0013400Y0039428D01*
X0013298Y0039327D01*
X0013197D01*
X0013298Y0039225D01*
X0013197Y0039123D01*
X0013298D01*
X0013400Y0039022D01*
X0026650Y0045997D02*
X0026752Y0046098D01*
X0026853D01*
X0026752Y0046200D01*
X0026853Y0046302D01*
X0026752D01*
X0026650Y0046403D01*
X0026548Y0046302D01*
X0026447D01*
X0026548Y0046200D01*
X0026447Y0046098D01*
X0026548D01*
X0026650Y0045997D01*
X0007600Y0040172D02*
X0007702Y0040273D01*
X0007803D01*
X0007702Y0040375D01*
X0007803Y0040477D01*
X0007702D01*
X0007600Y0040578D01*
X0007498Y0040477D01*
X0007397D01*
X0007498Y0040375D01*
X0007397Y0040273D01*
X0007498D01*
X0007600Y0040172D01*
X0005400D02*
X0005502Y0040273D01*
X0005603D01*
X0005502Y0040375D01*
X0005603Y0040477D01*
X0005502D01*
X0005400Y0040578D01*
X0005298Y0040477D01*
X0005197D01*
X0005298Y0040375D01*
X0005197Y0040273D01*
X0005298D01*
X0005400Y0040172D01*
X0019600Y0041847D02*
X0019702Y0041948D01*
X0019803D01*
X0019702Y0042050D01*
X0019803Y0042152D01*
X0019702D01*
X0019600Y0042253D01*
X0019498Y0042152D01*
X0019397D01*
X0019498Y0042050D01*
X0019397Y0041948D01*
X0019498D01*
X0019600Y0041847D01*
X0035020Y0016442D02*
X0035122Y0016543D01*
X0035223D01*
X0035122Y0016645D01*
X0035223Y0016747D01*
X0035122D01*
X0035020Y0016848D01*
X0034918Y0016747D01*
X0034817D01*
X0034918Y0016645D01*
X0034817Y0016543D01*
X0034918D01*
X0035020Y0016442D01*
X0035010Y0032857D02*
X0035112Y0032958D01*
X0035213D01*
X0035112Y0033060D01*
X0035213Y0033162D01*
X0035112D01*
X0035010Y0033263D01*
X0034908Y0033162D01*
X0034807D01*
X0034908Y0033060D01*
X0034807Y0032958D01*
X0034908D01*
X0035010Y0032857D01*
X0026507Y0018277D02*
X0026609Y0018379D01*
X0026710D01*
X0026609Y0018480D01*
X0026710Y0018582D01*
X0026609D01*
X0026507Y0018684D01*
X0026406Y0018582D01*
X0026304D01*
X0026406Y0018480D01*
X0026304Y0018379D01*
X0026406D01*
X0026507Y0018277D01*
X0012807Y0015277D02*
X0012909Y0015379D01*
X0013010D01*
X0012909Y0015480D01*
X0013010Y0015582D01*
X0012909D01*
X0012807Y0015684D01*
X0012706Y0015582D01*
X0012604D01*
X0012706Y0015480D01*
X0012604Y0015379D01*
X0012706D01*
X0012807Y0015277D01*
X0012800Y0031897D02*
X0012902Y0031998D01*
X0013003D01*
X0012902Y0032100D01*
X0013003Y0032202D01*
X0012902D01*
X0012800Y0032303D01*
X0012698Y0032202D01*
X0012597D01*
X0012698Y0032100D01*
X0012597Y0031998D01*
X0012698D01*
X0012800Y0031897D01*
X0026500Y0034897D02*
X0026602Y0034998D01*
X0026703D01*
X0026602Y0035100D01*
X0026703Y0035202D01*
X0026602D01*
X0026500Y0035303D01*
X0026398Y0035202D01*
X0026297D01*
X0026398Y0035100D01*
X0026297Y0034998D01*
X0026398D01*
X0026500Y0034897D01*
X0010610Y0008512D02*
X0010712Y0008613D01*
X0010813D01*
X0010712Y0008715D01*
X0010813Y0008817D01*
X0010712D01*
X0010610Y0008918D01*
X0010508Y0008817D01*
X0010407D01*
X0010508Y0008715D01*
X0010407Y0008613D01*
X0010508D01*
X0010610Y0008512D01*
X0012810D02*
X0012912Y0008613D01*
X0013013D01*
X0012912Y0008715D01*
X0013013Y0008817D01*
X0012912D01*
X0012810Y0008918D01*
X0012708Y0008817D01*
X0012607D01*
X0012708Y0008715D01*
X0012607Y0008613D01*
X0012708D01*
X0012810Y0008512D01*
X0017220Y0008522D02*
X0017322Y0008623D01*
X0017423D01*
X0017322Y0008725D01*
X0017423Y0008827D01*
X0017322D01*
X0017220Y0008928D01*
X0017118Y0008827D01*
X0017017D01*
X0017118Y0008725D01*
X0017017Y0008623D01*
X0017118D01*
X0017220Y0008522D01*
X0017210Y0025037D02*
X0017312Y0025138D01*
X0017413D01*
X0017312Y0025240D01*
X0017413Y0025342D01*
X0017312D01*
X0017210Y0025443D01*
X0017108Y0025342D01*
X0017007D01*
X0017108Y0025240D01*
X0017007Y0025138D01*
X0017108D01*
X0017210Y0025037D01*
X0012801Y0025150D02*
X0012903Y0025252D01*
X0013005D01*
X0012903Y0025353D01*
X0013005Y0025455D01*
X0012903D01*
X0012801Y0025556D01*
X0012700Y0025455D01*
X0012598D01*
X0012700Y0025353D01*
X0012598Y0025252D01*
X0012700D01*
X0012801Y0025150D01*
X0010601D02*
X0010703Y0025252D01*
X0010805D01*
X0010703Y0025353D01*
X0010805Y0025455D01*
X0010703D01*
X0010601Y0025556D01*
X0010500Y0025455D01*
X0010398D01*
X0010500Y0025353D01*
X0010398Y0025252D01*
X0010500D01*
X0010601Y0025150D01*
X0015022Y0014424D02*
X0015124Y0014526D01*
X0015226D01*
X0015124Y0014627D01*
X0015226Y0014729D01*
X0015124D01*
X0015022Y0014831D01*
X0014921Y0014729D01*
X0014819D01*
X0014921Y0014627D01*
X0014819Y0014526D01*
X0014921D01*
X0015022Y0014424D01*
X0017222D02*
X0017324Y0014526D01*
X0017426D01*
X0017324Y0014627D01*
X0017426Y0014729D01*
X0017324D01*
X0017222Y0014831D01*
X0017121Y0014729D01*
X0017019D01*
X0017121Y0014627D01*
X0017019Y0014526D01*
X0017121D01*
X0017222Y0014424D01*
X0041000Y0006190D02*
X0041102Y0006292D01*
X0041203D01*
X0041102Y0006394D01*
X0041203Y0006495D01*
X0041102D01*
X0041000Y0006597D01*
X0040898Y0006495D01*
X0040797D01*
X0040898Y0006394D01*
X0040797Y0006292D01*
X0040898D01*
X0041000Y0006190D01*
X0038440Y0008357D02*
X0038542Y0008458D01*
X0038643D01*
X0038542Y0008560D01*
X0038643Y0008662D01*
X0038542D01*
X0038440Y0008763D01*
X0038338Y0008662D01*
X0038237D01*
X0038338Y0008560D01*
X0038237Y0008458D01*
X0038338D01*
X0038440Y0008357D01*
X0041000Y0010216D02*
X0041102Y0010318D01*
X0041203D01*
X0041102Y0010420D01*
X0041203Y0010521D01*
X0041102D01*
X0041000Y0010623D01*
X0040898Y0010521D01*
X0040797D01*
X0040898Y0010420D01*
X0040797Y0010318D01*
X0040898D01*
X0041000Y0010216D01*
X0038308Y0016890D02*
X0038409Y0016992D01*
X0038511D01*
X0038409Y0017093D01*
X0038511Y0017195D01*
X0038409D01*
X0038308Y0017297D01*
X0038206Y0017195D01*
X0038104D01*
X0038206Y0017093D01*
X0038104Y0016992D01*
X0038206D01*
X0038308Y0016890D01*
X0041000Y0014877D02*
X0041102Y0014979D01*
X0041203D01*
X0041102Y0015080D01*
X0041203Y0015182D01*
X0041102D01*
X0041000Y0015284D01*
X0040898Y0015182D01*
X0040797D01*
X0040898Y0015080D01*
X0040797Y0014979D01*
X0040898D01*
X0041000Y0014877D01*
Y0018903D02*
X0041102Y0019005D01*
X0041203D01*
X0041102Y0019106D01*
X0041203Y0019208D01*
X0041102D01*
X0041000Y0019310D01*
X0040898Y0019208D01*
X0040797D01*
X0040898Y0019106D01*
X0040797Y0019005D01*
X0040898D01*
X0041000Y0018903D01*
X0038308Y0033490D02*
X0038409Y0033592D01*
X0038511D01*
X0038409Y0033693D01*
X0038511Y0033795D01*
X0038409D01*
X0038308Y0033897D01*
X0038206Y0033795D01*
X0038104D01*
X0038206Y0033693D01*
X0038104Y0033592D01*
X0038206D01*
X0038308Y0033490D01*
X0041000Y0035503D02*
X0041102Y0035605D01*
X0041203D01*
X0041102Y0035706D01*
X0041203Y0035808D01*
X0041102D01*
X0041000Y0035910D01*
X0040898Y0035808D01*
X0040797D01*
X0040898Y0035706D01*
X0040797Y0035605D01*
X0040898D01*
X0041000Y0035503D01*
Y0031477D02*
X0041102Y0031579D01*
X0041203D01*
X0041102Y0031680D01*
X0041203Y0031782D01*
X0041102D01*
X0041000Y0031884D01*
X0040898Y0031782D01*
X0040797D01*
X0040898Y0031680D01*
X0040797Y0031579D01*
X0040898D01*
X0041000Y0031477D01*
X0038308Y0024803D02*
X0038409Y0024905D01*
X0038511D01*
X0038409Y0025007D01*
X0038511Y0025108D01*
X0038409D01*
X0038308Y0025210D01*
X0038206Y0025108D01*
X0038104D01*
X0038206Y0025007D01*
X0038104Y0024905D01*
X0038206D01*
X0038308Y0024803D01*
X0041000Y0026816D02*
X0041102Y0026918D01*
X0041203D01*
X0041102Y0027020D01*
X0041203Y0027121D01*
X0041102D01*
X0041000Y0027223D01*
X0040898Y0027121D01*
X0040797D01*
X0040898Y0027020D01*
X0040797Y0026918D01*
X0040898D01*
X0041000Y0026816D01*
Y0022790D02*
X0041102Y0022892D01*
X0041203D01*
X0041102Y0022994D01*
X0041203Y0023095D01*
X0041102D01*
X0041000Y0023197D01*
X0040898Y0023095D01*
X0040797D01*
X0040898Y0022994D01*
X0040797Y0022892D01*
X0040898D01*
X0041000Y0022790D01*
X0035018Y0013619D02*
X0035119Y0013721D01*
X0035221D01*
X0035119Y0013823D01*
X0035221Y0013924D01*
X0035119D01*
X0035018Y0014026D01*
X0034916Y0013924D01*
X0034814D01*
X0034916Y0013823D01*
X0034814Y0013721D01*
X0034916D01*
X0035018Y0013619D01*
X0030618Y0015944D02*
X0030719Y0016046D01*
X0030821D01*
X0030719Y0016147D01*
X0030821Y0016249D01*
X0030719D01*
X0030618Y0016351D01*
X0030516Y0016249D01*
X0030414D01*
X0030516Y0016147D01*
X0030414Y0016046D01*
X0030516D01*
X0030618Y0015944D01*
X0021618Y0008519D02*
X0021719Y0008621D01*
X0021821D01*
X0021719Y0008722D01*
X0021821Y0008824D01*
X0021719D01*
X0021618Y0008926D01*
X0021516Y0008824D01*
X0021414D01*
X0021516Y0008722D01*
X0021414Y0008621D01*
X0021516D01*
X0021618Y0008519D01*
X0017218Y0010819D02*
X0017319Y0010921D01*
X0017421D01*
X0017319Y0011023D01*
X0017421Y0011124D01*
X0017319D01*
X0017218Y0011226D01*
X0017116Y0011124D01*
X0017014D01*
X0017116Y0011023D01*
X0017014Y0010921D01*
X0017116D01*
X0017218Y0010819D01*
X0005690Y0008201D02*
X0005792Y0008302D01*
X0005893D01*
X0005792Y0008404D01*
X0005893Y0008506D01*
X0005792D01*
X0005690Y0008607D01*
X0005588Y0008506D01*
X0005487D01*
X0005588Y0008404D01*
X0005487Y0008302D01*
X0005588D01*
X0005690Y0008201D01*
X0002997Y0006188D02*
X0003099Y0006290D01*
X0003201D01*
X0003099Y0006391D01*
X0003201Y0006493D01*
X0003099D01*
X0002997Y0006594D01*
X0002896Y0006493D01*
X0002794D01*
X0002896Y0006391D01*
X0002794Y0006290D01*
X0002896D01*
X0002997Y0006188D01*
Y0010214D02*
X0003099Y0010315D01*
X0003201D01*
X0003099Y0010417D01*
X0003201Y0010519D01*
X0003099D01*
X0002997Y0010620D01*
X0002896Y0010519D01*
X0002794D01*
X0002896Y0010417D01*
X0002794Y0010315D01*
X0002896D01*
X0002997Y0010214D01*
X0005690Y0016888D02*
X0005792Y0016989D01*
X0005893D01*
X0005792Y0017091D01*
X0005893Y0017192D01*
X0005792D01*
X0005690Y0017294D01*
X0005588Y0017192D01*
X0005487D01*
X0005588Y0017091D01*
X0005487Y0016989D01*
X0005588D01*
X0005690Y0016888D01*
X0002997Y0018901D02*
X0003099Y0019002D01*
X0003201D01*
X0003099Y0019104D01*
X0003201Y0019205D01*
X0003099D01*
X0002997Y0019307D01*
X0002896Y0019205D01*
X0002794D01*
X0002896Y0019104D01*
X0002794Y0019002D01*
X0002896D01*
X0002997Y0018901D01*
Y0014875D02*
X0003099Y0014976D01*
X0003201D01*
X0003099Y0015078D01*
X0003201Y0015180D01*
X0003099D01*
X0002997Y0015281D01*
X0002896Y0015180D01*
X0002794D01*
X0002896Y0015078D01*
X0002794Y0014976D01*
X0002896D01*
X0002997Y0014875D01*
Y0035501D02*
X0003099Y0035602D01*
X0003201D01*
X0003099Y0035704D01*
X0003201Y0035805D01*
X0003099D01*
X0002997Y0035907D01*
X0002896Y0035805D01*
X0002794D01*
X0002896Y0035704D01*
X0002794Y0035602D01*
X0002896D01*
X0002997Y0035501D01*
X0005690Y0033488D02*
X0005792Y0033589D01*
X0005893D01*
X0005792Y0033691D01*
X0005893Y0033792D01*
X0005792D01*
X0005690Y0033894D01*
X0005588Y0033792D01*
X0005487D01*
X0005588Y0033691D01*
X0005487Y0033589D01*
X0005588D01*
X0005690Y0033488D01*
X0002997Y0031475D02*
X0003099Y0031576D01*
X0003201D01*
X0003099Y0031678D01*
X0003201Y0031780D01*
X0003099D01*
X0002997Y0031881D01*
X0002896Y0031780D01*
X0002794D01*
X0002896Y0031678D01*
X0002794Y0031576D01*
X0002896D01*
X0002997Y0031475D01*
Y0026814D02*
X0003099Y0026915D01*
X0003201D01*
X0003099Y0027017D01*
X0003201Y0027119D01*
X0003099D01*
X0002997Y0027220D01*
X0002896Y0027119D01*
X0002794D01*
X0002896Y0027017D01*
X0002794Y0026915D01*
X0002896D01*
X0002997Y0026814D01*
X0005690Y0024801D02*
X0005792Y0024903D01*
X0005893D01*
X0005792Y0025004D01*
X0005893Y0025106D01*
X0005792D01*
X0005690Y0025207D01*
X0005588Y0025106D01*
X0005487D01*
X0005588Y0025004D01*
X0005487Y0024903D01*
X0005588D01*
X0005690Y0024801D01*
X0002997Y0022788D02*
X0003099Y0022890D01*
X0003201D01*
X0003099Y0022991D01*
X0003201Y0023093D01*
X0003099D01*
X0002997Y0023194D01*
X0002896Y0023093D01*
X0002794D01*
X0002896Y0022991D01*
X0002794Y0022890D01*
X0002896D01*
X0002997Y0022788D01*
X0015013Y0031044D02*
X0015114Y0031146D01*
X0015216D01*
X0015114Y0031247D01*
X0015216Y0031349D01*
X0015114D01*
X0015013Y0031450D01*
X0014911Y0031349D01*
X0014809D01*
X0014911Y0031247D01*
X0014809Y0031146D01*
X0014911D01*
X0015013Y0031044D01*
X0017213D02*
X0017314Y0031146D01*
X0017416D01*
X0017314Y0031247D01*
X0017416Y0031349D01*
X0017314D01*
X0017213Y0031450D01*
X0017111Y0031349D01*
X0017009D01*
X0017111Y0031247D01*
X0017009Y0031146D01*
X0017111D01*
X0017213Y0031044D01*
X0021608Y0025059D02*
X0021709Y0025161D01*
X0021811D01*
X0021709Y0025263D01*
X0021811Y0025364D01*
X0021709D01*
X0021608Y0025466D01*
X0021506Y0025364D01*
X0021404D01*
X0021506Y0025263D01*
X0021404Y0025161D01*
X0021506D01*
X0021608Y0025059D01*
X0017208Y0027334D02*
X0017309Y0027436D01*
X0017411D01*
X0017309Y0027538D01*
X0017411Y0027639D01*
X0017309D01*
X0017208Y0027741D01*
X0017106Y0027639D01*
X0017004D01*
X0017106Y0027538D01*
X0017004Y0027436D01*
X0017106D01*
X0017208Y0027334D01*
X0030608Y0032309D02*
X0030709Y0032411D01*
X0030811D01*
X0030709Y0032513D01*
X0030811Y0032614D01*
X0030709D01*
X0030608Y0032716D01*
X0030506Y0032614D01*
X0030404D01*
X0030506Y0032513D01*
X0030404Y0032411D01*
X0030506D01*
X0030608Y0032309D01*
D66*
X0035983Y0027950D02*
G03*
X0035983Y0027950I-0000203J0000000D01*
G01*
Y0025410D02*
G03*
X0035983Y0025410I-0000203J0000000D01*
G01*
X0002603Y0041870D02*
G03*
X0002603Y0041870I-0000203J0000000D01*
G01*
Y0039330D02*
G03*
X0002603Y0039330I-0000203J0000000D01*
G01*
X0008113Y0012750D02*
G03*
X0008113Y0012750I-0000203J0000000D01*
G01*
Y0010210D02*
G03*
X0008113Y0010210I-0000203J0000000D01*
G01*
X0008103Y0029350D02*
G03*
X0008103Y0029350I-0000203J0000000D01*
G01*
Y0026810D02*
G03*
X0008103Y0026810I-0000203J0000000D01*
G01*
X0036303Y0011570D02*
G03*
X0036303Y0011570I-0000203J0000000D01*
G01*
Y0009030D02*
G03*
X0036303Y0009030I-0000203J0000000D01*
G01*
M02*
