G04*
G04 #@! TF.GenerationSoftware,Altium Limited,Altium Designer,22.6.1 (34)*
G04*
G04 Layer_Color=16711935*
%FSAX43Y43*%
%MOMM*%
G71*
G04*
G04 #@! TF.SameCoordinates,DFD1A6D8-6486-425C-A6BB-C63D1257436E*
G04*
G04*
G04 #@! TF.FilePolarity,Negative*
G04*
G01*
G75*
%ADD36R,5.588X4.229*%
%ADD42C,1.703*%
%ADD43R,2.003X2.003*%
%ADD44C,2.003*%
%ADD45C,3.100*%
D36*
X0041000Y0017093D02*
D03*
Y0008407D02*
D03*
X0041000Y0033693D02*
D03*
Y0025007D02*
D03*
X0003000Y0008407D02*
D03*
Y0017093D02*
D03*
Y0025007D02*
D03*
Y0033693D02*
D03*
D42*
X0019420Y0016795D02*
D03*
X0023400Y0033400D02*
D03*
X0019410Y0033390D02*
D03*
X0029600Y0046900D02*
D03*
X0022000Y0046575D02*
D03*
D43*
X0035780Y0027950D02*
D03*
X0002400Y0041870D02*
D03*
X0007910Y0012750D02*
D03*
X0007900Y0029350D02*
D03*
X0036100Y0011570D02*
D03*
D44*
X0035780Y0025410D02*
D03*
X0002400Y0039330D02*
D03*
X0007910Y0010210D02*
D03*
X0007900Y0026810D02*
D03*
X0036100Y0009030D02*
D03*
D45*
X0041150Y0047150D02*
D03*
Y0002850D02*
D03*
X0002850D02*
D03*
Y0047150D02*
D03*
M02*
