G04*
G04 #@! TF.GenerationSoftware,Altium Limited,Altium Designer,22.6.1 (34)*
G04*
G04 Layer_Physical_Order=1*
G04 Layer_Color=255*
%FSAX43Y43*%
%MOMM*%
G71*
G04*
G04 #@! TF.SameCoordinates,DFD1A6D8-6486-425C-A6BB-C63D1257436E*
G04*
G04*
G04 #@! TF.FilePolarity,Positive*
G04*
G01*
G75*
%ADD14C,0.300*%
%ADD15R,1.200X0.600*%
%ADD16R,1.750X2.480*%
%ADD17R,0.800X0.300*%
%ADD18R,0.850X1.200*%
%ADD19R,0.800X0.850*%
%ADD20R,1.250X1.000*%
%ADD21R,0.850X0.800*%
%ADD22R,5.385X4.026*%
%ADD23R,5.385X0.762*%
%ADD24R,1.600X3.950*%
%ADD25R,0.900X1.900*%
%ADD26R,3.200X1.900*%
%ADD27R,0.700X0.500*%
%ADD46C,0.700*%
%ADD47C,0.193*%
%ADD48C,0.800*%
%ADD49C,0.400*%
%ADD50C,0.600*%
%ADD51C,1.500*%
%ADD52R,1.800X1.800*%
%ADD53C,1.800*%
%ADD54C,3.000*%
%ADD55C,0.600*%
G36*
X0039307Y0049592D02*
X0039354Y0049465D01*
X0039074Y0049226D01*
X0038775Y0048876D01*
X0038534Y0048483D01*
X0038358Y0048057D01*
X0038250Y0047609D01*
X0038214Y0047150D01*
X0038250Y0046691D01*
X0038358Y0046243D01*
X0038534Y0045817D01*
X0038775Y0045424D01*
X0039074Y0045074D01*
X0039424Y0044775D01*
X0039817Y0044534D01*
X0040052Y0044437D01*
X0040026Y0044310D01*
X0038906D01*
X0037180Y0046036D01*
Y0046740D01*
Y0048190D01*
X0035780D01*
Y0047975D01*
X0034970D01*
Y0048190D01*
X0033570D01*
Y0047914D01*
X0033504D01*
X0033309Y0047875D01*
X0033144Y0047765D01*
X0032740Y0047360D01*
X0032629Y0047195D01*
X0032590Y0047000D01*
Y0044660D01*
X0031080D01*
Y0044570D01*
X0031054D01*
X0030859Y0044531D01*
X0030694Y0044420D01*
X0030460Y0044186D01*
X0030423Y0044132D01*
X0030296Y0044170D01*
Y0046111D01*
X0030440Y0046255D01*
X0030578Y0046495D01*
X0030650Y0046762D01*
Y0047038D01*
X0030578Y0047305D01*
X0030440Y0047545D01*
X0030245Y0047740D01*
X0030005Y0047878D01*
X0029738Y0047950D01*
X0029462D01*
X0029195Y0047878D01*
X0028955Y0047740D01*
X0028760Y0047545D01*
X0028622Y0047305D01*
X0028550Y0047038D01*
Y0046762D01*
X0028622Y0046495D01*
X0028760Y0046255D01*
X0028884Y0046131D01*
Y0043650D01*
X0028890Y0043604D01*
Y0042925D01*
Y0042246D01*
X0028884Y0042200D01*
Y0041140D01*
Y0040260D01*
Y0039590D01*
Y0038736D01*
X0028779Y0038631D01*
X0026200D01*
Y0039175D01*
X0025006D01*
Y0042625D01*
X0025050D01*
Y0043879D01*
X0025056Y0043925D01*
X0025050Y0043971D01*
Y0044892D01*
X0025274Y0045116D01*
X0025386Y0045262D01*
X0025408Y0045314D01*
X0025538Y0045297D01*
X0025543Y0045262D01*
X0025614Y0045092D01*
X0025726Y0044946D01*
X0025850Y0044821D01*
Y0044125D01*
X0027350D01*
Y0045125D01*
X0027299D01*
X0027282Y0045253D01*
X0027211Y0045423D01*
X0027099Y0045569D01*
X0026950Y0045718D01*
Y0046154D01*
X0026956Y0046200D01*
X0026950Y0046246D01*
Y0046900D01*
X0026296D01*
X0026250Y0046906D01*
X0026225D01*
X0026179Y0046900D01*
X0024821D01*
X0024775Y0046906D01*
X0024750D01*
X0024704Y0046900D01*
X0024050D01*
Y0046246D01*
X0024044Y0046200D01*
X0024050Y0046154D01*
Y0045888D01*
X0023826Y0045664D01*
X0023714Y0045518D01*
X0023643Y0045348D01*
X0023619Y0045165D01*
Y0045125D01*
X0023550D01*
Y0042625D01*
X0023594D01*
Y0039175D01*
X0022400D01*
Y0036675D01*
X0026200D01*
Y0037219D01*
X0029071D01*
X0029254Y0037243D01*
X0029424Y0037314D01*
X0029571Y0037426D01*
X0029882Y0037738D01*
X0030379D01*
X0030561Y0037762D01*
X0030732Y0037832D01*
X0030878Y0037944D01*
X0031142Y0038209D01*
X0031861Y0037491D01*
X0032007Y0037379D01*
X0032177Y0037308D01*
X0032360Y0037284D01*
X0034085D01*
Y0037190D01*
X0035935D01*
Y0038694D01*
X0037300D01*
X0037417Y0038717D01*
X0037516Y0038784D01*
X0037679Y0038947D01*
X0037708Y0038990D01*
X0037731Y0039020D01*
X0037789Y0039032D01*
X0037811Y0039033D01*
X0037870Y0039022D01*
X0037921Y0038947D01*
X0038184Y0038684D01*
X0038194Y0038524D01*
X0038175Y0038500D01*
X0037325D01*
Y0037800D01*
X0037075D01*
Y0037550D01*
X0036350D01*
Y0037100D01*
X0037236D01*
X0037284Y0036983D01*
X0036708Y0036406D01*
X0032825D01*
X0032779Y0036400D01*
X0031421D01*
X0031375Y0036406D01*
X0030000D01*
X0029817Y0036382D01*
X0029647Y0036311D01*
X0029501Y0036199D01*
X0027408Y0034106D01*
X0024179D01*
X0024045Y0034240D01*
X0023805Y0034378D01*
X0023538Y0034450D01*
X0023262D01*
X0022995Y0034378D01*
X0022755Y0034240D01*
X0022560Y0034045D01*
X0022422Y0033805D01*
X0022350Y0033538D01*
Y0033262D01*
X0022422Y0032995D01*
X0022560Y0032755D01*
X0022755Y0032560D01*
X0022995Y0032422D01*
X0023262Y0032350D01*
X0023538D01*
X0023805Y0032422D01*
X0024045Y0032560D01*
X0024179Y0032694D01*
X0027700D01*
X0027883Y0032718D01*
X0028053Y0032789D01*
X0028199Y0032901D01*
X0030292Y0034994D01*
X0031375D01*
X0031421Y0035000D01*
X0032779D01*
X0032825Y0034994D01*
X0037000D01*
X0037183Y0035018D01*
X0037353Y0035089D01*
X0037499Y0035201D01*
X0037890Y0035592D01*
X0038008Y0035543D01*
Y0033943D01*
X0040750D01*
Y0036006D01*
X0038471D01*
X0038422Y0036124D01*
X0038999Y0036701D01*
X0039111Y0036847D01*
X0039182Y0037017D01*
X0039192Y0037094D01*
X0039400D01*
X0039583Y0037118D01*
X0039753Y0037189D01*
X0039755Y0037190D01*
X0041505D01*
Y0037480D01*
X0041666D01*
X0041861Y0037519D01*
X0042026Y0037630D01*
X0042260Y0037864D01*
X0042371Y0038029D01*
X0042410Y0038224D01*
Y0043400D01*
X0042371Y0043595D01*
X0042260Y0043760D01*
X0041860Y0044160D01*
X0041827Y0044183D01*
X0041849Y0044308D01*
X0042057Y0044358D01*
X0042483Y0044534D01*
X0042876Y0044775D01*
X0043226Y0045074D01*
X0043465Y0045354D01*
X0043592Y0045307D01*
Y0036006D01*
X0041250D01*
Y0033693D01*
Y0031380D01*
X0043592D01*
Y0030031D01*
X0038008D01*
Y0029837D01*
X0037920Y0029754D01*
X0037765Y0029724D01*
X0037634Y0029636D01*
X0037634Y0029636D01*
X0037414Y0029416D01*
X0037326Y0029285D01*
X0037295Y0029130D01*
X0037296Y0029130D01*
Y0028448D01*
X0037202Y0028354D01*
X0036980D01*
Y0029150D01*
X0034580D01*
Y0028354D01*
X0034398D01*
X0033976Y0028776D01*
X0033845Y0028864D01*
X0033690Y0028895D01*
X0033690Y0028895D01*
X0033560D01*
Y0029215D01*
X0032160D01*
Y0028895D01*
X0031360D01*
Y0029240D01*
X0030038D01*
X0029986Y0029367D01*
X0030534Y0029915D01*
X0031310D01*
Y0030206D01*
X0032110D01*
Y0029940D01*
X0033510D01*
Y0031656D01*
X0034310D01*
Y0030915D01*
X0035010D01*
X0035710D01*
Y0031390D01*
Y0032840D01*
X0035677D01*
X0035610Y0032941D01*
Y0033179D01*
X0035519Y0033400D01*
X0035350Y0033569D01*
X0035129Y0033660D01*
X0034891D01*
X0034670Y0033569D01*
X0034501Y0033400D01*
X0034410Y0033179D01*
Y0032941D01*
X0034343Y0032840D01*
X0034310D01*
Y0032574D01*
X0033510D01*
Y0032840D01*
X0032110D01*
Y0031124D01*
X0031310D01*
Y0031840D01*
X0030610D01*
X0029910D01*
Y0031365D01*
Y0030589D01*
X0028820Y0029499D01*
X0027610D01*
X0027566Y0029490D01*
X0027285D01*
Y0029580D01*
X0025014D01*
Y0030400D01*
X0027650D01*
Y0030695D01*
X0027925D01*
X0027981Y0030560D01*
X0028150Y0030391D01*
X0028371Y0030300D01*
X0028609D01*
X0028830Y0030391D01*
X0028999Y0030560D01*
X0029090Y0030781D01*
Y0031019D01*
X0028999Y0031240D01*
X0028830Y0031409D01*
X0028609Y0031500D01*
X0028371D01*
X0028352Y0031492D01*
X0028290Y0031505D01*
X0028290Y0031504D01*
X0027650D01*
Y0031800D01*
X0024750D01*
Y0031628D01*
X0024723Y0031505D01*
X0024569Y0031474D01*
X0024437Y0031386D01*
X0024437Y0031386D01*
X0024324Y0031273D01*
X0024236Y0031141D01*
X0024205Y0030987D01*
X0024205Y0030987D01*
Y0029490D01*
X0023910D01*
Y0029444D01*
X0023553D01*
X0022310Y0030687D01*
Y0031540D01*
X0020910D01*
Y0031220D01*
X0020110D01*
Y0031540D01*
X0019815D01*
Y0032411D01*
X0019815Y0032412D01*
X0020055Y0032550D01*
X0020250Y0032745D01*
X0020388Y0032985D01*
X0020460Y0033252D01*
Y0033528D01*
X0020388Y0033795D01*
X0020250Y0034035D01*
X0020055Y0034230D01*
X0019815Y0034368D01*
X0019548Y0034440D01*
X0019272D01*
X0019005Y0034368D01*
X0018765Y0034230D01*
X0018570Y0034035D01*
X0018432Y0033795D01*
X0018360Y0033528D01*
Y0033252D01*
X0018432Y0032985D01*
X0018570Y0032745D01*
X0018765Y0032550D01*
X0019005Y0032412D01*
X0019005Y0032411D01*
Y0031540D01*
X0018710D01*
Y0030090D01*
Y0029771D01*
X0017910D01*
Y0030095D01*
Y0030570D01*
X0017210D01*
X0016510D01*
Y0030095D01*
Y0029771D01*
X0015710D01*
Y0030095D01*
Y0030570D01*
X0015010D01*
X0014310D01*
Y0030095D01*
Y0029774D01*
X0013503D01*
Y0030095D01*
Y0031545D01*
X0013312D01*
Y0031769D01*
X0013400Y0031981D01*
Y0032219D01*
X0013309Y0032440D01*
X0013140Y0032609D01*
X0012919Y0032700D01*
X0012681D01*
X0012460Y0032609D01*
X0012291Y0032440D01*
X0012200Y0032219D01*
Y0031981D01*
X0012291Y0031760D01*
X0012293Y0031759D01*
Y0031545D01*
X0012103D01*
Y0031329D01*
X0011303D01*
Y0031545D01*
X0009903D01*
Y0030095D01*
Y0029754D01*
X0009100D01*
Y0030550D01*
X0006700D01*
Y0029754D01*
X0005992D01*
Y0030031D01*
X0000408D01*
Y0031380D01*
X0002750D01*
Y0033693D01*
Y0036006D01*
X0000408D01*
Y0045307D01*
X0000535Y0045354D01*
X0000774Y0045074D01*
X0001124Y0044775D01*
X0001517Y0044534D01*
X0001943Y0044358D01*
X0002391Y0044250D01*
X0002850Y0044214D01*
X0003309Y0044250D01*
X0003757Y0044358D01*
X0004183Y0044534D01*
X0004576Y0044775D01*
X0004926Y0045074D01*
X0005225Y0045424D01*
X0005466Y0045817D01*
X0005642Y0046243D01*
X0005750Y0046691D01*
X0005786Y0047150D01*
X0005750Y0047609D01*
X0005642Y0048057D01*
X0005466Y0048483D01*
X0005225Y0048876D01*
X0004926Y0049226D01*
X0004646Y0049465D01*
X0004693Y0049592D01*
X0039307Y0049592D01*
D02*
G37*
G36*
X0035780Y0045290D02*
X0036484D01*
X0038324Y0043451D01*
X0038318Y0043404D01*
X0038280Y0043324D01*
X0037925D01*
Y0042424D01*
X0037675D01*
Y0042174D01*
X0036950D01*
Y0042048D01*
X0036833Y0042000D01*
X0036156Y0042676D01*
X0036156Y0042676D01*
X0036057Y0042743D01*
X0035940Y0042766D01*
X0035940Y0042766D01*
X0035380D01*
Y0042860D01*
X0034480D01*
X0033580D01*
Y0042510D01*
Y0041590D01*
X0033574Y0041560D01*
Y0040940D01*
X0033165D01*
Y0040240D01*
X0032665D01*
Y0040940D01*
X0032143D01*
X0032122Y0041103D01*
X0032051Y0041273D01*
X0031939Y0041419D01*
X0031928Y0041431D01*
X0031957Y0041502D01*
X0031988Y0041550D01*
X0032039Y0041560D01*
X0032880D01*
Y0042760D01*
X0032039D01*
X0031980Y0042772D01*
X0031335D01*
X0031330Y0042776D01*
Y0043460D01*
X0032880D01*
Y0043933D01*
X0032997Y0043982D01*
X0033225Y0043754D01*
X0033391Y0043643D01*
X0033580Y0043606D01*
Y0043360D01*
X0034480D01*
X0035380D01*
Y0043460D01*
Y0044660D01*
X0033761D01*
X0033610Y0044811D01*
Y0045290D01*
X0034020D01*
Y0046015D01*
X0034270D01*
Y0046265D01*
X0034970D01*
Y0046955D01*
X0035780D01*
Y0045290D01*
D02*
G37*
G36*
X0037495Y0040905D02*
Y0040690D01*
X0037320D01*
Y0039990D01*
Y0039290D01*
X0037418D01*
X0037463Y0039163D01*
X0037300Y0039000D01*
X0034000Y0039000D01*
X0033880Y0039120D01*
Y0041560D01*
X0034230D01*
Y0042160D01*
X0034480D01*
Y0042410D01*
X0035380D01*
Y0042460D01*
X0035940D01*
X0037495Y0040905D01*
D02*
G37*
G36*
X0039950Y0042674D02*
X0040675D01*
Y0042424D01*
X0040925D01*
Y0041524D01*
X0041390D01*
Y0040790D01*
X0040830D01*
Y0039990D01*
Y0039190D01*
X0041024D01*
X0041073Y0039073D01*
X0040900Y0038900D01*
X0038400D01*
X0038137Y0039163D01*
X0038190Y0039290D01*
X0038270D01*
Y0039990D01*
Y0040690D01*
X0038100D01*
Y0041524D01*
X0038400D01*
Y0042800D01*
X0038624Y0043024D01*
X0039950D01*
Y0042674D01*
D02*
G37*
G36*
X0014310Y0028645D02*
X0015710D01*
Y0028962D01*
X0016510D01*
Y0028645D01*
X0017910D01*
Y0028962D01*
X0018710D01*
Y0028640D01*
X0020110D01*
Y0028962D01*
X0020910D01*
Y0028640D01*
X0022310D01*
Y0028640D01*
X0022411Y0028682D01*
X0022839Y0028254D01*
X0022917Y0028202D01*
X0022966Y0028141D01*
X0022951Y0028041D01*
X0022895Y0027957D01*
X0022860Y0027781D01*
X0022871Y0027726D01*
X0022767Y0027599D01*
X0022310D01*
Y0027865D01*
X0021904D01*
X0021860Y0027874D01*
X0021816Y0027865D01*
X0020910D01*
Y0027574D01*
X0020110D01*
Y0027840D01*
X0018710D01*
Y0026124D01*
X0017910D01*
Y0026865D01*
X0017210D01*
X0016510D01*
Y0026390D01*
Y0024940D01*
X0016685D01*
X0016701Y0024900D01*
X0016870Y0024731D01*
X0017091Y0024640D01*
X0017329D01*
X0017550Y0024731D01*
X0017719Y0024900D01*
X0017735Y0024940D01*
X0017910D01*
Y0025206D01*
X0018710D01*
Y0024940D01*
X0020110D01*
Y0026656D01*
X0020910D01*
Y0025940D01*
X0021610D01*
X0022310D01*
Y0026681D01*
X0023396D01*
Y0025775D01*
X0023301Y0025720D01*
X0023180Y0025599D01*
X0023094Y0025451D01*
X0023050Y0025286D01*
Y0025114D01*
X0023094Y0024949D01*
X0023180Y0024801D01*
X0023301Y0024680D01*
X0023449Y0024594D01*
X0023614Y0024550D01*
X0023786D01*
X0023951Y0024594D01*
X0024099Y0024680D01*
X0024220Y0024801D01*
X0024306Y0024949D01*
X0024350Y0025114D01*
Y0025286D01*
X0024306Y0025451D01*
X0024220Y0025599D01*
X0024205Y0025615D01*
Y0026590D01*
X0024935D01*
Y0026500D01*
X0027285D01*
Y0026590D01*
X0027865D01*
Y0025882D01*
X0027861Y0025880D01*
X0027740Y0025759D01*
X0027654Y0025611D01*
X0027610Y0025446D01*
Y0025274D01*
X0027654Y0025109D01*
X0027740Y0024961D01*
X0027861Y0024840D01*
X0028009Y0024754D01*
X0028174Y0024710D01*
X0028346D01*
X0028511Y0024754D01*
X0028659Y0024840D01*
X0028780Y0024961D01*
X0028866Y0025109D01*
X0028910Y0025274D01*
Y0025446D01*
X0028866Y0025611D01*
X0028780Y0025759D01*
X0028674Y0025866D01*
Y0026589D01*
X0028737Y0026641D01*
X0028800D01*
X0028976Y0026676D01*
X0029124Y0026776D01*
X0029160Y0026829D01*
X0029287Y0026841D01*
X0029349Y0026779D01*
X0029349Y0026779D01*
X0029480Y0026691D01*
X0029635Y0026660D01*
X0029635Y0026660D01*
X0029960D01*
Y0026340D01*
X0031360D01*
Y0026660D01*
X0032160D01*
Y0026315D01*
X0033560D01*
Y0027882D01*
X0033677Y0027931D01*
X0033944Y0027664D01*
X0033944Y0027664D01*
X0034075Y0027576D01*
X0034230Y0027545D01*
X0034580D01*
Y0026750D01*
X0036980D01*
Y0027545D01*
X0037370D01*
X0037370Y0027545D01*
X0037525Y0027576D01*
X0037656Y0027664D01*
X0037986Y0027994D01*
X0037986Y0027994D01*
X0038074Y0028125D01*
X0038105Y0028280D01*
Y0028669D01*
X0043592D01*
Y0027320D01*
X0041250D01*
Y0025007D01*
Y0022694D01*
X0043592D01*
Y0019406D01*
X0041250D01*
Y0017093D01*
Y0014780D01*
X0043592D01*
Y0013431D01*
X0038008D01*
Y0013155D01*
X0037840D01*
X0037840Y0013155D01*
X0037685Y0013124D01*
X0037554Y0013036D01*
X0037554Y0013036D01*
X0037364Y0012846D01*
X0037357Y0012835D01*
X0037300Y0012770D01*
X0034900D01*
Y0011974D01*
X0034498D01*
X0034086Y0012386D01*
X0033955Y0012474D01*
X0033800Y0012505D01*
X0033800Y0012505D01*
X0033520D01*
Y0012825D01*
X0032120D01*
Y0012505D01*
X0031320D01*
Y0012825D01*
X0030467D01*
X0030232Y0013060D01*
X0030233Y0013239D01*
X0030544Y0013550D01*
X0031320D01*
Y0013791D01*
X0032120D01*
Y0013525D01*
X0033520D01*
Y0015241D01*
X0034320D01*
Y0014500D01*
X0035020D01*
X0035720D01*
Y0014975D01*
Y0016425D01*
X0035687D01*
X0035620Y0016526D01*
Y0016764D01*
X0035529Y0016985D01*
X0035360Y0017154D01*
X0035139Y0017245D01*
X0034901D01*
X0034680Y0017154D01*
X0034511Y0016985D01*
X0034420Y0016764D01*
Y0016526D01*
X0034353Y0016425D01*
X0034320D01*
Y0016159D01*
X0033520D01*
Y0016425D01*
X0032120D01*
Y0014709D01*
X0031320D01*
Y0015000D01*
Y0015475D01*
X0030620D01*
X0029920D01*
Y0015000D01*
Y0014224D01*
X0029630Y0013934D01*
X0027620D01*
X0027576Y0013925D01*
X0027295D01*
Y0014015D01*
X0025024D01*
Y0014577D01*
X0025247Y0014800D01*
X0027550D01*
Y0015095D01*
X0027779D01*
X0028016Y0014858D01*
Y0014711D01*
X0028107Y0014490D01*
X0028276Y0014321D01*
X0028497Y0014230D01*
X0028735D01*
X0028956Y0014321D01*
X0029125Y0014490D01*
X0029216Y0014711D01*
Y0014949D01*
X0029125Y0015170D01*
X0028956Y0015339D01*
X0028735Y0015430D01*
X0028588D01*
X0028232Y0015786D01*
X0028101Y0015874D01*
X0027946Y0015905D01*
X0027946Y0015905D01*
X0027550D01*
Y0016200D01*
X0024650D01*
Y0015347D01*
X0024334Y0015031D01*
X0024246Y0014900D01*
X0024215Y0014745D01*
X0024215Y0014745D01*
Y0013925D01*
X0023920D01*
Y0013854D01*
X0022537D01*
X0022320Y0014072D01*
Y0014925D01*
X0020920D01*
Y0014604D01*
X0020120D01*
Y0014925D01*
X0019824D01*
Y0015816D01*
X0019825Y0015817D01*
X0020065Y0015955D01*
X0020260Y0016150D01*
X0020398Y0016390D01*
X0020470Y0016657D01*
Y0016933D01*
X0020398Y0017200D01*
X0020260Y0017440D01*
X0020065Y0017635D01*
X0019825Y0017773D01*
X0019558Y0017845D01*
X0019282D01*
X0019015Y0017773D01*
X0018775Y0017635D01*
X0018580Y0017440D01*
X0018442Y0017200D01*
X0018370Y0016933D01*
Y0016657D01*
X0018442Y0016390D01*
X0018580Y0016150D01*
X0018775Y0015955D01*
X0019015Y0015817D01*
X0019015Y0015816D01*
Y0014925D01*
X0018720D01*
Y0013475D01*
Y0013155D01*
X0017920D01*
Y0013475D01*
Y0013950D01*
X0017220D01*
X0016520D01*
Y0013475D01*
Y0013155D01*
X0015720D01*
Y0013475D01*
Y0013950D01*
X0015020D01*
X0014320D01*
Y0013475D01*
Y0013155D01*
X0013510D01*
Y0013475D01*
Y0014925D01*
X0013320D01*
Y0015150D01*
X0013407Y0015361D01*
Y0015600D01*
X0013316Y0015820D01*
X0013147Y0015989D01*
X0012927Y0016080D01*
X0012688D01*
X0012467Y0015989D01*
X0012299Y0015820D01*
X0012207Y0015600D01*
Y0015361D01*
X0012299Y0015141D01*
X0012300Y0015139D01*
Y0014925D01*
X0012110D01*
Y0014710D01*
X0011310D01*
Y0014925D01*
X0009910D01*
Y0013475D01*
Y0013155D01*
X0009110D01*
Y0013950D01*
X0006710D01*
Y0013155D01*
X0005992D01*
Y0013431D01*
X0000408D01*
Y0014780D01*
X0002750D01*
Y0017093D01*
Y0019406D01*
X0000408D01*
Y0022694D01*
X0002750D01*
Y0025007D01*
Y0027320D01*
X0000408D01*
Y0028669D01*
X0005992D01*
Y0028945D01*
X0006700D01*
Y0028150D01*
X0009100D01*
Y0028945D01*
X0009903D01*
Y0028645D01*
X0010197D01*
Y0027953D01*
X0009901D01*
Y0026503D01*
Y0025053D01*
X0010076D01*
X0010093Y0025013D01*
X0010261Y0024845D01*
X0010482Y0024753D01*
X0010721D01*
X0010941Y0024845D01*
X0011110Y0025013D01*
X0011127Y0025053D01*
X0011301D01*
Y0026503D01*
Y0027953D01*
X0011006D01*
Y0028645D01*
X0011303D01*
Y0028965D01*
X0012103D01*
Y0028645D01*
X0012397D01*
Y0027953D01*
X0012101D01*
Y0026503D01*
Y0025053D01*
X0012276D01*
X0012293Y0025013D01*
X0012461Y0024845D01*
X0012682Y0024753D01*
X0012921D01*
X0013141Y0024845D01*
X0013310Y0025013D01*
X0013327Y0025053D01*
X0013501D01*
Y0026503D01*
Y0027953D01*
X0013206D01*
Y0028645D01*
X0013503D01*
Y0028965D01*
X0014310D01*
Y0028645D01*
D02*
G37*
G36*
X0020920Y0012025D02*
X0022267D01*
X0022305Y0011898D01*
X0022196Y0011824D01*
X0021696Y0011325D01*
X0020920D01*
Y0011059D01*
X0020120D01*
Y0011325D01*
X0018720D01*
Y0009609D01*
X0017920D01*
Y0010350D01*
X0017220D01*
X0016520D01*
Y0009875D01*
Y0008425D01*
X0016695D01*
X0016711Y0008385D01*
X0016880Y0008216D01*
X0017101Y0008125D01*
X0017339D01*
X0017560Y0008216D01*
X0017729Y0008385D01*
X0017745Y0008425D01*
X0017920D01*
Y0008691D01*
X0018720D01*
Y0008425D01*
X0020120D01*
Y0010141D01*
X0020920D01*
Y0009400D01*
X0021620D01*
X0022320D01*
Y0009875D01*
Y0010651D01*
X0022710Y0011041D01*
X0023295D01*
Y0010415D01*
X0023180Y0010299D01*
X0023094Y0010151D01*
X0023050Y0009986D01*
Y0009814D01*
X0023094Y0009649D01*
X0023180Y0009501D01*
X0023301Y0009380D01*
X0023449Y0009294D01*
X0023614Y0009250D01*
X0023786D01*
X0023951Y0009294D01*
X0024099Y0009380D01*
X0024220Y0009501D01*
X0024306Y0009649D01*
X0024350Y0009814D01*
Y0009986D01*
X0024306Y0010151D01*
X0024220Y0010299D01*
X0024105Y0010415D01*
Y0010879D01*
X0024251Y0011025D01*
X0024945D01*
Y0010935D01*
X0027295D01*
Y0011025D01*
X0027748D01*
X0027910Y0010863D01*
Y0010736D01*
X0027795Y0010621D01*
X0027709Y0010473D01*
X0027665Y0010308D01*
Y0010136D01*
X0027709Y0009971D01*
X0027795Y0009823D01*
X0027916Y0009702D01*
X0028064Y0009616D01*
X0028229Y0009572D01*
X0028401D01*
X0028566Y0009616D01*
X0028714Y0009702D01*
X0028835Y0009823D01*
X0028921Y0009971D01*
X0028965Y0010136D01*
Y0010308D01*
X0028921Y0010473D01*
X0028835Y0010621D01*
X0028719Y0010737D01*
Y0010930D01*
X0028818Y0011010D01*
X0028844Y0011005D01*
X0029019Y0011040D01*
X0029168Y0011140D01*
X0029263Y0011281D01*
X0029284Y0011300D01*
X0029391Y0011332D01*
X0029920Y0010803D01*
Y0009925D01*
X0031320D01*
Y0010245D01*
X0032120D01*
Y0009925D01*
X0033520D01*
Y0011375D01*
Y0011660D01*
X0033647Y0011681D01*
X0034044Y0011284D01*
X0034044Y0011284D01*
X0034175Y0011196D01*
X0034330Y0011165D01*
X0034330Y0011165D01*
X0034900D01*
Y0010370D01*
X0037300D01*
Y0011165D01*
X0037490D01*
X0037490Y0011165D01*
X0037645Y0011196D01*
X0037776Y0011284D01*
X0037936Y0011444D01*
X0037936Y0011444D01*
X0038024Y0011575D01*
X0038055Y0011730D01*
Y0012069D01*
X0043592D01*
Y0010720D01*
X0041250D01*
Y0008407D01*
Y0006094D01*
X0043592D01*
Y0004693D01*
X0043465Y0004646D01*
X0043226Y0004926D01*
X0042876Y0005225D01*
X0042483Y0005466D01*
X0042057Y0005642D01*
X0041609Y0005750D01*
X0041150Y0005786D01*
X0040691Y0005750D01*
X0040243Y0005642D01*
X0039817Y0005466D01*
X0039424Y0005225D01*
X0039074Y0004926D01*
X0038775Y0004576D01*
X0038534Y0004183D01*
X0038358Y0003757D01*
X0038250Y0003309D01*
X0038214Y0002850D01*
X0038250Y0002391D01*
X0038358Y0001943D01*
X0038534Y0001517D01*
X0038775Y0001124D01*
X0039074Y0000774D01*
X0039354Y0000535D01*
X0039307Y0000408D01*
X0004693D01*
X0004646Y0000535D01*
X0004926Y0000774D01*
X0005225Y0001124D01*
X0005466Y0001517D01*
X0005642Y0001943D01*
X0005750Y0002391D01*
X0005786Y0002850D01*
X0005750Y0003309D01*
X0005642Y0003757D01*
X0005466Y0004183D01*
X0005225Y0004576D01*
X0004926Y0004926D01*
X0004576Y0005225D01*
X0004183Y0005466D01*
X0003757Y0005642D01*
X0003309Y0005750D01*
X0002850Y0005786D01*
X0002391Y0005750D01*
X0001943Y0005642D01*
X0001517Y0005466D01*
X0001124Y0005225D01*
X0000774Y0004926D01*
X0000535Y0004646D01*
X0000408Y0004693D01*
Y0006094D01*
X0002750D01*
Y0008407D01*
Y0010720D01*
X0000408D01*
Y0012069D01*
X0005992D01*
Y0012345D01*
X0006710D01*
Y0011550D01*
X0009110D01*
Y0012345D01*
X0009910D01*
Y0012025D01*
X0010205D01*
Y0011315D01*
X0009910D01*
Y0009865D01*
Y0008415D01*
X0010085D01*
X0010101Y0008375D01*
X0010270Y0008206D01*
X0010491Y0008115D01*
X0010729D01*
X0010950Y0008206D01*
X0011119Y0008375D01*
X0011135Y0008415D01*
X0011310D01*
Y0009865D01*
Y0011315D01*
X0011014D01*
Y0012025D01*
X0011310D01*
Y0012345D01*
X0012110D01*
Y0012025D01*
X0012405D01*
Y0011315D01*
X0012110D01*
Y0009865D01*
Y0008415D01*
X0012285D01*
X0012301Y0008375D01*
X0012470Y0008206D01*
X0012691Y0008115D01*
X0012929D01*
X0013150Y0008206D01*
X0013319Y0008375D01*
X0013335Y0008415D01*
X0013510D01*
Y0009865D01*
Y0011315D01*
X0013214D01*
Y0012025D01*
X0013510D01*
Y0012345D01*
X0014320D01*
Y0012025D01*
X0015720D01*
Y0012345D01*
X0016520D01*
Y0012025D01*
X0017920D01*
Y0012345D01*
X0018720D01*
Y0012025D01*
X0020120D01*
Y0012345D01*
X0020920D01*
Y0012025D01*
D02*
G37*
%LPC*%
G36*
X0022138Y0047625D02*
X0021862D01*
X0021595Y0047553D01*
X0021355Y0047415D01*
X0021160Y0047220D01*
X0021022Y0046980D01*
X0020950Y0046713D01*
Y0046437D01*
X0021022Y0046170D01*
X0021160Y0045930D01*
X0021294Y0045796D01*
Y0045125D01*
X0021250D01*
Y0044631D01*
X0020300D01*
Y0044650D01*
X0019646D01*
X0019600Y0044656D01*
X0019316D01*
X0019316Y0044656D01*
X0014500D01*
Y0046225D01*
X0012300D01*
Y0044575D01*
X0011869D01*
X0011686Y0044551D01*
X0011516Y0044480D01*
X0011369Y0044368D01*
X0009578Y0042576D01*
X0003600D01*
Y0043070D01*
X0001200D01*
Y0040670D01*
X0003600D01*
Y0041164D01*
X0004750D01*
Y0040825D01*
X0005400D01*
X0006050D01*
Y0041164D01*
X0006950D01*
Y0040825D01*
X0007600D01*
X0008250D01*
Y0041164D01*
X0009870D01*
X0010053Y0041188D01*
X0010223Y0041259D01*
X0010369Y0041371D01*
X0012161Y0043163D01*
X0012300D01*
Y0041675D01*
X0014500D01*
Y0043244D01*
X0018900D01*
Y0042725D01*
X0019600D01*
X0020300D01*
Y0043219D01*
X0021250D01*
Y0042625D01*
X0022750D01*
Y0045125D01*
X0022706D01*
Y0045796D01*
X0022840Y0045930D01*
X0022978Y0046170D01*
X0023050Y0046437D01*
Y0046713D01*
X0022978Y0046980D01*
X0022840Y0047220D01*
X0022645Y0047415D01*
X0022405Y0047553D01*
X0022138Y0047625D01*
D02*
G37*
G36*
X0027350Y0043625D02*
X0026850D01*
Y0042625D01*
X0027350D01*
Y0043625D01*
D02*
G37*
G36*
X0026350D02*
X0025850D01*
Y0042625D01*
X0026350D01*
Y0043625D01*
D02*
G37*
G36*
X0020300Y0042225D02*
X0019850D01*
Y0041750D01*
X0020300D01*
Y0042225D01*
D02*
G37*
G36*
X0019350D02*
X0018900D01*
Y0041750D01*
X0019350D01*
Y0042225D01*
D02*
G37*
G36*
X0008250Y0040375D02*
X0007850D01*
Y0040075D01*
X0008250D01*
Y0040375D01*
D02*
G37*
G36*
X0007350D02*
X0006950D01*
Y0040075D01*
X0007350D01*
Y0040375D01*
D02*
G37*
G36*
X0006050D02*
X0005650D01*
Y0040075D01*
X0006050D01*
Y0040375D01*
D02*
G37*
G36*
X0005150D02*
X0004750D01*
Y0040075D01*
X0005150D01*
Y0040375D01*
D02*
G37*
G36*
X0002650Y0040505D02*
Y0039580D01*
X0003575D01*
X0003518Y0039793D01*
X0003360Y0040067D01*
X0003137Y0040290D01*
X0002863Y0040448D01*
X0002650Y0040505D01*
D02*
G37*
G36*
X0002150D02*
X0001937Y0040448D01*
X0001663Y0040290D01*
X0001440Y0040067D01*
X0001282Y0039793D01*
X0001225Y0039580D01*
X0002150D01*
Y0040505D01*
D02*
G37*
G36*
X0003575Y0039080D02*
X0002650D01*
Y0038155D01*
X0002863Y0038212D01*
X0003137Y0038370D01*
X0003360Y0038593D01*
X0003518Y0038867D01*
X0003575Y0039080D01*
D02*
G37*
G36*
X0002150D02*
X0001225D01*
X0001282Y0038867D01*
X0001440Y0038593D01*
X0001663Y0038370D01*
X0001937Y0038212D01*
X0002150Y0038155D01*
Y0039080D01*
D02*
G37*
G36*
X0036825Y0038500D02*
X0036350D01*
Y0038050D01*
X0036825D01*
Y0038500D01*
D02*
G37*
G36*
X0014500Y0039525D02*
X0013650D01*
Y0037500D01*
X0014500D01*
Y0039525D01*
D02*
G37*
G36*
X0013150D02*
X0012300D01*
Y0037500D01*
X0013150D01*
Y0039525D01*
D02*
G37*
G36*
X0014500Y0037000D02*
X0013650D01*
Y0034975D01*
X0014500D01*
Y0037000D01*
D02*
G37*
G36*
X0013150D02*
X0012300D01*
Y0034975D01*
X0013150D01*
Y0037000D01*
D02*
G37*
G36*
X0026619Y0035700D02*
X0026381D01*
X0026160Y0035609D01*
X0025991Y0035440D01*
X0025900Y0035219D01*
Y0034981D01*
X0025991Y0034760D01*
X0026160Y0034591D01*
X0026381Y0034500D01*
X0026619D01*
X0026840Y0034591D01*
X0027009Y0034760D01*
X0027100Y0034981D01*
Y0035219D01*
X0027009Y0035440D01*
X0026840Y0035609D01*
X0026619Y0035700D01*
D02*
G37*
G36*
X0005992Y0036006D02*
X0003250D01*
Y0033943D01*
X0005992D01*
Y0036006D01*
D02*
G37*
G36*
X0031310Y0032815D02*
X0030860D01*
Y0032340D01*
X0031310D01*
Y0032815D01*
D02*
G37*
G36*
X0030360D02*
X0029910D01*
Y0032340D01*
X0030360D01*
Y0032815D01*
D02*
G37*
G36*
X0005992Y0033443D02*
X0003250D01*
Y0031380D01*
X0005992D01*
Y0033443D01*
D02*
G37*
G36*
X0040750D02*
X0038008D01*
Y0031380D01*
X0040750D01*
Y0033443D01*
D02*
G37*
G36*
X0017910Y0031545D02*
X0017460D01*
Y0031070D01*
X0017910D01*
Y0031545D01*
D02*
G37*
G36*
X0016960D02*
X0016510D01*
Y0031070D01*
X0016960D01*
Y0031545D01*
D02*
G37*
G36*
X0015710D02*
X0015260D01*
Y0031070D01*
X0015710D01*
Y0031545D01*
D02*
G37*
G36*
X0014760D02*
X0014310D01*
Y0031070D01*
X0014760D01*
Y0031545D01*
D02*
G37*
G36*
X0035710Y0030415D02*
X0035260D01*
Y0029940D01*
X0035710D01*
Y0030415D01*
D02*
G37*
G36*
X0034760D02*
X0034310D01*
Y0029940D01*
X0034760D01*
Y0030415D01*
D02*
G37*
G36*
X0034970Y0045765D02*
X0034520D01*
Y0045290D01*
X0034970D01*
Y0045765D01*
D02*
G37*
G36*
X0037425Y0043324D02*
X0036950D01*
Y0042674D01*
X0037425D01*
Y0043324D01*
D02*
G37*
G36*
X0035380Y0041910D02*
X0034730D01*
Y0041560D01*
X0035380D01*
Y0041910D01*
D02*
G37*
G36*
X0036820Y0040690D02*
X0036345D01*
Y0040240D01*
X0036820D01*
Y0040690D01*
D02*
G37*
G36*
X0035935Y0040790D02*
X0035260D01*
Y0040240D01*
X0035935D01*
Y0040790D01*
D02*
G37*
G36*
X0034760D02*
X0034085D01*
Y0040240D01*
X0034760D01*
Y0040790D01*
D02*
G37*
G36*
X0036820Y0039740D02*
X0036345D01*
Y0039290D01*
X0036820D01*
Y0039740D01*
D02*
G37*
G36*
X0035935Y0039740D02*
X0035260D01*
Y0039190D01*
X0035935D01*
Y0039740D01*
D02*
G37*
G36*
X0034760D02*
X0034085D01*
Y0039190D01*
X0034760D01*
Y0039740D01*
D02*
G37*
G36*
X0040425Y0042174D02*
X0039950D01*
Y0041524D01*
X0040425D01*
Y0042174D01*
D02*
G37*
G36*
X0039245Y0040690D02*
X0038770D01*
Y0040240D01*
X0039245D01*
Y0040690D01*
D02*
G37*
G36*
X0040330Y0040790D02*
X0039655D01*
Y0040240D01*
X0040330D01*
Y0040790D01*
D02*
G37*
G36*
X0039245Y0039740D02*
X0038770D01*
Y0039290D01*
X0039245D01*
Y0039740D01*
D02*
G37*
G36*
X0040330D02*
X0039655D01*
Y0039190D01*
X0040330D01*
Y0039740D01*
D02*
G37*
G36*
X0017910Y0027840D02*
X0017460D01*
Y0027365D01*
X0017910D01*
Y0027840D01*
D02*
G37*
G36*
X0016960D02*
X0016510D01*
Y0027365D01*
X0016960D01*
Y0027840D01*
D02*
G37*
G36*
X0008150Y0027985D02*
Y0027060D01*
X0009075D01*
X0009018Y0027273D01*
X0008860Y0027547D01*
X0008637Y0027770D01*
X0008363Y0027928D01*
X0008150Y0027985D01*
D02*
G37*
G36*
X0007650D02*
X0007437Y0027928D01*
X0007163Y0027770D01*
X0006940Y0027547D01*
X0006782Y0027273D01*
X0006725Y0027060D01*
X0007650D01*
Y0027985D01*
D02*
G37*
G36*
X0036030Y0026585D02*
Y0025660D01*
X0036955D01*
X0036898Y0025873D01*
X0036740Y0026147D01*
X0036517Y0026370D01*
X0036243Y0026528D01*
X0036030Y0026585D01*
D02*
G37*
G36*
X0035530D02*
X0035317Y0026528D01*
X0035043Y0026370D01*
X0034820Y0026147D01*
X0034662Y0025873D01*
X0034605Y0025660D01*
X0035530D01*
Y0026585D01*
D02*
G37*
G36*
X0009075Y0026560D02*
X0008150D01*
Y0025635D01*
X0008363Y0025692D01*
X0008637Y0025850D01*
X0008860Y0026073D01*
X0009018Y0026347D01*
X0009075Y0026560D01*
D02*
G37*
G36*
X0007650D02*
X0006725D01*
X0006782Y0026347D01*
X0006940Y0026073D01*
X0007163Y0025850D01*
X0007437Y0025692D01*
X0007650Y0025635D01*
Y0026560D01*
D02*
G37*
G36*
X0005992Y0027320D02*
X0003250D01*
Y0025257D01*
X0005992D01*
Y0027320D01*
D02*
G37*
G36*
X0040750Y0027320D02*
X0038008D01*
Y0025257D01*
X0040750D01*
Y0027320D01*
D02*
G37*
G36*
X0022310Y0025440D02*
X0021860D01*
Y0024965D01*
X0022310D01*
Y0025440D01*
D02*
G37*
G36*
X0021360D02*
X0020910D01*
Y0024965D01*
X0021360D01*
Y0025440D01*
D02*
G37*
G36*
X0036955Y0025160D02*
X0036030D01*
Y0024235D01*
X0036243Y0024292D01*
X0036517Y0024450D01*
X0036740Y0024673D01*
X0036898Y0024947D01*
X0036955Y0025160D01*
D02*
G37*
G36*
X0035530D02*
X0034605D01*
X0034662Y0024947D01*
X0034820Y0024673D01*
X0035043Y0024450D01*
X0035317Y0024292D01*
X0035530Y0024235D01*
Y0025160D01*
D02*
G37*
G36*
X0005992Y0024757D02*
X0003250D01*
Y0022694D01*
X0005992D01*
Y0024757D01*
D02*
G37*
G36*
X0040750D02*
X0038008D01*
Y0022694D01*
X0040750D01*
Y0024757D01*
D02*
G37*
G36*
X0026627Y0019080D02*
X0026388D01*
X0026167Y0018989D01*
X0025999Y0018820D01*
X0025907Y0018600D01*
Y0018361D01*
X0025999Y0018141D01*
X0026167Y0017972D01*
X0026388Y0017880D01*
X0026627D01*
X0026847Y0017972D01*
X0027016Y0018141D01*
X0027107Y0018361D01*
Y0018600D01*
X0027016Y0018820D01*
X0026847Y0018989D01*
X0026627Y0019080D01*
D02*
G37*
G36*
X0005992Y0019406D02*
X0003250D01*
Y0017343D01*
X0005992D01*
Y0019406D01*
D02*
G37*
G36*
X0040750Y0019406D02*
X0038008D01*
Y0017343D01*
X0040750D01*
Y0019406D01*
D02*
G37*
G36*
X0031320Y0016450D02*
X0030870D01*
Y0015975D01*
X0031320D01*
Y0016450D01*
D02*
G37*
G36*
X0030370D02*
X0029920D01*
Y0015975D01*
X0030370D01*
Y0016450D01*
D02*
G37*
G36*
X0005992Y0016843D02*
X0003250D01*
Y0014780D01*
X0005992D01*
Y0016843D01*
D02*
G37*
G36*
X0040750Y0016843D02*
X0038008D01*
Y0014780D01*
X0040750D01*
Y0016843D01*
D02*
G37*
G36*
X0015720Y0014925D02*
X0015270D01*
Y0014450D01*
X0015720D01*
Y0014925D01*
D02*
G37*
G36*
X0014770D02*
X0014320D01*
Y0014450D01*
X0014770D01*
Y0014925D01*
D02*
G37*
G36*
X0017920D02*
X0017470D01*
Y0014450D01*
X0017920D01*
Y0014925D01*
D02*
G37*
G36*
X0016970D02*
X0016520D01*
Y0014450D01*
X0016970D01*
Y0014925D01*
D02*
G37*
G36*
X0035720Y0014000D02*
X0035270D01*
Y0013525D01*
X0035720D01*
Y0014000D01*
D02*
G37*
G36*
X0034770D02*
X0034320D01*
Y0013525D01*
X0034770D01*
Y0014000D01*
D02*
G37*
G36*
X0017920Y0011325D02*
X0017470D01*
Y0010850D01*
X0017920D01*
Y0011325D01*
D02*
G37*
G36*
X0016970D02*
X0016520D01*
Y0010850D01*
X0016970D01*
Y0011325D01*
D02*
G37*
G36*
X0008160Y0011385D02*
Y0010460D01*
X0009085D01*
X0009028Y0010673D01*
X0008870Y0010947D01*
X0008647Y0011170D01*
X0008373Y0011328D01*
X0008160Y0011385D01*
D02*
G37*
G36*
X0007660D02*
X0007447Y0011328D01*
X0007173Y0011170D01*
X0006950Y0010947D01*
X0006792Y0010673D01*
X0006735Y0010460D01*
X0007660D01*
Y0011385D01*
D02*
G37*
G36*
X0036350Y0010205D02*
Y0009280D01*
X0037275D01*
X0037218Y0009493D01*
X0037060Y0009767D01*
X0036837Y0009990D01*
X0036563Y0010148D01*
X0036350Y0010205D01*
D02*
G37*
G36*
X0035850D02*
X0035637Y0010148D01*
X0035363Y0009990D01*
X0035140Y0009767D01*
X0034982Y0009493D01*
X0034925Y0009280D01*
X0035850D01*
Y0010205D01*
D02*
G37*
G36*
X0009085Y0009960D02*
X0008160D01*
Y0009035D01*
X0008373Y0009092D01*
X0008647Y0009250D01*
X0008870Y0009473D01*
X0009028Y0009747D01*
X0009085Y0009960D01*
D02*
G37*
G36*
X0007660D02*
X0006735D01*
X0006792Y0009747D01*
X0006950Y0009473D01*
X0007173Y0009250D01*
X0007447Y0009092D01*
X0007660Y0009035D01*
Y0009960D01*
D02*
G37*
G36*
X0005992Y0010720D02*
X0003250D01*
Y0008657D01*
X0005992D01*
Y0010720D01*
D02*
G37*
G36*
X0040750Y0010720D02*
X0038008D01*
Y0008657D01*
X0040750D01*
Y0010720D01*
D02*
G37*
G36*
X0022320Y0008900D02*
X0021870D01*
Y0008425D01*
X0022320D01*
Y0008900D01*
D02*
G37*
G36*
X0021370D02*
X0020920D01*
Y0008425D01*
X0021370D01*
Y0008900D01*
D02*
G37*
G36*
X0037275Y0008780D02*
X0036350D01*
Y0007855D01*
X0036563Y0007912D01*
X0036837Y0008070D01*
X0037060Y0008293D01*
X0037218Y0008567D01*
X0037275Y0008780D01*
D02*
G37*
G36*
X0035850D02*
X0034925D01*
X0034982Y0008567D01*
X0035140Y0008293D01*
X0035363Y0008070D01*
X0035637Y0007912D01*
X0035850Y0007855D01*
Y0008780D01*
D02*
G37*
G36*
X0005992Y0008157D02*
X0003250D01*
Y0006094D01*
X0005992D01*
Y0008157D01*
D02*
G37*
G36*
X0040750Y0008157D02*
X0038008D01*
Y0006094D01*
X0040750D01*
Y0008157D01*
D02*
G37*
%LPD*%
D14*
X0030360Y0030365D02*
X0030610Y0030615D01*
X0029010Y0029040D02*
X0030335Y0030365D01*
X0030360D01*
X0027610Y0029040D02*
X0029010D01*
X0030610Y0030615D02*
Y0030640D01*
X0028562Y0011521D02*
X0028786D01*
X0028108Y0011975D02*
X0028562Y0011521D01*
X0027620Y0011975D02*
X0028108D01*
X0028786Y0011521D02*
X0028844Y0011464D01*
X0028297Y0027540D02*
X0028737Y0027100D01*
X0027610Y0027540D02*
X0028297D01*
X0028737Y0027100D02*
X0028800D01*
X0029820Y0013475D02*
X0030345Y0014000D01*
X0027620Y0013475D02*
X0029820D01*
X0030345Y0014000D02*
X0030370D01*
X0030620Y0014250D02*
Y0014275D01*
X0030370Y0014000D02*
X0030620Y0014250D01*
X0022830Y0012200D02*
X0023400D01*
X0023675Y0012475D01*
X0024620D01*
X0022823Y0012193D02*
X0022830Y0012200D01*
X0023400Y0011500D02*
X0023875Y0011975D01*
X0024620D01*
X0022520Y0011500D02*
X0023400D01*
X0024620Y0011975D02*
X0025620D01*
X0026120Y0012475D01*
X0021895Y0010875D02*
X0022520Y0011500D01*
X0021610Y0027140D02*
X0023540D01*
X0024610Y0027540D02*
X0025610D01*
X0023940D02*
X0024610D01*
X0025610D02*
X0026110Y0028040D01*
X0023647D02*
X0024610D01*
X0023319Y0027781D02*
X0023388D01*
X0023647Y0028040D01*
X0023540Y0027140D02*
X0023940Y0027540D01*
X0035020Y0015700D02*
Y0016645D01*
X0035010Y0033060D02*
X0035010Y0033060D01*
X0035010Y0032115D02*
Y0033060D01*
X0017220Y0009150D02*
X0019420D01*
X0017210Y0025665D02*
X0019410D01*
X0021610Y0027140D02*
Y0027165D01*
X0021860Y0027415D01*
X0021620Y0010625D02*
X0021870Y0010875D01*
X0021895D01*
X0021620Y0010600D02*
Y0010625D01*
X0030620Y0014275D02*
X0030645Y0014250D01*
X0032820D01*
Y0015700D02*
X0035020D01*
X0019420Y0010600D02*
X0021620D01*
X0032810Y0032115D02*
X0035010D01*
X0030635Y0030665D02*
X0032810D01*
X0019410Y0027115D02*
X0021585D01*
D15*
X0034480Y0042160D02*
D03*
Y0043110D02*
D03*
Y0044060D02*
D03*
X0031980D02*
D03*
Y0042160D02*
D03*
D16*
X0026120Y0012475D02*
D03*
X0026110Y0028040D02*
D03*
D17*
X0027620Y0013475D02*
D03*
Y0012975D02*
D03*
Y0012475D02*
D03*
Y0011975D02*
D03*
Y0011475D02*
D03*
X0024620D02*
D03*
Y0011975D02*
D03*
Y0012475D02*
D03*
Y0012975D02*
D03*
Y0013475D02*
D03*
X0027610Y0029040D02*
D03*
Y0028540D02*
D03*
Y0028040D02*
D03*
Y0027540D02*
D03*
Y0027040D02*
D03*
X0024610D02*
D03*
Y0027540D02*
D03*
Y0028040D02*
D03*
Y0028540D02*
D03*
Y0029040D02*
D03*
D18*
X0037675Y0042424D02*
D03*
X0040675D02*
D03*
D19*
X0036480Y0046015D02*
D03*
Y0047465D02*
D03*
X0034270D02*
D03*
Y0046015D02*
D03*
X0035020Y0015700D02*
D03*
Y0014250D02*
D03*
X0032820Y0015700D02*
D03*
Y0014250D02*
D03*
X0030620Y0014275D02*
D03*
Y0015725D02*
D03*
X0012810Y0009140D02*
D03*
Y0010590D02*
D03*
X0010610D02*
D03*
Y0009140D02*
D03*
X0021620Y0012750D02*
D03*
Y0014200D02*
D03*
X0019420Y0014200D02*
D03*
Y0012750D02*
D03*
X0017220Y0014200D02*
D03*
Y0012750D02*
D03*
X0015020D02*
D03*
Y0014200D02*
D03*
X0012810Y0012750D02*
D03*
Y0014200D02*
D03*
X0010610D02*
D03*
Y0012750D02*
D03*
X0035010Y0032115D02*
D03*
Y0030665D02*
D03*
X0032810Y0032115D02*
D03*
Y0030665D02*
D03*
X0030610Y0030640D02*
D03*
Y0032090D02*
D03*
X0019410Y0029365D02*
D03*
Y0030815D02*
D03*
X0012801Y0025778D02*
D03*
Y0027228D02*
D03*
X0010601D02*
D03*
Y0025778D02*
D03*
X0021610Y0030815D02*
D03*
Y0029365D02*
D03*
X0017210Y0029370D02*
D03*
Y0030820D02*
D03*
X0015010D02*
D03*
Y0029370D02*
D03*
X0012803D02*
D03*
Y0030820D02*
D03*
X0010603D02*
D03*
Y0029370D02*
D03*
X0029590Y0043650D02*
D03*
Y0042200D02*
D03*
X0019600Y0043925D02*
D03*
Y0042475D02*
D03*
X0032860Y0028490D02*
D03*
Y0027040D02*
D03*
X0030660Y0027065D02*
D03*
Y0028515D02*
D03*
X0032820Y0012100D02*
D03*
Y0010650D02*
D03*
X0030620D02*
D03*
Y0012100D02*
D03*
X0017220Y0009150D02*
D03*
Y0010600D02*
D03*
X0019420Y0009150D02*
D03*
Y0010600D02*
D03*
X0021620D02*
D03*
Y0009150D02*
D03*
X0021610Y0027140D02*
D03*
Y0025690D02*
D03*
X0019410Y0025665D02*
D03*
Y0027115D02*
D03*
X0017210Y0025665D02*
D03*
Y0027115D02*
D03*
D20*
X0040580Y0039990D02*
D03*
Y0037990D02*
D03*
X0035010D02*
D03*
Y0039990D02*
D03*
D21*
X0031465Y0040240D02*
D03*
X0032915D02*
D03*
X0038525Y0037800D02*
D03*
X0037075D02*
D03*
X0024775Y0046200D02*
D03*
X0026225D02*
D03*
X0037070Y0039990D02*
D03*
X0038520D02*
D03*
X0031375Y0035700D02*
D03*
X0032825D02*
D03*
X0026825Y0015500D02*
D03*
X0025375D02*
D03*
X0026925Y0031100D02*
D03*
X0025475D02*
D03*
D22*
X0041000Y0017093D02*
D03*
Y0008407D02*
D03*
X0041000Y0033693D02*
D03*
Y0025007D02*
D03*
X0003000Y0008407D02*
D03*
Y0017093D02*
D03*
Y0025007D02*
D03*
Y0033693D02*
D03*
D23*
X0041000Y0012750D02*
D03*
X0041000Y0029350D02*
D03*
X0003000Y0012750D02*
D03*
Y0029350D02*
D03*
D24*
X0013400Y0043950D02*
D03*
Y0037250D02*
D03*
D25*
X0026600Y0043875D02*
D03*
X0022000D02*
D03*
X0024300D02*
D03*
D26*
Y0037925D02*
D03*
D27*
X0007600Y0040625D02*
D03*
Y0041375D02*
D03*
X0005400Y0040625D02*
D03*
Y0041375D02*
D03*
D46*
X0028315Y0010222D02*
D03*
X0023700Y0009900D02*
D03*
X0028260Y0025360D02*
D03*
X0023700Y0025200D02*
D03*
D47*
X0028290Y0031100D02*
X0028490Y0030900D01*
X0026925Y0031100D02*
X0028290D01*
X0024610Y0030987D02*
X0024723Y0031100D01*
X0024610Y0029040D02*
Y0030987D01*
X0024723Y0031100D02*
X0025475D01*
X0028700Y0028000D02*
X0029635Y0027065D01*
X0028660Y0028040D02*
X0028700Y0028000D01*
X0030660Y0027065D02*
X0032835D01*
X0029635D02*
X0030660D01*
X0028800Y0012275D02*
Y0012400D01*
X0028742Y0012217D02*
X0028800Y0012275D01*
X0027870Y0011475D02*
X0028315Y0011030D01*
Y0010222D02*
Y0011030D01*
X0027620Y0011475D02*
X0027870D01*
X0026825Y0015500D02*
X0027946D01*
X0028616Y0014830D01*
X0028725Y0012475D02*
X0028800Y0012400D01*
X0027620Y0012475D02*
X0028725D01*
X0029745Y0012975D02*
X0030292Y0012428D01*
X0027620Y0012975D02*
X0029745D01*
X0028800Y0012400D02*
X0028895D01*
X0030620Y0010675D01*
X0027627Y0028557D02*
X0030618D01*
X0030685Y0028490D01*
X0027610Y0028540D02*
X0027627Y0028557D01*
X0030685Y0028490D02*
X0032860D01*
X0027610Y0028040D02*
X0028660D01*
X0027610Y0027040D02*
X0028098D01*
X0028269Y0025369D02*
Y0026869D01*
X0028260Y0025360D02*
X0028269Y0025369D01*
X0028098Y0027040D02*
X0028269Y0026869D01*
X0030620Y0010650D02*
Y0010675D01*
Y0010650D02*
X0032820D01*
X0024620Y0014745D02*
X0025047Y0015172D01*
Y0015197D02*
X0025350Y0015500D01*
X0024620Y0013475D02*
Y0014745D01*
X0025047Y0015172D02*
Y0015197D01*
X0025350Y0015500D02*
X0025375D01*
X0023700Y0009900D02*
Y0011046D01*
X0024088Y0011434D01*
X0024579D01*
X0024620Y0011475D01*
X0023169Y0012750D02*
X0023394Y0012975D01*
X0024620D01*
X0021620Y0012750D02*
X0023169D01*
X0015020Y0012750D02*
X0019420D01*
X0023797Y0025297D02*
Y0025564D01*
X0023800Y0025567D01*
X0023700Y0025200D02*
X0023797Y0025297D01*
X0023800Y0025567D02*
Y0026800D01*
X0024038Y0027038D02*
X0024608D01*
X0023800Y0026800D02*
X0024038Y0027038D01*
X0024608D02*
X0024610Y0027040D01*
X0032860Y0028490D02*
X0033690D01*
X0021938Y0030487D02*
X0023385Y0029040D01*
X0015013Y0029366D02*
X0017210D01*
X0019410D01*
X0021610Y0029365D02*
X0022300D01*
X0019410Y0029366D02*
X0021609D01*
X0022300Y0029365D02*
X0023125Y0028540D01*
X0023385Y0029040D02*
X0024610D01*
X0023125Y0028540D02*
X0024610D01*
X0021612Y0030788D02*
Y0030813D01*
X0010583Y0029350D02*
X0010601Y0029332D01*
X0037840Y0012750D02*
X0041000D01*
X0037650Y0012560D02*
X0037840Y0012750D01*
X0037650Y0011730D02*
Y0012560D01*
X0037490Y0011570D02*
X0037650Y0011730D01*
X0036100Y0011570D02*
X0037490D01*
X0033800Y0012100D02*
X0034330Y0011570D01*
X0036100D01*
X0032820Y0012100D02*
X0033800D01*
X0030620D02*
X0032820D01*
X0030292Y0012428D02*
X0030317D01*
X0030620Y0012125D01*
Y0012100D02*
Y0012125D01*
X0021620Y0014175D02*
Y0014200D01*
Y0014175D02*
X0021923Y0013872D01*
X0021948D01*
X0022370Y0013450D01*
X0024560D01*
X0021620Y0014200D02*
X0021620Y0014200D01*
X0019420Y0014200D02*
X0021620D01*
X0019420D02*
Y0016795D01*
X0012810Y0012750D02*
X0012810Y0012750D01*
Y0010590D02*
Y0012750D01*
X0010610Y0012750D02*
X0010610Y0012750D01*
Y0010590D02*
Y0012750D01*
X0021620Y0012750D02*
X0021620Y0012750D01*
X0019420Y0012750D02*
X0021620D01*
X0019420Y0012750D02*
X0019420Y0012750D01*
X0012810Y0012750D02*
X0015020D01*
X0010610D02*
X0012810D01*
X0007910D02*
X0010610D01*
X0003000D02*
X0007910D01*
X0037370Y0027950D02*
X0037700Y0028280D01*
Y0029130D01*
X0037920Y0029350D01*
X0041000D01*
X0035780Y0027950D02*
X0037370D01*
X0034230D02*
X0035780D01*
X0033690Y0028490D02*
X0034230Y0027950D01*
X0021612Y0030788D02*
X0021913Y0030487D01*
X0021938D01*
X0032835Y0027065D02*
X0032860Y0027040D01*
X0019410Y0030815D02*
X0021610D01*
X0019410Y0030815D02*
X0019410Y0030815D01*
X0019410Y0030815D02*
Y0033390D01*
X0012801Y0029368D02*
X0012803Y0029370D01*
X0012801Y0027228D02*
Y0029368D01*
X0010601Y0027228D02*
Y0029332D01*
X0021609Y0029366D02*
X0021610Y0029365D01*
X0015010Y0029370D02*
X0015013Y0029366D01*
X0012803Y0029370D02*
X0015010D01*
X0010603D02*
X0012803D01*
X0010583Y0029350D02*
X0010603Y0029370D01*
X0007900Y0029350D02*
X0010583D01*
X0003000D02*
X0007900D01*
D48*
X0038500Y0037200D02*
Y0037800D01*
X0032825Y0035700D02*
X0037000D01*
X0038500Y0037800D02*
X0038525D01*
X0037000Y0035700D02*
X0038500Y0037200D01*
X0039400Y0037800D02*
X0039600Y0038000D01*
X0038525Y0037800D02*
X0039400D01*
X0039600Y0038000D02*
X0040570D01*
X0040580Y0037990D01*
X0040564Y0037974D02*
X0040580Y0037990D01*
X0022000Y0043875D02*
Y0046575D01*
X0019316Y0043950D02*
X0019600D01*
X0002400Y0041870D02*
X0009870D01*
X0021950Y0043925D02*
X0022000Y0043875D01*
X0019600Y0043925D02*
X0021950D01*
X0019316Y0043950D02*
X0019316Y0043950D01*
X0013400Y0043950D02*
X0019316D01*
X0019600Y0043925D02*
Y0043950D01*
X0011869Y0043869D02*
X0013319D01*
X0013400Y0043950D01*
X0009870Y0041870D02*
X0011869Y0043869D01*
X0031097Y0039897D02*
X0031465Y0039530D01*
X0031440Y0040240D02*
Y0040265D01*
X0030688Y0039541D02*
Y0039897D01*
X0029590Y0038444D02*
X0030688Y0039541D01*
X0029590Y0038800D02*
Y0039590D01*
Y0038444D02*
Y0038800D01*
X0030755Y0040240D02*
X0031097Y0039897D01*
X0029590Y0038800D02*
X0030688Y0039897D01*
X0031097D01*
X0030379Y0038444D02*
X0031465Y0039530D01*
X0029590Y0038444D02*
X0030379D01*
X0030000Y0035700D02*
X0031375D01*
X0027700Y0033400D02*
X0030000Y0035700D01*
X0023400Y0033400D02*
X0027700D01*
X0029610Y0040240D02*
X0030240D01*
X0029590Y0039590D02*
Y0040260D01*
X0030240Y0040240D02*
X0030490D01*
X0029590Y0039590D02*
X0030240Y0040240D01*
X0030755D02*
X0031440D01*
X0030490D02*
X0030755D01*
X0031465Y0039530D02*
Y0040240D01*
Y0038885D02*
Y0039530D01*
X0029590Y0040260D02*
Y0041140D01*
X0031440Y0040240D02*
X0031465D01*
X0029590Y0040260D02*
X0029610Y0040240D01*
X0029590Y0041140D02*
Y0042175D01*
Y0041140D02*
X0030490Y0040240D01*
X0029590Y0042175D02*
X0029615D01*
X0031440Y0040265D02*
Y0040920D01*
X0030360Y0041345D02*
Y0041430D01*
Y0041345D02*
X0031440Y0040265D01*
X0029615Y0042175D02*
X0030360Y0041430D01*
X0030930D01*
X0029590Y0042175D02*
Y0042200D01*
X0030930Y0041430D02*
X0031440Y0040920D01*
X0030930Y0041430D02*
Y0042160D01*
X0031465Y0038885D02*
X0032360Y0037990D01*
X0035010D01*
X0030890Y0042200D02*
X0030930D01*
X0029590D02*
X0030890D01*
X0026225Y0045445D02*
Y0046200D01*
X0026600Y0043875D02*
Y0045070D01*
X0026225Y0045445D02*
X0026600Y0045070D01*
X0026550Y0043925D02*
X0026600Y0043875D01*
X0026225Y0046200D02*
X0026250D01*
X0029590Y0046890D02*
X0029600Y0046900D01*
X0029590Y0043650D02*
Y0046890D01*
X0029071Y0037925D02*
X0029590Y0038444D01*
X0024300Y0037925D02*
X0029071D01*
X0024775Y0045615D02*
Y0046200D01*
X0024325Y0043900D02*
X0024350Y0043925D01*
X0024300Y0043875D02*
X0024325Y0043900D01*
Y0045165D01*
X0024775Y0045615D01*
X0024300Y0037925D02*
Y0043875D01*
X0024750Y0046200D02*
X0024775D01*
D49*
X0036680Y0045790D02*
X0036705D01*
X0038695Y0043800D01*
X0041500D01*
X0036480Y0045990D02*
Y0046015D01*
Y0045990D02*
X0036680Y0045790D01*
X0040580Y0037990D02*
X0041666D01*
X0041900Y0038224D01*
Y0043400D01*
X0041500Y0043800D02*
X0041900Y0043400D01*
X0034270Y0047465D02*
X0036480D01*
X0034209Y0047404D02*
X0034270Y0047465D01*
X0033504Y0047404D02*
X0034209D01*
X0033100Y0047000D02*
X0033504Y0047404D01*
X0033100Y0044600D02*
X0033586Y0044114D01*
X0033100Y0044600D02*
Y0047000D01*
X0033586Y0044114D02*
X0034426D01*
X0034480Y0044060D01*
X0030820Y0042270D02*
X0030890Y0042200D01*
X0030820Y0042270D02*
Y0043826D01*
X0031054Y0044060D02*
X0031980D01*
X0030820Y0043826D02*
X0031054Y0044060D01*
X0010610Y0014200D02*
X0012810D01*
Y0015478D01*
X0012807Y0015480D02*
X0012810Y0015478D01*
X0012800Y0032100D02*
X0012803Y0032097D01*
Y0030820D02*
Y0032097D01*
X0010603Y0030820D02*
X0012803D01*
D50*
X0030930Y0042160D02*
X0031980D01*
D51*
X0019420Y0016795D02*
D03*
X0023400Y0033400D02*
D03*
X0019410Y0033390D02*
D03*
X0029600Y0046900D02*
D03*
X0022000Y0046575D02*
D03*
D52*
X0035780Y0027950D02*
D03*
X0002400Y0041870D02*
D03*
X0007910Y0012750D02*
D03*
X0007900Y0029350D02*
D03*
X0036100Y0011570D02*
D03*
D53*
X0035780Y0025410D02*
D03*
X0002400Y0039330D02*
D03*
X0007910Y0010210D02*
D03*
X0007900Y0026810D02*
D03*
X0036100Y0009030D02*
D03*
D54*
X0041150Y0047150D02*
D03*
Y0002850D02*
D03*
X0002850D02*
D03*
Y0047150D02*
D03*
D55*
X0041000Y0022000D02*
D03*
Y0014000D02*
D03*
X0035000Y0034000D02*
D03*
X0037000Y0030000D02*
D03*
Y0022000D02*
D03*
X0035000Y0018000D02*
D03*
X0037000Y0014000D02*
D03*
Y0006000D02*
D03*
X0035000Y0002000D02*
D03*
X0031000Y0034000D02*
D03*
Y0026000D02*
D03*
X0033000Y0022000D02*
D03*
X0031000Y0018000D02*
D03*
X0033000Y0006000D02*
D03*
X0031000Y0002000D02*
D03*
X0027000Y0042000D02*
D03*
Y0026000D02*
D03*
X0029000Y0022000D02*
D03*
X0027000Y0010000D02*
D03*
X0029000Y0006000D02*
D03*
X0027000Y0002000D02*
D03*
X0023000Y0042000D02*
D03*
Y0026000D02*
D03*
X0025000Y0022000D02*
D03*
Y0006000D02*
D03*
X0023000Y0002000D02*
D03*
X0021000Y0038000D02*
D03*
Y0022000D02*
D03*
Y0006000D02*
D03*
X0019000Y0002000D02*
D03*
X0017000Y0046000D02*
D03*
X0015000Y0042000D02*
D03*
X0017000Y0038000D02*
D03*
X0015000Y0026000D02*
D03*
X0017000Y0022000D02*
D03*
X0015000Y0010000D02*
D03*
X0017000Y0006000D02*
D03*
X0015000Y0002000D02*
D03*
X0011000Y0034000D02*
D03*
X0013000Y0022000D02*
D03*
X0011000Y0018000D02*
D03*
X0013000Y0006000D02*
D03*
X0011000Y0002000D02*
D03*
X0009000Y0046000D02*
D03*
Y0038000D02*
D03*
X0007000Y0034000D02*
D03*
X0009000Y0022000D02*
D03*
X0007000Y0018000D02*
D03*
X0009000Y0006000D02*
D03*
X0007000Y0002000D02*
D03*
X0005000Y0038000D02*
D03*
Y0022000D02*
D03*
Y0014000D02*
D03*
X0028490Y0030900D02*
D03*
X0028742Y0012217D02*
D03*
X0028844Y0011464D02*
D03*
X0028616Y0014830D02*
D03*
X0028700Y0028000D02*
D03*
X0028800Y0027100D02*
D03*
X0022823Y0012193D02*
D03*
X0035010Y0030240D02*
D03*
X0023319Y0027781D02*
D03*
X0036650Y0037800D02*
D03*
X0032915Y0039840D02*
D03*
X0013400Y0035275D02*
D03*
Y0039225D02*
D03*
X0026650Y0046200D02*
D03*
X0007600Y0040375D02*
D03*
X0005400D02*
D03*
X0019600Y0042050D02*
D03*
X0035020Y0016645D02*
D03*
X0035010Y0033060D02*
D03*
X0026507Y0018480D02*
D03*
X0012807Y0015480D02*
D03*
X0012800Y0032100D02*
D03*
X0026500Y0035100D02*
D03*
X0010610Y0008715D02*
D03*
X0012810D02*
D03*
X0017220Y0008725D02*
D03*
X0017210Y0025240D02*
D03*
X0012801Y0025353D02*
D03*
X0010601D02*
D03*
X0015022Y0014627D02*
D03*
X0017222D02*
D03*
X0041000Y0006394D02*
D03*
X0038440Y0008560D02*
D03*
X0041000Y0010420D02*
D03*
X0038308Y0017093D02*
D03*
X0041000Y0015080D02*
D03*
Y0019106D02*
D03*
X0038308Y0033693D02*
D03*
X0041000Y0035706D02*
D03*
Y0031680D02*
D03*
X0038308Y0025007D02*
D03*
X0041000Y0027020D02*
D03*
Y0022994D02*
D03*
X0035018Y0013823D02*
D03*
X0030618Y0016147D02*
D03*
X0021618Y0008722D02*
D03*
X0017218Y0011023D02*
D03*
X0005690Y0008404D02*
D03*
X0002997Y0006391D02*
D03*
Y0010417D02*
D03*
X0005690Y0017091D02*
D03*
X0002997Y0019104D02*
D03*
Y0015078D02*
D03*
Y0035704D02*
D03*
X0005690Y0033691D02*
D03*
X0002997Y0031678D02*
D03*
Y0027017D02*
D03*
X0005690Y0025004D02*
D03*
X0002997Y0022991D02*
D03*
X0015013Y0031247D02*
D03*
X0017213D02*
D03*
X0021608Y0025263D02*
D03*
X0017208Y0027538D02*
D03*
X0030608Y0032513D02*
D03*
M02*
